<?xml version="1.0" encoding="utf-8"?>
<!-- Generator: Adobe Illustrator 22.1.0, SVG Export Plug-In . SVG Version: 6.00 Build 0)  -->
<svg version="1.1" id="Calque_1" xmlns="http://www.w3.org/2000/svg" xmlns:xlink="http://www.w3.org/1999/xlink" x="0px" y="0px"
	 viewBox="0 0 120 120" style="enable-background:new 0 0 120 120;" xml:space="preserve">
<style type="text/css">
	.st0{fill:#231F20;}
	.st1{clip-path:url(#SVGID_2_);}
	.st2{fill:#1DA2AC;}
</style>
<title>Fichier 11</title>
<g id="Calque_2_1_">
	<g id="Background">
		<rect x="-0.4" y="-0.7" class="st0" width="120.4" height="120.7"/>
	</g>
	<g id="Layer_2">
		<g>
			<defs>
				<polygon id="SVGID_1_" points="116,116.2 2.7,116.2 2.8,3.3 116.2,3.3 				"/>
			</defs>
			<clipPath id="SVGID_2_">
				<use xlink:href="#SVGID_1_"  style="overflow:visible;"/>
			</clipPath>
			<g class="st1">
				<path class="st2" d="M-23.9,52.8c0,0,2.7-2.5,2.6-3.5s-6-1.8-6.9-1.5c-0.6,0.2-1.1,0.6-1.6,0.9l5.2,4.8L-23.9,52.8z"/>
				<path class="st2" d="M-25.2,54.2c0,0-2.5,2.7-3.5,2.6s-1.8-6.1-1.5-6.9c0.6-1.5,0.4-1.5,0.4-1.5l5.2,5.2L-25.2,54.2z"/>
				<path class="st2" d="M-47.7,31.7c0,0-2.7,2.6-2.6,3.5c0.1,0.9,6,1.8,6.8,1.5c0.6-0.2,1.1-0.5,1.6-0.9L-47,31L-47.7,31.7z"/>
				<path class="st2" d="M-46.3,30.4c0,0,2.5-2.8,3.6-2.6c1.1,0.2,1.8,6.1,1.5,6.9c-0.6,1.5-0.5,1.5-0.5,1.5L-47,31L-46.3,30.4z"/>
				<polygon class="st2" points="-43.5,36.2 -29.7,50.3 -26.8,53.6 -25.2,53.6 -27.5,48.9 -42.3,33.7 				"/>
				<path class="st2" d="M-62.3,91.3c0,0,2.7-2.5,2.6-3.5s-6-1.8-6.9-1.5c-0.6,0.2-1.1,0.6-1.6,0.9l5.3,4.8L-62.3,91.3z"/>
				<path class="st2" d="M-63.6,92.5c0,0-2.5,2.7-3.5,2.6c-1-0.1-1.8-6.1-1.5-6.9c0.6-1.5,0.5-1.5,0.5-1.5l5.2,5.2L-63.6,92.5z"/>
				<path class="st2" d="M-86.1,70.2c0,0-2.7,2.5-2.6,3.5s6,1.8,6.9,1.5c0.6-0.2,1.1-0.6,1.6-0.9l-5.2-4.8L-86.1,70.2z"/>
				<path class="st2" d="M-84.7,68.8c0,0,2.5-2.7,3.5-2.6c1,0.1,1.8,6.1,1.5,6.9c-0.6,1.5-0.5,1.5-0.5,1.5l-5.2-5.2L-84.7,68.8z"/>
				<polygon class="st2" points="-81.9,74.6 -68.1,88.7 -65.1,92.1 -63.6,92.1 -65.9,87.4 -80.7,72.1 				"/>
				<path class="st2" d="M-85.4,53.1c0,0-2.7-2.5-2.6-3.5s6-1.8,6.9-1.5c0.6,0.2,1.1,0.5,1.5,0.9l-5.2,4.8L-85.4,53.1z"/>
				<path class="st2" d="M-84.1,54.5c0,0,2.5,2.7,3.5,2.6c1-0.1,1.8-6,1.5-6.9c-0.6-1.5-0.5-1.5-0.5-1.5l-5.2,5.1L-84.1,54.5z"/>
				<path class="st2" d="M-61.7,32.1c0,0,2.7,2.5,2.6,3.5c-0.1,1-6,1.8-6.9,1.5c-0.6-0.2-1.1-0.5-1.5-0.9l5.2-4.8L-61.7,32.1z"/>
				<path class="st2" d="M-62.9,30.6c0,0-2.5-2.7-3.5-2.6c-1,0.1-1.8,6-1.5,6.9c0.6,1.5,0.5,1.5,0.5,1.5l5.2-5.2L-62.9,30.6z"/>
				<polygon class="st2" points="-65.8,36.4 -79.6,50.6 -82.6,53.9 -84.2,53.9 -81.8,49.2 -67,33.9 				"/>
				<path class="st2" d="M-47.9,90.8c0,0-2.7-2.5-2.6-3.5c0.1-1,6-1.8,6.9-1.5c0.6,0.2,1.1,0.5,1.5,0.9l-5.2,4.8L-47.9,90.8z"/>
				<path class="st2" d="M-46.5,92.1c0,0,2.5,2.7,3.5,2.6c1-0.1,1.8-6.1,1.5-6.9c-0.6-1.5-0.5-1.5-0.5-1.5l-5.2,5.2L-46.5,92.1z"/>
				<path class="st2" d="M-24.1,69.6c0,0,2.7,2.5,2.6,3.5c-0.1,1-6,1.8-6.9,1.5c-0.6-0.2-1.1-0.5-1.5-0.9l5.2-4.8L-24.1,69.6z"/>
				<path class="st2" d="M-25.4,68.2c0,0-2.5-2.6-3.5-2.6s-1.8,6-1.5,6.9c0.6,1.5,0.4,1.5,0.4,1.5l5.3-5.2L-25.4,68.2z"/>
				<polygon class="st2" points="-28.3,74.1 -42,88.2 -45,91.5 -46.6,91.5 -44.3,86.8 -29.5,71.6 				"/>
				<polygon class="st2" points="-42.3,68.1 -43.6,65.5 -42.2,62.6 -44.4,61.4 -50.1,65.1 -45.2,69.2 				"/>
				<polygon class="st2" points="-53,74.7 -50.6,73 -47.5,73.8 -46.8,71.6 -51.5,66.5 -54.6,72.1 				"/>
				<polygon class="st2" points="-67.8,54.7 -66.6,57.4 -67.9,60.3 -65.7,61.5 -60.1,57.7 -64.9,53.7 				"/>
				<polygon class="st2" points="-57.1,48.2 -59.5,49.9 -62.6,49.1 -63.3,51.3 -58.6,56.3 -55.6,50.8 				"/>
				<polygon class="st2" points="-62.2,74.4 -59.6,73.2 -56.7,74.5 -55.5,72.3 -59.2,66.7 -63.2,71.5 				"/>
				<polygon class="st2" points="-68.6,63.9 -66.8,66.3 -67.6,69.4 -65.4,70.1 -60.4,65.4 -65.9,62.4 				"/>
				<polygon class="st2" points="-47.6,48.2 -50.2,49.5 -53.1,48.1 -54.3,50.3 -50.6,56 -46.5,51.1 				"/>
				<polygon class="st2" points="-41.2,58.7 -42.9,56.4 -42.1,53.3 -44.3,52.6 -49.3,57.2 -43.8,60.3 				"/>
				<ellipse class="st2" cx="-55" cy="61.9" rx="2.7" ry="2.7"/>
				<path class="st2" d="M-52.1,25.1l4.3,0.6c0.5,0.1,0.9,0.5,0.8,1c0,0.2-0.1,0.4-0.3,0.6l-3.7,3.7c-0.4,0.4-1,0.4-1.3,0
					c-0.2-0.2-0.3-0.3-0.3-0.6l-0.6-4.3c-0.1-0.5,0.3-1,0.8-1.1C-52.3,25.1-52.2,25.1-52.1,25.1z"/>
				<path class="st2" d="M-53.1,26.1c0.2,1.2,0.4,3,0.6,4.3c0.1,0.5,0.5,0.9,1,0.8c0.2,0,0.4-0.1,0.6-0.3l3.7-3.7
					c0.4-0.4,0.4-1,0-1.3c-0.1-0.2-0.3-0.3-0.6-0.3L-52,25c-0.5-0.1-1,0.3-1,0.8C-53.1,25.9-53.1,26-53.1,26.1z"/>
				<path class="st2" d="M-56.6,26.1c-0.2,1.2-0.4,3-0.6,4.3c-0.1,0.5-0.5,0.9-1,0.8c-0.2,0-0.4-0.1-0.6-0.3l-3.7-3.7
					c-0.4-0.4-0.4-1,0-1.3c0.1-0.2,0.3-0.3,0.6-0.3l4.3-0.6c0.5-0.1,1,0.3,1.1,0.8C-56.6,25.9-56.6,26-56.6,26.1z"/>
				<path class="st2" d="M-56.6,20.9c-0.2-1.2-0.4-3-0.6-4.5c-0.1-0.5-0.6-0.9-1.1-0.8c-0.2,0-0.4,0.1-0.5,0.3l-3.7,3.7
					c-0.4,0.4-0.4,1,0,1.3c0.1,0.2,0.3,0.3,0.6,0.3l4.3,0.6c0.5,0.1,1-0.3,1.1-0.8C-56.6,21-56.6,20.9-56.6,20.9z"/>
				<path class="st2" d="M-53.1,20.9l0.6-4.5c0.1-0.5,0.6-0.9,1.1-0.8c0.2,0,0.4,0.1,0.5,0.3l3.7,3.8c0.4,0.4,0.4,1,0,1.3
					c-0.1,0.2-0.3,0.3-0.6,0.3l-4.3,0.6c-0.5,0.1-1-0.3-1-0.8C-53.1,21-53.1,21-53.1,20.9z"/>
				<path class="st2" d="M-90.2,63.4l4.3,0.6c0.5,0.1,0.9,0.6,0.8,1.1c0,0.2-0.1,0.4-0.3,0.5l-3.7,3.6c-0.4,0.4-1,0.4-1.4,0
					c-0.1-0.1-0.2-0.3-0.3-0.5l-0.6-4.3c0-0.5,0.4-1,0.9-1C-90.3,63.4-90.3,63.4-90.2,63.4z"/>
				<path class="st2" d="M-91.2,64.3c0.2,1.2,0.4,3,0.6,4.3c0.1,0.5,0.5,0.9,1,0.8c0.2,0,0.4-0.1,0.6-0.3l3.8-3.7
					c0.4-0.4,0.4-1,0-1.3c-0.1-0.2-0.3-0.3-0.5-0.3l-4.3-0.6c-0.5-0.1-1,0.2-1.2,0.8C-91.2,64.1-91.2,64.2-91.2,64.3z"/>
				<path class="st2" d="M-94.7,64.3c-0.2,1.2-0.4,3-0.6,4.3c-0.1,0.5-0.5,0.9-1,0.8c-0.2,0-0.4-0.1-0.6-0.3l-3.7-3.7
					c-0.4-0.4-0.3-1,0-1.4c0.1-0.1,0.3-0.2,0.5-0.3l4.3-0.6c0.5-0.1,1,0.3,1.1,0.9C-94.7,64.1-94.7,64.2-94.7,64.3z"/>
				<path class="st2" d="M-94.7,59c-0.2-1.2-0.4-3-0.6-4.3c-0.1-0.5-0.5-0.9-1-0.8c-0.2,0-0.4,0.1-0.6,0.3l-3.7,3.8
					c-0.4,0.4-0.3,1,0,1.4c0.1,0.1,0.3,0.2,0.5,0.3l4.3,0.6c0.5,0.1,1-0.3,1.1-0.8C-94.6,59.2-94.6,59.1-94.7,59z"/>
				<path class="st2" d="M-91.2,59c0.2-1.2,0.4-3,0.6-4.3c0.1-0.5,0.5-0.9,1-0.8c0.2,0,0.4,0.1,0.6,0.3l3.8,3.8c0.4,0.4,0.4,1,0,1.3
					c-0.1,0.2-0.3,0.3-0.5,0.3l-4.3,0.6c-0.5,0.1-1.1-0.2-1.2-0.8C-91.2,59.2-91.2,59.1-91.2,59z"/>
				<path class="st2" d="M-14.2,63.1l4.3,0.6c0.5,0.1,0.9,0.6,0.8,1.1c0,0.2-0.1,0.4-0.3,0.5l-3.7,3.7c-0.4,0.4-1,0.4-1.4,0
					c-0.1-0.1-0.2-0.3-0.3-0.5l-0.6-4.3c-0.1-0.5,0.3-1,0.8-1.1C-14.4,63.1-14.3,63.1-14.2,63.1z"/>
				<path class="st2" d="M-15.2,64.1c0.2,1.2,0.4,3,0.6,4.5c0.1,0.5,0.5,0.9,1,0.8c0.2,0,0.4-0.1,0.6-0.3l3.7-3.8
					c0.4-0.4,0.4-1,0-1.3c-0.1-0.2-0.3-0.3-0.5-0.3L-14,63c-0.5-0.1-1,0.2-1.1,0.8C-15.2,63.9-15.2,64-15.2,64.1z"/>
				<path class="st2" d="M-18.7,64.1c-0.2,1.2-0.4,3-0.6,4.5c-0.1,0.5-0.5,0.9-1,0.8c-0.2,0-0.4-0.1-0.6-0.3l-3.7-3.7
					c-0.4-0.4-0.3-1,0-1.4c0.1-0.1,0.3-0.2,0.5-0.3l4.3-0.6c0.5-0.1,1,0.3,1.1,0.8C-18.7,64-18.7,64-18.7,64.1z"/>
				<path class="st2" d="M-18.7,59c-0.2-1.2-0.4-3-0.6-4.3c-0.1-0.5-0.5-0.9-1-0.8c-0.2,0-0.4,0.1-0.6,0.3l-3.7,3.7
					c-0.4,0.4-0.3,1,0,1.4c0.1,0.1,0.3,0.2,0.5,0.3l4.3,0.6c0.5,0.1,1-0.3,1.1-0.8C-18.7,59.1-18.6,59-18.7,59z"/>
				<path class="st2" d="M-15.2,59c0.2-1.2,0.4-3,0.6-4.3c0.1-0.5,0.5-0.9,1-0.8c0.2,0,0.4,0.1,0.6,0.3l3.7,3.6c0.4,0.4,0.4,1,0,1.3
					c-0.1,0.2-0.3,0.3-0.5,0.3l-4.3,0.6c-0.5,0.1-1-0.2-1.1-0.8C-15.2,59.1-15.2,59-15.2,59z"/>
				<path class="st2" d="M13.9,14.9c0,0,2.7-2.5,2.6-3.5c-0.1-1-6-1.8-6.9-1.5c-0.6,0.2-1.1,0.5-1.5,0.9l5.2,4.8L13.9,14.9z"/>
				<path class="st2" d="M12.6,16.3c0,0-2.5,2.7-3.5,2.6s-1.8-6-1.5-6.9c0.6-1.5,0.5-1.5,0.5-1.5l5.2,5.2L12.6,16.3z"/>
				<path class="st2" d="M-9.9-6.2c0,0-2.7,2.5-2.6,3.5c0.1,1,6,1.8,6.9,1.5C-5-1.4-4.5-1.7-4-2.1l-5.2-4.8L-9.9-6.2z"/>
				<path class="st2" d="M-8.5-7.5c0,0,2.5-2.7,3.5-2.6c1,0.1,1.8,6,1.5,6.9C-4.1-1.8-4-1.7-4-1.7l-5.2-5.2L-8.5-7.5z"/>
				<polygon class="st2" points="-5.7,-1.7 8.1,12.4 11.1,15.7 12.6,15.7 10.3,11 -4.5,-4.2 				"/>
				<path class="st2" d="M-47.6,15.2c0,0-2.7-2.5-2.6-3.5s6-1.8,6.9-1.5c0.6,0.2,1.1,0.5,1.6,0.9l-5.2,4.8L-47.6,15.2z"/>
				<path class="st2" d="M-46.3,16.6c0,0,2.5,2.7,3.5,2.6s1.8-6.1,1.5-6.9c-0.6-1.5-0.4-1.5-0.4-1.5l-5.3,5.2L-46.3,16.6z"/>
				<path class="st2" d="M-23.8-6c0,0,2.7,2.5,2.6,3.5c-0.1,1-6,1.8-6.9,1.5c-0.6-0.2-1.1-0.5-1.5-0.9l5.2-4.8L-23.8-6z"/>
				<path class="st2" d="M-25.2-7.2c0,0-2.5-2.7-3.5-2.6c-1,0.1-1.8,6-1.5,6.9c0.6,1.5,0.5,1.5,0.5,1.5l5.2-5.2L-25.2-7.2z"/>
				<polygon class="st2" points="-28,-1.4 -41.8,12.7 -44.7,16 -46.3,16 -44,11.3 -29.2,-4 				"/>
				<path class="st2" d="M-10.1,52.8c0,0-2.7-2.5-2.6-3.5c0.1-1,6-1.8,6.9-1.5c0.6,0.2,1.1,0.5,1.5,0.9l-5.2,4.8L-10.1,52.8z"/>
				<path class="st2" d="M-8.7,54.2c0,0,2.5,2.7,3.5,2.6s1.8-6.1,1.5-6.9c-0.6-1.5-0.5-1.5-0.5-1.5l-5.2,5.2L-8.7,54.2z"/>
				<path class="st2" d="M13.7,31.7c0,0,2.7,2.5,2.6,3.5c-0.1,1-6,1.8-6.9,1.5c-0.6-0.2-1.1-0.5-1.5-0.9l5.2-4.8L13.7,31.7z"/>
				<path class="st2" d="M12.4,30.4c0,0-2.5-2.7-3.5-2.6c-1,0.1-1.8,6.1-1.5,6.9c0.6,1.5,0.5,1.5,0.5,1.5l5.3-5.2L12.4,30.4z"/>
				<polygon class="st2" points="9.5,36.2 -4.2,50.3 -7.2,53.6 -8.8,53.6 -6.5,48.9 8.4,33.7 				"/>
				<polygon class="st2" points="-4.5,30.2 -5.7,27.6 -4.4,24.7 -6.6,23.5 -12.2,27.2 -7.3,31.3 				"/>
				<polygon class="st2" points="-15.1,36.8 -12.8,35.1 -9.7,35.9 -9,33.7 -13.7,28.7 -16.7,34.2 				"/>
				<polygon class="st2" points="-30,16.9 -28.7,19.5 -30.1,22.4 -27.9,23.6 -22.3,19.9 -27.1,15.8 				"/>
				<polygon class="st2" points="-19.3,10.3 -21.7,12 -24.8,11.2 -25.5,13.4 -20.8,18.4 -17.8,12.9 				"/>
				<polygon class="st2" points="-24.4,36.5 -21.7,35.3 -18.8,36.6 -17.7,34.4 -21.4,28.8 -25.4,33.6 				"/>
				<polygon class="st2" points="-30.7,26 -29,28.4 -29.8,31.5 -27.6,32.2 -22.6,27.5 -28.1,24.4 				"/>
				<polygon class="st2" points="-9.8,10.3 -12.4,11.6 -15.3,10.2 -16.5,12.4 -12.8,18.1 -8.7,13.2 				"/>
				<polygon class="st2" points="-3.4,20.8 -5.1,18.5 -4.3,15.4 -6.5,14.7 -11.5,19.3 -6,22.4 				"/>
				<ellipse class="st2" cx="-17.1" cy="24" rx="2.7" ry="2.7"/>
				<path class="st2" d="M-14.3-12.7l4.3,0.6c0.5,0.1,0.9,0.5,0.8,1c0,0.2-0.1,0.4-0.3,0.6l-3.7,3.7c-0.4,0.4-1,0.4-1.3,0
					c-0.2-0.2-0.3-0.3-0.3-0.6l-0.6-4.3c-0.1-0.5,0.3-1,0.8-1.1C-14.5-12.7-14.4-12.7-14.3-12.7z"/>
				<path class="st2" d="M-15.3-11.8c0.2,1.2,0.4,3,0.6,4.3c0.1,0.5,0.5,0.9,1,0.8c0.2,0,0.4-0.1,0.6-0.3l3.7-3.7
					c0.4-0.4,0.4-1,0-1.3c-0.1-0.2-0.3-0.3-0.6-0.3l-4.3-0.6c-0.5-0.1-1,0.3-1.1,0.8C-15.3-12-15.3-11.9-15.3-11.8z"/>
				<path class="st2" d="M-18.8-11.8c-0.2,1.2-0.4,3-0.6,4.3c-0.1,0.5-0.5,0.9-1,0.8c-0.2,0-0.4-0.1-0.6-0.3l-3.7-3.7
					c-0.4-0.4-0.3-1,0-1.4c0.1-0.1,0.3-0.2,0.5-0.3l4.3-0.6c0.5-0.1,1,0.3,1.1,0.8C-18.8-12-18.8-11.9-18.8-11.8z"/>
				<path class="st2" d="M-18.8-17c-0.2-1.2-0.4-3-0.6-4.3c-0.1-0.5-0.5-0.9-1-0.8c-0.2,0-0.4,0.1-0.6,0.3l-3.7,3.7
					c-0.4,0.4-0.3,1,0,1.4c0.1,0.1,0.3,0.2,0.5,0.3l4.3,0.6c0.5,0.1,1-0.3,1.1-0.8C-18.8-16.8-18.8-16.9-18.8-17z"/>
				<path class="st2" d="M-15.3-17c0.2-1.2,0.4-3,0.6-4.3c0.1-0.5,0.5-0.9,1-0.8c0.2,0,0.4,0.1,0.6,0.3l3.7,3.7c0.4,0.4,0.4,1,0,1.3
					c-0.1,0.2-0.3,0.3-0.6,0.3l-4.3,0.6c-0.5,0.1-1-0.3-1.1-0.8C-15.3-16.8-15.3-16.9-15.3-17z"/>
				<path class="st2" d="M23.6,25.2l4.3,0.6c0.5,0.1,0.9,0.6,0.8,1.1c0,0.2-0.1,0.4-0.3,0.5l-3.7,3.7c-0.4,0.4-1,0.4-1.3,0
					c-0.2-0.2-0.3-0.3-0.3-0.6l-0.6-4.3c-0.1-0.5,0.3-1,0.8-1.1C23.4,25.2,23.5,25.2,23.6,25.2z"/>
				<path class="st2" d="M22.7,26.2l0.6,4.3c0.1,0.5,0.5,0.9,1,0.8c0.2,0,0.4-0.1,0.6-0.3l3.7-3.7c0.4-0.4,0.3-1,0-1.4
					c-0.1-0.1-0.3-0.2-0.5-0.3l-4.3-0.6c-0.5-0.1-1,0.3-1.1,0.8C22.7,26,22.7,26.1,22.7,26.2z"/>
				<path class="st2" d="M19.2,26.2l-0.6,4.3c-0.1,0.5-0.6,0.9-1.1,0.8c-0.2,0-0.4-0.1-0.5-0.3l-3.7-3.7c-0.4-0.4-0.4-1,0-1.3
					c0.1-0.2,0.3-0.3,0.6-0.3l4.3-0.6c0.5-0.1,1,0.3,1.1,0.8C19.2,26,19.2,26.1,19.2,26.2z"/>
				<path class="st2" d="M19.2,20.9l-0.6-4.3c-0.1-0.5-0.6-0.9-1.1-0.8c-0.2,0-0.4,0.1-0.5,0.2l-3.7,3.7c-0.4,0.4-0.4,1,0,1.3
					c0.1,0.2,0.3,0.3,0.6,0.3l4.3,0.6c0.5,0.1,1-0.3,1.1-0.8C19.2,21.1,19.2,21,19.2,20.9z"/>
				<path class="st2" d="M22.7,20.9l0.6-4.3c0.1-0.5,0.6-0.9,1.1-0.8c0.2,0,0.4,0.1,0.5,0.3l3.7,3.7c0.4,0.4,0.3,1,0,1.4
					c-0.1,0.1-0.3,0.2-0.5,0.3l-4.3,0.6c-0.5,0.1-1-0.3-1.1-0.8C22.7,21.1,22.7,21,22.7,20.9z"/>
				<path class="st2" d="M51.7-22.9c0,0,2.7-2.5,2.6-3.5s-6-1.8-6.9-1.5c-0.6,0.2-1.1,0.5-1.5,0.9l5.2,4.8L51.7-22.9z"/>
				<path class="st2" d="M50.4-21.7c0,0-2.5,2.7-3.5,2.6c-1-0.1-1.8-6-1.5-6.9c0.6-1.5,0.5-1.5,0.5-1.5l5.3,5.2L50.4-21.7z"/>
				<path class="st2" d="M28-44.1c0,0-2.7,2.5-2.6,3.5s6,1.8,6.9,1.5c0.6-0.2,1.1-0.5,1.5-0.9l-5.2-4.8L28-44.1z"/>
				<path class="st2" d="M29.3-45.4c0,0,2.5-2.7,3.5-2.6c1,0.1,1.8,6,1.5,6.9c-0.6,1.5-0.5,1.5-0.5,1.5l-5.2-5.2L29.3-45.4z"/>
				<polygon class="st2" points="32.1,-39.6 45.9,-25.5 48.9,-22.2 50.5,-22.2 48.1,-26.9 33.3,-42.1 				"/>
				<path class="st2" d="M-9.8-22.7c0,0-2.7-2.5-2.6-3.5c0.1-1,6-1.8,6.9-1.5c0.6,0.2,1.1,0.6,1.6,0.9L-9.2-22L-9.8-22.7z"/>
				<path class="st2" d="M-8.5-21.3c0,0,2.5,2.7,3.5,2.6s1.8-6.1,1.5-6.9c-0.6-1.5-0.5-1.5-0.5-1.5L-9.2-22L-8.5-21.3z"/>
				<path class="st2" d="M14-43.8c0,0,2.7,2.5,2.6,3.5c-0.1,1-6,1.8-6.9,1.5c-0.6-0.2-1.1-0.6-1.6-0.9l5.2-4.8L14-43.8z"/>
				<path class="st2" d="M12.7-45.2c0,0-2.5-2.7-3.5-2.6c-1,0.1-1.8,6.1-1.5,6.9c0.6,1.5,0.5,1.5,0.5,1.5l5.2-5.2L12.7-45.2z"/>
				<polygon class="st2" points="9.8,-39.3 -3.9,-25.2 -6.9,-21.9 -8.5,-21.9 -6.2,-26.6 8.7,-41.8 				"/>
				<path class="st2" d="M27.8,14.9c0,0-2.7-2.5-2.6-3.5s6-1.8,6.9-1.5c0.6,0.2,1.1,0.5,1.5,0.9l-5.2,4.8L27.8,14.9z"/>
				<path class="st2" d="M29.1,16.3c0,0,2.5,2.7,3.5,2.6s1.8-6,1.5-6.9c-0.6-1.5-0.4-1.5-0.4-1.5l-5.3,5.2L29.1,16.3z"/>
				<path class="st2" d="M51.5-6.2c0,0,2.7,2.5,2.6,3.5c-0.1,1-6,1.8-6.9,1.5c-0.6-0.2-1.1-0.5-1.5-0.9l5.2-4.8L51.5-6.2z"/>
				<path class="st2" d="M50.2-7.5c0,0-2.5-2.7-3.5-2.6c-1,0.1-1.8,6-1.5,6.9c0.6,1.5,0.5,1.5,0.5,1.5l5.2-5.2L50.2-7.5z"/>
				<polygon class="st2" points="47.3,-1.7 33.6,12.4 30.6,15.7 29,15.7 31.3,11 46.2,-4.2 				"/>
				<polygon class="st2" points="33.3,-7.7 32.1,-10.3 33.4,-13.2 31.2,-14.4 25.6,-10.7 30.5,-6.6 				"/>
				<polygon class="st2" points="22.7,-1.1 25,-2.8 28.1,-2 28.8,-4.2 24.2,-9.2 21.1,-3.7 				"/>
				<polygon class="st2" points="7.8,-21 9.1,-18.4 7.7,-15.5 9.9,-14.3 15.6,-18 10.7,-22.1 				"/>
				<polygon class="st2" points="18.5,-27.6 16.1,-25.9 13,-26.7 12.3,-24.5 17,-19.4 20.1,-25 				"/>
				<polygon class="st2" points="13.5,-1.4 16.1,-2.6 19,-1.3 20.2,-3.5 16.5,-9.1 12.4,-4.2 				"/>
				<polygon class="st2" points="7.1,-11.9 8.8,-9.5 8,-6.4 10.2,-5.7 15.2,-10.4 9.7,-13.4 				"/>
				<polygon class="st2" points="28.1,-27.6 25.4,-26.3 22.5,-27.7 21.3,-25.5 25.1,-19.8 29.1,-24.7 				"/>
				<polygon class="st2" points="34.4,-17.1 32.7,-19.4 33.5,-22.5 31.3,-23.2 26.3,-18.6 31.8,-15.5 				"/>
				<ellipse class="st2" cx="20.7" cy="-13.9" rx="2.7" ry="2.7"/>
				<path class="st2" d="M23.5-50.6l4.5,0.6c0.5,0.1,0.9,0.6,0.8,1.1c0,0.2-0.1,0.4-0.3,0.5l-3.8,3.7c-0.4,0.4-1,0.4-1.4,0
					c-0.1-0.1-0.2-0.3-0.3-0.5l-0.6-4.3c-0.1-0.5,0.3-1,0.8-1.1C23.3-50.7,23.4-50.7,23.5-50.6z"/>
				<path class="st2" d="M22.6-49.7c0.2,1.2,0.4,3,0.6,4.3c0.1,0.5,0.5,0.9,1,0.8c0.2,0,0.4-0.1,0.6-0.3l3.7-3.7
					c0.4-0.4,0.4-1,0-1.3c-0.1-0.2-0.3-0.3-0.5-0.3l-4.3-0.6c-0.5-0.1-1,0.3-1.1,0.9C22.5-49.8,22.5-49.8,22.6-49.7z"/>
				<path class="st2" d="M19.1-49.7c-0.2,1.2-0.4,3-0.6,4.3c-0.1,0.5-0.5,0.9-1,0.8c-0.2,0-0.4-0.1-0.6-0.3l-3.7-3.7
					c-0.4-0.4-0.4-1,0-1.3c0.1-0.2,0.3-0.3,0.5-0.3l4.3-0.6c0.5-0.1,1,0.3,1.1,0.9C19.1-49.8,19.1-49.8,19.1-49.7z"/>
				<path class="st2" d="M19.1-54.9c-0.2-1.2-0.4-3-0.6-4.3c-0.1-0.5-0.5-0.9-1-0.8c-0.2,0-0.4,0.1-0.6,0.3l-3.7,3.7
					c-0.4,0.4-0.4,1,0,1.3c0.1,0.2,0.3,0.3,0.5,0.3l4.3,0.6c0.5,0.1,1-0.3,1.1-0.8C19.1-54.7,19.1-54.8,19.1-54.9z"/>
				<path class="st2" d="M22.6-54.9c0.2-1.2,0.4-3,0.6-4.3c0.1-0.5,0.5-0.9,1-0.8c0.2,0,0.4,0.1,0.6,0.3l3.7,3.7
					c0.4,0.4,0.4,1,0,1.3c-0.1,0.2-0.3,0.3-0.5,0.3l-4.3,0.6c-0.5,0.1-1-0.3-1.1-0.9C22.5-54.8,22.5-54.9,22.6-54.9z"/>
				<path class="st2" d="M61.4-12.7l4.3,0.6c0.5,0.1,0.9,0.5,0.8,1c0,0.2-0.1,0.4-0.3,0.6l-3.7,3.7c-0.4,0.4-1,0.4-1.3,0
					C61.1-6.9,61-7.1,61-7.3l-0.6-4.3c-0.1-0.5,0.3-1,0.8-1.1C61.2-12.7,61.3-12.7,61.4-12.7z"/>
				<path class="st2" d="M60.5-11.7c0.2,1.2,0.4,3,0.6,4.3c0.1,0.5,0.5,0.9,1,0.8c0.2,0,0.4-0.1,0.6-0.3l3.7-3.6
					c0.4-0.4,0.3-1,0-1.4C66.2-12,66-12,65.8-12.1l-4.3-0.6c-0.5-0.1-1,0.2-1.1,0.7C60.5-11.9,60.5-11.8,60.5-11.7z"/>
				<path class="st2" d="M57-11.7c-0.2,1.2-0.4,3-0.6,4.3c-0.1,0.5-0.5,0.9-1,0.8c-0.2,0-0.4-0.1-0.6-0.3l-3.7-3.6
					c-0.4-0.4-0.4-1,0-1.3c0.1-0.2,0.3-0.3,0.6-0.3l4.2-0.6c0.5-0.1,1,0.2,1.1,0.7C57-11.9,57-11.8,57-11.7z"/>
				<path class="st2" d="M57-16.9c-0.2-1.2-0.4-3-0.6-4.3c-0.1-0.5-0.6-0.9-1.1-0.8c-0.2,0-0.4,0.1-0.5,0.3l-3.7,3.7
					c-0.4,0.4-0.4,1,0,1.3c0.1,0.2,0.3,0.3,0.6,0.3l4.3,0.6c0.5,0.1,1-0.3,1-0.8C57-16.8,57-16.9,57-16.9z"/>
				<path class="st2" d="M60.5-16.9c0.2-1.2,0.4-3,0.6-4.3c0.1-0.5,0.6-0.9,1.1-0.8c0.2,0,0.4,0.1,0.5,0.3l3.7,3.7
					c0.4,0.4,0.3,1,0,1.4c-0.1,0.1-0.3,0.2-0.5,0.3l-4.3,0.6c-0.5,0.1-1-0.3-1.1-0.8C60.5-16.7,60.5-16.8,60.5-16.9z"/>
				<path class="st2" d="M89.5-60.8c0,0,2.7-2.5,2.6-3.5c-0.1-1-6-1.8-6.9-1.5c-0.6,0.2-1.1,0.5-1.5,0.9l5.2,4.8L89.5-60.8z"/>
				<path class="st2" d="M88.2-59.5c0,0-2.5,2.7-3.6,2.6c-1.1-0.1-1.8-6-1.5-6.9c0.6-1.5,0.5-1.5,0.5-1.5l5.2,5.2L88.2-59.5z"/>
				<path class="st2" d="M65.8-82c0,0-2.7,2.5-2.6,3.5c0.1,1,6,1.8,6.9,1.5c0.6-0.2,1.1-0.5,1.6-0.9l-5.2-4.8L65.8-82z"/>
				<path class="st2" d="M67.1-83.3c0,0,2.5-2.7,3.5-2.6s1.8,6,1.5,6.9c-0.6,1.5-0.4,1.5-0.4,1.5l-5.3-5.2L67.1-83.3z"/>
				<polygon class="st2" points="70,-77.5 83.7,-63.4 86.7,-60.1 88.3,-60.1 86,-64.8 71.1,-80 				"/>
				<path class="st2" d="M28-60.6c0,0-2.7-2.5-2.6-3.5c0.1-1,6-1.8,6.8-1.5c0.6,0.2,1.1,0.5,1.6,0.9l-5.1,4.8L28-60.6z"/>
				<path class="st2" d="M29.4-59.2c0,0,2.5,2.7,3.5,2.6s1.8-6,1.5-6.9C33.8-65,33.9-65,33.9-65l-5.1,5.2L29.4-59.2z"/>
				<path class="st2" d="M51.8-81.7c0,0,2.7,2.5,2.6,3.5c-0.1,1-6,1.8-6.9,1.5c-0.6-0.2-1.1-0.5-1.6-0.9l5.1-4.8L51.8-81.7z"/>
				<path class="st2" d="M50.5-83c0,0-2.5-2.7-3.5-2.6c-1,0.1-1.8,6-1.5,6.9c0.6,1.5,0.4,1.5,0.4,1.5l5.2-5.2L50.5-83z"/>
				<polygon class="st2" points="47.6,-77.2 33.9,-63.1 30.9,-59.8 29.3,-59.8 31.6,-64.5 46.5,-79.7 				"/>
				<path class="st2" d="M65.6-22.9c0,0-2.7-2.5-2.6-3.5s6-1.8,6.9-1.5c0.6,0.2,1.1,0.5,1.6,0.9l-5.2,4.8L65.6-22.9z"/>
				<path class="st2" d="M66.9-21.7c0,0,2.5,2.7,3.5,2.6s1.8-6,1.5-6.9c-0.6-1.5-0.4-1.5-0.4-1.5l-5.2,5.2L66.9-21.7z"/>
				<path class="st2" d="M89.4-44.1c0,0,2.7,2.5,2.6,3.5s-6,1.8-6.9,1.5c-0.6-0.2-1.1-0.5-1.6-0.9l5.2-4.8L89.4-44.1z"/>
				<path class="st2" d="M88-45.4c0,0-2.5-2.7-3.5-2.6c-1,0.1-1.8,6-1.5,6.9c0.6,1.5,0.5,1.5,0.5,1.5l5.2-5.2L88-45.4z"/>
				<polygon class="st2" points="85.2,-39.6 71.4,-25.5 68.4,-22.2 66.9,-22.2 69.2,-26.9 84,-42.1 				"/>
				<polygon class="st2" points="71.2,-45.6 69.9,-48.2 71.3,-51.1 69.1,-52.3 63.4,-48.6 68.3,-44.5 				"/>
				<polygon class="st2" points="60.5,-39 62.8,-40.7 65.9,-39.9 66.6,-42.1 62,-47.2 58.9,-41.6 				"/>
				<polygon class="st2" points="45.6,-58.9 46.9,-56.3 45.6,-53.4 47.7,-52.2 53.4,-55.9 48.5,-60 				"/>
				<polygon class="st2" points="56.3,-65.5 54,-63.8 50.9,-64.6 50.2,-62.4 54.8,-57.4 57.9,-62.9 				"/>
				<polygon class="st2" points="51.3,-39.3 53.9,-40.5 56.8,-39.2 58,-41.4 54.3,-47 50.2,-42.1 				"/>
				<polygon class="st2" points="44.9,-49.8 46.6,-47.4 45.8,-44.3 48,-43.6 53.1,-48.3 47.5,-51.3 				"/>
				<polygon class="st2" points="65.9,-65.5 63.3,-64.2 60.3,-65.6 59.2,-63.4 62.9,-57.7 66.9,-62.6 				"/>
				<polygon class="st2" points="72.3,-55 70.5,-57.3 71.3,-60.4 69.1,-61.1 64.1,-56.5 69.6,-53.4 				"/>
				<ellipse class="st2" cx="58.5" cy="-51.8" rx="2.7" ry="2.7"/>
				<path class="st2" d="M61.3-88.6l4.3,0.6c0.5,0.1,0.9,0.5,0.8,1c0,0.2-0.1,0.4-0.3,0.6l-3.7,3.7c-0.4,0.4-1,0.4-1.4,0
					c-0.1-0.1-0.2-0.3-0.3-0.5l-0.6-4.3c-0.1-0.5,0.3-1,0.9-1.1C61.2-88.6,61.3-88.6,61.3-88.6z"/>
				<path class="st2" d="M60.4-87.6c0.2,1.2,0.4,3,0.6,4.3c0.1,0.5,0.6,0.9,1.1,0.8c0.2,0,0.4-0.1,0.5-0.3l3.7-3.7
					c0.4-0.4,0.3-1,0-1.4c-0.1-0.1-0.3-0.2-0.5-0.3l-4.3-0.6c-0.5-0.1-1,0.3-1.1,0.8C60.4-87.8,60.4-87.7,60.4-87.6z"/>
				<path class="st2" d="M56.9-87.6c-0.2,1.2-0.4,3-0.6,4.3c-0.1,0.5-0.6,0.9-1.1,0.8c-0.2,0-0.4-0.1-0.5-0.3L51-86.4
					c-0.4-0.4-0.4-1,0-1.3c0.1-0.2,0.3-0.3,0.6-0.3l4.3-0.6c0.5-0.1,1,0.3,1.1,0.8C56.9-87.8,56.9-87.7,56.9-87.6z"/>
				<path class="st2" d="M56.9-92.8c-0.2-1.2-0.4-3-0.6-4.3c-0.1-0.5-0.5-0.9-1-0.8c-0.2,0-0.4,0.1-0.6,0.3L51-94
					c-0.4,0.4-0.4,1,0,1.3c0.1,0.2,0.3,0.3,0.6,0.3l4.3,0.6c0.5,0.1,1-0.2,1.1-0.7C56.9-92.6,56.9-92.7,56.9-92.8z"/>
				<path class="st2" d="M60.4-92.8c0.2-1.2,0.4-3,0.6-4.3c0.1-0.5,0.5-0.9,1-0.8c0.2,0,0.4,0.1,0.6,0.3l3.7,3.7
					c0.4,0.4,0.3,1,0,1.4c-0.1,0.1-0.3,0.2-0.5,0.3l-4.3,0.6c-0.5,0.1-1-0.2-1.1-0.7C60.4-92.6,60.4-92.7,60.4-92.8z"/>
				<path class="st2" d="M99.2-50.6l4.3,0.6c0.5,0.1,0.9,0.5,0.8,1c0,0.2-0.1,0.4-0.3,0.6l-3.7,3.7c-0.4,0.4-1,0.4-1.3,0
					c-0.2-0.2-0.3-0.3-0.3-0.6l-0.6-4.3c-0.1-0.5,0.3-1,0.8-1.1C99-50.6,99.1-50.6,99.2-50.6z"/>
				<path class="st2" d="M98.3-49.6c0.2,1.2,0.4,3,0.6,4.3c0.1,0.5,0.5,0.9,1,0.8c0.2,0,0.4-0.1,0.6-0.3l3.7-3.8
					c0.4-0.4,0.4-1,0-1.3c-0.1-0.2-0.3-0.3-0.6-0.3l-4.3-0.6c-0.5-0.1-1,0.2-1.1,0.8C98.3-49.9,98.3-49.7,98.3-49.6z"/>
				<path class="st2" d="M94.8-49.6c-0.2,1.2-0.4,3-0.6,4.3c-0.1,0.5-0.5,0.9-1,0.8c-0.2,0-0.4-0.1-0.6-0.3l-3.7-3.8
					c-0.4-0.4-0.4-1,0-1.3c0.1-0.2,0.3-0.3,0.6-0.3l4.3-0.6c0.5-0.1,1,0.2,1.1,0.8C94.8-49.9,94.8-49.7,94.8-49.6z"/>
				<path class="st2" d="M94.8-54.8c-0.2-1.2-0.4-3-0.6-4.3c-0.1-0.5-0.5-0.9-1-0.8c-0.2,0-0.4,0.1-0.6,0.3L88.9-56
					c-0.4,0.4-0.4,1,0,1.3c0.1,0.2,0.3,0.3,0.6,0.3l4.3,0.6c0.5,0.1,1-0.3,1.1-0.8C94.8-54.6,94.8-54.7,94.8-54.8z"/>
				<path class="st2" d="M98.3-54.8c0.2-1.2,0.4-3,0.6-4.3c0.1-0.5,0.5-0.9,1-0.8c0.2,0,0.4,0.1,0.6,0.3l3.7,3.7
					c0.4,0.4,0.4,1,0,1.3c-0.1,0.2-0.3,0.3-0.6,0.3l-4.3,0.6c-0.5,0.1-1-0.3-1.1-0.8C98.3-54.6,98.3-54.7,98.3-54.8z"/>
				<path class="st2" d="M127.4-98.7c0,0,2.7-2.5,2.6-3.5c-0.1-1-6-1.8-6.9-1.5c-0.6,0.2-1.1,0.5-1.6,0.9l5.2,4.8L127.4-98.7z"/>
				<path class="st2" d="M126.1-97.4c0,0-2.5,2.7-3.5,2.6c-1-0.1-1.8-6.1-1.5-6.9c0.6-1.5,0.5-1.5,0.5-1.5l5.2,5.2L126.1-97.4z"/>
				<path class="st2" d="M103.6-119.9c0,0-2.7,2.5-2.6,3.5s6,1.8,6.9,1.5c0.6-0.2,1.1-0.6,1.6-0.9l-5.2-4.8L103.6-119.9z"/>
				<path class="st2" d="M104.9-121.2c0,0,2.5-2.7,3.5-2.6s1.8,6,1.5,6.9c-0.6,1.5-0.5,1.5-0.5,1.5l-5.2-5.2L104.9-121.2z"/>
				<polygon class="st2" points="107.8,-115.4 121.5,-101.3 124.5,-98 126.1,-98 123.8,-102.7 108.9,-117.9 				"/>
				<path class="st2" d="M65.9-98.5c0,0-2.7-2.5-2.6-3.5c0.1-1,6-1.8,6.9-1.5c0.6,0.2,1.1,0.5,1.5,0.9l-5.2,4.8L65.9-98.5z"/>
				<path class="st2" d="M67.2-97.1c0,0,2.5,2.7,3.5,2.6s1.8-6,1.5-6.9c-0.6-1.5-0.5-1.5-0.5-1.5l-5.2,5.1L67.2-97.1z"/>
				<path class="st2" d="M89.6-119.6c0,0,2.7,2.5,2.6,3.5c-0.1,1-6,1.8-6.9,1.5c-0.6-0.2-1.1-0.5-1.5-0.9l5.3-4.7L89.6-119.6z"/>
				<path class="st2" d="M88.3-120.9c0,0-2.5-2.7-3.5-2.6c-1,0.1-1.8,6-1.5,6.9c0.6,1.5,0.5,1.5,0.5,1.5l5.3-5.1L88.3-120.9z"/>
				<polygon class="st2" points="85.4,-115.1 71.7,-101 68.7,-97.7 67.1,-97.7 69.4,-102.4 84.3,-117.6 				"/>
				<path class="st2" d="M103.4-60.8c0,0-2.7-2.5-2.6-3.5s6-1.8,6.9-1.5c0.6,0.2,1.1,0.5,1.6,0.9l-5.2,4.8L103.4-60.8z"/>
				<path class="st2" d="M104.8-59.5c0,0,2.5,2.7,3.5,2.6c1-0.1,1.8-6,1.5-6.9c-0.6-1.5-0.5-1.5-0.5-1.5l-5.2,5.2L104.8-59.5z"/>
				<path class="st2" d="M127.1-82c0,0,2.7,2.5,2.6,3.5c-0.1,1-6,1.8-6.9,1.5c-0.6-0.2-1.1-0.5-1.6-0.9l5.2-4.8L127.1-82z"/>
				<path class="st2" d="M125.9-83.3c0,0-2.5-2.7-3.5-2.6c-1,0.1-1.8,6-1.5,6.9c0.6,1.5,0.4,1.5,0.4,1.5l5.2-5.2L125.9-83.3z"/>
				<polygon class="st2" points="123,-77.5 109.2,-63.4 106.3,-60.1 104.7,-60.1 107,-64.8 121.8,-80 				"/>
				<polygon class="st2" points="109,-83.5 107.7,-86.1 109.1,-89 106.9,-90.2 101.2,-86.5 106.1,-82.4 				"/>
				<polygon class="st2" points="98.3,-76.8 100.6,-78.6 103.8,-77.8 104.4,-80 99.8,-85 96.7,-79.5 				"/>
				<polygon class="st2" points="83.5,-96.8 84.7,-94.2 83.4,-91.3 85.6,-90.1 91.2,-93.8 86.3,-97.9 				"/>
				<polygon class="st2" points="94.1,-103.4 91.8,-101.7 88.7,-102.5 88,-100.3 92.6,-95.3 95.7,-100.8 				"/>
				<polygon class="st2" points="89.1,-77.2 91.7,-78.4 94.6,-77.1 95.8,-79.3 92.1,-84.9 88,-80 				"/>
				<polygon class="st2" points="82.7,-87.7 84.4,-85.3 83.7,-82.2 85.8,-81.5 90.9,-86.2 85.3,-89.2 				"/>
				<polygon class="st2" points="103.7,-103.4 101.1,-102.1 98.2,-103.5 97,-101.3 100.7,-95.6 104.8,-100.5 				"/>
				<polygon class="st2" points="110.1,-92.9 108.4,-95.2 109.2,-98.3 106.9,-99 101.9,-94.4 107.5,-91.3 				"/>
				<ellipse class="st2" cx="96.3" cy="-89.7" rx="2.7" ry="2.7"/>
				<path class="st2" d="M99.1-126.4l4.3,0.6c0.5,0.1,0.9,0.5,0.8,1c0,0.2-0.1,0.4-0.3,0.6l-3.7,3.7c-0.4,0.4-1,0.4-1.3,0
					c-0.2-0.2-0.3-0.3-0.3-0.6l-0.6-4.3c-0.1-0.5,0.3-1,0.8-1.1C99-126.5,99.1-126.5,99.1-126.4z"/>
				<path class="st2" d="M98.2-125.5l0.6,4.3c0.1,0.5,0.6,0.9,1.1,0.8c0.2,0,0.4-0.1,0.5-0.3l3.7-3.7c0.4-0.4,0.4-1,0-1.3
					c-0.1-0.2-0.3-0.3-0.6-0.3l-4.3-0.6c-0.5-0.1-1,0.3-1.1,0.8C98.2-125.7,98.2-125.6,98.2-125.5z"/>
				<path class="st2" d="M94.7-125.5l-0.6,4.3c-0.1,0.5-0.6,0.9-1.1,0.8c-0.2,0-0.4-0.1-0.5-0.3l-3.7-3.7c-0.4-0.4-0.4-1,0-1.3
					c0.1-0.2,0.3-0.3,0.6-0.3l4.2-0.6c0.5-0.1,1,0.2,1.1,0.7C94.7-125.7,94.7-125.6,94.7-125.5z"/>
				<path class="st2" d="M94.7-130.7l-0.6-4.3c-0.1-0.5-0.5-0.9-1-0.8c-0.2,0-0.4,0.1-0.6,0.3l-3.7,3.7c-0.4,0.4-0.4,1,0,1.3
					c0.1,0.2,0.3,0.3,0.6,0.3l4.2,0.6c0.5,0.1,1-0.2,1.1-0.7C94.7-130.5,94.7-130.6,94.7-130.7z"/>
				<path class="st2" d="M98.2-130.7l0.6-4.3c0.1-0.5,0.5-0.9,1-0.8c0.2,0,0.4,0.1,0.6,0.3l3.7,3.7c0.4,0.4,0.4,1,0,1.3
					c-0.1,0.2-0.3,0.3-0.6,0.3l-4.3,0.6c-0.5,0.1-1-0.3-1.1-0.8C98.2-130.5,98.2-130.6,98.2-130.7z"/>
				<path class="st2" d="M137.1-88.4l4.3,0.6c0.5,0.1,0.9,0.5,0.8,1c0,0.2-0.1,0.4-0.3,0.6l-3.6,3.7c-0.4,0.4-1,0.4-1.4,0
					c-0.1-0.1-0.2-0.3-0.3-0.5l-0.6-4.3c-0.1-0.5,0.3-1,0.8-1.1C136.9-88.4,137-88.5,137.1-88.4z"/>
				<path class="st2" d="M136-87.5c0.2,1.2,0.4,3,0.6,4.3c0.1,0.5,0.5,0.9,1,0.8c0.2,0,0.4-0.1,0.6-0.3l3.7-3.7c0.4-0.4,0.4-1,0-1.3
					c-0.1-0.2-0.3-0.3-0.6-0.3l-4.3-0.6c-0.5-0.1-1,0.3-1.1,0.8C136-87.7,136-87.6,136-87.5z"/>
				<path class="st2" d="M132.6-87.5c-0.2,1.2-0.4,3-0.6,4.3c-0.1,0.5-0.5,0.9-1,0.8c-0.2,0-0.4-0.1-0.6-0.3l-3.7-3.7
					c-0.4-0.4-0.3-1,0-1.4c0.1-0.1,0.3-0.2,0.5-0.3l4.3-0.6c0.5-0.1,1,0.3,1.1,0.8C132.6-87.7,132.6-87.6,132.6-87.5z"/>
				<path class="st2" d="M132.6-92.7c-0.2-1.2-0.4-3-0.6-4.3c-0.1-0.5-0.5-0.9-1-0.8c-0.2,0-0.4,0.1-0.6,0.3l-3.7,3.7
					c-0.4,0.4-0.3,1,0,1.4c0.1,0.1,0.3,0.2,0.5,0.3l4.3,0.6c0.5,0.1,1-0.3,1.1-0.8C132.6-92.5,132.6-92.6,132.6-92.7z"/>
				<path class="st2" d="M136-92.7c0.2-1.2,0.4-3,0.6-4.3c0.1-0.5,0.5-0.9,1-0.8c0.2,0,0.4,0.1,0.6,0.3l3.7,3.7c0.4,0.4,0.4,1,0,1.3
					c-0.1,0.2-0.3,0.3-0.6,0.3l-4.3,0.6c-0.5,0.1-1-0.3-1.1-0.8C136-92.5,136-92.6,136-92.7z"/>
				<path class="st2" d="M-52.3,101.3l4.3,0.6c0.5,0.1,0.9,0.5,0.8,1c0,0.2-0.1,0.4-0.3,0.6l-3.7,3.7c-0.4,0.4-1,0.4-1.3,0
					c-0.2-0.2-0.3-0.3-0.3-0.6l-0.6-4.3c-0.1-0.5,0.3-1,0.8-1.1C-52.5,101.3-52.4,101.3-52.3,101.3z"/>
				<path class="st2" d="M-53.3,102.2c0.2,1.2,0.4,3,0.6,4.3c0.1,0.5,0.5,0.9,1,0.8c0.2,0,0.4-0.1,0.6-0.3l3.7-3.7
					c0.4-0.4,0.3-1-0.1-1.4c-0.1-0.1-0.3-0.2-0.5-0.2l-4.3-0.6c-0.5-0.1-1,0.2-1.1,0.7C-53.3,102-53.3,102.1-53.3,102.2z"/>
				<path class="st2" d="M-56.8,102.2c-0.2,1.2-0.4,3-0.6,4.3c-0.1,0.5-0.5,0.9-1,0.8c-0.2,0-0.4-0.1-0.6-0.3l-3.7-3.7
					c-0.4-0.4-0.4-1,0-1.4c0.1-0.1,0.3-0.2,0.5-0.3l4.3-0.6c0.5-0.1,1,0.2,1.1,0.7C-56.7,102-56.7,102.1-56.8,102.2z"/>
				<path class="st2" d="M-56.8,97c-0.2-1.2-0.4-3-0.6-4.5c-0.1-0.5-0.6-0.9-1.1-0.8c-0.2,0-0.4,0.1-0.5,0.3l-3.7,3.7
					c-0.4,0.4-0.4,1,0,1.3c0.1,0.2,0.3,0.3,0.6,0.3l4.3,0.6c0.5,0.1,1-0.3,1.1-0.8C-56.8,97.1-56.8,97.1-56.8,97z"/>
				<path class="st2" d="M-53.3,97c0.2-1.2,0.4-3,0.6-4.5c0.1-0.5,0.6-0.9,1.1-0.8c0.2,0,0.4,0.1,0.5,0.3l3.7,3.7
					c0.4,0.4,0.3,1,0,1.4c-0.1,0.1-0.3,0.2-0.5,0.3l-4.3,0.6c-0.5,0.1-1-0.3-1.1-0.8C-53.3,97.1-53.3,97.1-53.3,97z"/>
				<path class="st2" d="M14.2,91c0,0,2.7-2.5,2.6-3.5c-0.1-1-6-1.8-6.9-1.5c-0.6,0.2-1.1,0.5-1.5,0.9l5.2,4.8L14.2,91z"/>
				<path class="st2" d="M12.9,92.3c0,0-2.5,2.7-3.5,2.6s-1.8-6-1.5-6.9c0.6-1.5,0.5-1.5,0.5-1.5l5.2,5.2L12.9,92.3z"/>
				<path class="st2" d="M-9.6,69.9c0,0-2.7,2.5-2.6,3.5c0.1,1,6,1.8,6.9,1.5c0.6-0.2,1.1-0.5,1.6-0.9L-9,69.2L-9.6,69.9z"/>
				<path class="st2" d="M-8.3,68.5c0,0,2.5-2.7,3.5-2.6s1.8,6,1.5,6.9c-0.6,1.5-0.4,1.5-0.4,1.5L-9,69.2L-8.3,68.5z"/>
				<polygon class="st2" points="-5.4,74.4 8.3,88.4 11.3,91.8 12.9,91.8 10.6,87.1 -4.2,71.9 				"/>
				<path class="st2" d="M-24.2,129.5c0,0,2.7-2.5,2.6-3.5c-0.1-1-6-1.8-6.9-1.5c-0.6,0.2-1.1,0.5-1.5,0.9l5.1,4.8L-24.2,129.5z"/>
				<path class="st2" d="M-25.5,130.8c0,0-2.5,2.7-3.5,2.6c-1-0.1-1.8-6-1.5-6.9c0.6-1.5,0.5-1.5,0.5-1.5l5.2,5.2L-25.5,130.8z"/>
				<path class="st2" d="M-48,108.2c0,0-2.7,2.5-2.6,3.5c0.1,1,6,1.8,6.9,1.5c0.6-0.2,1.1-0.5,1.5-0.9l-5.1-4.7L-48,108.2z"/>
				<path class="st2" d="M-46.6,107c0,0,2.5-2.7,3.5-2.6c1,0.1,1.8,6,1.5,6.9c-0.6,1.5-0.4,1.5-0.4,1.5l-5.1-5.2L-46.6,107z"/>
				<polygon class="st2" points="-43.8,112.8 -30,126.9 -27,130.2 -25.5,130.2 -27.8,125.6 -42.6,110.3 				"/>
				<path class="st2" d="M-9.8,128.9c0,0-2.7-2.5-2.6-3.5c0.1-1,6-1.8,6.9-1.5c0.6,0.2,1.1,0.6,1.6,0.9l-5.3,4.8L-9.8,128.9z"/>
				<path class="st2" d="M-8.5,130.2c0,0,2.5,2.6,3.5,2.6s1.8-6,1.5-6.9c-0.6-1.5-0.5-1.5-0.5-1.5l-5.3,5.1L-8.5,130.2z"/>
				<path class="st2" d="M14,107.8c0,0,2.7,2.5,2.6,3.5c-0.1,1-6,1.8-6.9,1.5c-0.6-0.2-1.1-0.5-1.6-0.9l5.2-4.8L14,107.8z"/>
				<path class="st2" d="M12.7,106.4c0,0-2.5-2.7-3.5-2.7s-1.8,6-1.5,6.9c0.6,1.5,0.5,1.5,0.5,1.5l5.2-5.2L12.7,106.4z"/>
				<polygon class="st2" points="9.8,112.3 -3.9,126.3 -6.9,129.7 -8.5,129.7 -6.2,125 8.7,109.7 				"/>
				<polygon class="st2" points="-4.2,106.3 -5.5,103.7 -4.1,100.8 -6.3,99.6 -12,103.3 -7.1,107.4 				"/>
				<polygon class="st2" points="-14.9,112.9 -12.5,111.2 -9.4,112 -8.7,109.7 -13.4,104.7 -16.4,110.3 				"/>
				<polygon class="st2" points="-29.7,92.9 -28.4,95.5 -29.8,98.5 -27.6,99.6 -22,95.9 -26.8,91.9 				"/>
				<polygon class="st2" points="-19.1,86.3 -21.4,88.1 -24.5,87.3 -25.2,89.5 -20.5,94.5 -17.5,89 				"/>
				<polygon class="st2" points="-24.1,112.6 -21.5,111.3 -18.5,112.7 -17.4,110.5 -21.1,104.8 -25.1,109.7 				"/>
				<polygon class="st2" points="-30.5,102.1 -28.7,104.4 -29.5,107.5 -27.3,108.3 -22.3,103.6 -27.8,100.5 				"/>
				<polygon class="st2" points="-9.5,86.4 -12.1,87.7 -15,86.3 -16.2,88.5 -12.5,94.2 -8.4,89.3 				"/>
				<polygon class="st2" points="-3.1,96.9 -4.8,94.5 -4,91.4 -6.2,90.7 -11.3,95.4 -5.7,98.5 				"/>
				<ellipse class="st2" cx="-16.8" cy="100" rx="2.7" ry="2.7"/>
				<path class="st2" d="M23.9,101.3l4.3,0.6c0.5,0.1,0.9,0.5,0.8,1c0,0.2-0.1,0.4-0.3,0.6l-3.7,3.7c-0.4,0.4-1,0.4-1.3,0
					c-0.2-0.2-0.3-0.3-0.3-0.6l-0.6-4.3c-0.1-0.5,0.3-1,0.8-1.1C23.7,101.3,23.8,101.3,23.9,101.3z"/>
				<path class="st2" d="M22.9,102.2c0.2,1.2,0.4,3,0.6,4.3c0.1,0.5,0.5,0.9,1,0.8c0.2,0,0.4-0.1,0.6-0.3l3.6-3.7
					c0.4-0.4,0.4-1,0-1.4c-0.1-0.1-0.3-0.2-0.5-0.3l-4.3-0.6c-0.5-0.1-1,0.3-1,0.8C22.9,102.1,22.9,102.2,22.9,102.2z"/>
				<path class="st2" d="M19.4,102.2c-0.2,1.2-0.4,3-0.6,4.3c-0.1,0.5-0.5,0.9-1,0.8c-0.2,0-0.4-0.1-0.6-0.3l-3.7-3.7
					c-0.4-0.4-0.4-1,0-1.4c0.1-0.1,0.3-0.2,0.5-0.3l4.3-0.6c0.5-0.1,1,0.2,1.1,0.7C19.4,102,19.4,102.1,19.4,102.2z"/>
				<path class="st2" d="M19.4,97c-0.2-1.2-0.4-3-0.6-4.5c-0.1-0.5-0.6-0.9-1.1-0.8c-0.2,0-0.4,0.1-0.5,0.3l-3.7,3.7
					c-0.4,0.4-0.4,1,0,1.3c0.1,0.2,0.3,0.3,0.6,0.3l4.3,0.6c0.5,0.1,1-0.3,1.1-0.8C19.4,97.1,19.4,97.1,19.4,97z"/>
				<path class="st2" d="M22.9,97c0.2-1.2,0.4-3,0.6-4.5c0.1-0.5,0.6-0.9,1.1-0.8c0.2,0,0.4,0.1,0.5,0.3l3.6,3.9
					c0.4,0.4,0.4,1,0,1.3c-0.1,0.2-0.3,0.3-0.6,0.3l-4.3,0.6c-0.5,0-1-0.3-1-0.9C22.9,97.2,22.9,97.1,22.9,97z"/>
				<path class="st2" d="M52,53.1c0,0,2.7-2.5,2.6-3.5c-0.1-1-6-1.8-6.9-1.5c-0.6,0.2-1.1,0.5-1.6,0.9l5.2,4.8L52,53.1z"/>
				<path class="st2" d="M50.7,54.5c0,0-2.5,2.7-3.5,2.6c-1-0.1-1.8-6-1.5-6.9c0.6-1.5,0.5-1.5,0.5-1.5l5.2,5.2L50.7,54.5z"/>
				<path class="st2" d="M28.2,32.1c0,0-2.7,2.5-2.6,3.5c0.1,1,6,1.8,6.9,1.5c0.6-0.2,1.1-0.5,1.6-0.9l-5.2-4.8L28.2,32.1z"/>
				<path class="st2" d="M29.6,30.6c0,0,2.5-2.7,3.5-2.6c1,0.1,1.8,6,1.5,6.9c-0.6,1.5-0.5,1.5-0.5,1.5l-5.2-5.2L29.6,30.6z"/>
				<polygon class="st2" points="32.4,36.4 46.2,50.6 49.2,53.9 50.7,53.9 48.4,49.2 33.6,33.9 				"/>
				<path class="st2" d="M28,91c0,0-2.7-2.5-2.6-3.5c0.1-1,6-1.8,6.8-1.5c0.6,0.2,1.1,0.5,1.6,0.9l-5.1,4.8L28,91z"/>
				<path class="st2" d="M29.4,92.3c0,0,2.5,2.7,3.5,2.6s1.8-6,1.5-6.9c-0.6-1.5-0.5-1.5-0.5-1.5l-5.1,5.2L29.4,92.3z"/>
				<path class="st2" d="M51.8,69.9c0,0,2.7,2.5,2.6,3.5c-0.1,1-6,1.8-6.9,1.5C47,74.6,46.5,74.3,46,74l5.1-4.8L51.8,69.9z"/>
				<path class="st2" d="M50.5,68.5c0,0-2.5-2.7-3.5-2.6s-1.8,6-1.5,6.9c0.6,1.5,0.4,1.5,0.4,1.5l5.2-5.2L50.5,68.5z"/>
				<polygon class="st2" points="47.6,74.4 33.9,88.4 30.9,91.8 29.3,91.8 31.6,87.1 46.5,71.9 				"/>
				<polygon class="st2" points="33.6,68.4 32.3,65.8 33.7,62.9 31.5,61.7 25.9,65.4 30.7,69.5 				"/>
				<polygon class="st2" points="23,75 25.3,73.3 28.4,74.1 29.1,71.9 24.4,66.8 21.4,72.4 				"/>
				<polygon class="st2" points="8.1,55 9.4,57.7 8,60.6 10.2,61.8 15.9,58 11,54 				"/>
				<polygon class="st2" points="18.8,48.4 16.4,50.2 13.3,49.4 12.6,51.6 17.3,56.6 20.3,51.1 				"/>
				<polygon class="st2" points="13.7,74.7 16.4,73.4 19.3,74.8 20.5,72.6 16.7,66.9 12.7,71.8 				"/>
				<polygon class="st2" points="7.4,64.2 9.1,66.5 8.3,69.7 10.5,70.4 15.5,65.7 10,62.6 				"/>
				<polygon class="st2" points="28.3,48.5 25.7,49.7 22.8,48.4 21.6,50.6 25.3,56.3 29.4,51.4 				"/>
				<polygon class="st2" points="34.7,59 33,56.6 33.8,53.5 31.6,52.8 26.6,57.5 32.1,60.6 				"/>
				<ellipse class="st2" cx="21" cy="62.2" rx="2.7" ry="2.7"/>
				<path class="st2" d="M61.7,63.4L66,64c0.5,0.1,0.9,0.5,0.8,1c0,0.2-0.1,0.4-0.3,0.6l-3.7,3.7c-0.4,0.4-1,0.4-1.3,0
					c-0.2-0.2-0.3-0.3-0.3-0.6l-0.6-4.3c-0.1-0.5,0.3-1,0.8-1.1C61.5,63.4,61.6,63.4,61.7,63.4z"/>
				<path class="st2" d="M60.8,64.4c0.2,1.2,0.4,3,0.6,4.3c0.1,0.5,0.5,0.9,1,0.8c0.2,0,0.4-0.1,0.6-0.3l3.8-3.7
					c0.4-0.4,0.4-1,0-1.3c-0.1-0.2-0.3-0.3-0.6-0.3l-4.3-0.6c-0.5-0.1-1,0.1-1.2,0.6C60.7,64.1,60.7,64.2,60.8,64.4z"/>
				<path class="st2" d="M57.2,64.4c-0.2,1.2-0.4,3-0.6,4.3c-0.1,0.5-0.5,0.9-1,0.8c-0.2,0-0.4-0.1-0.6-0.3l-3.7-3.7
					c-0.4-0.4-0.3-1,0-1.4c0.1-0.1,0.3-0.2,0.5-0.3l4.3-0.6c0.5-0.1,1,0.3,1.1,0.8C57.3,64.2,57.3,64.3,57.2,64.4z"/>
				<path class="st2" d="M57.2,59.1c-0.2-1.2-0.4-3-0.6-4.3c-0.1-0.5-0.5-0.9-1-0.8c-0.2,0-0.4,0.1-0.6,0.3L51.3,58
					c-0.4,0.4-0.3,1,0,1.4c0.1,0.1,0.3,0.2,0.5,0.3l4.3,0.6c0.5,0.1,1-0.3,1.1-0.8C57.3,59.3,57.3,59.2,57.2,59.1z"/>
				<path class="st2" d="M60.8,59.1c0.2-1.2,0.4-3,0.6-4.3c0.1-0.5,0.5-0.9,1-0.8c0.2,0,0.4,0.1,0.6,0.3l3.8,3.7
					c0.4,0.4,0.4,1,0,1.3c-0.1,0.2-0.3,0.3-0.6,0.3l-4.3,0.6c-0.5,0.1-1-0.1-1.2-0.6C60.7,59.4,60.7,59.3,60.8,59.1z"/>
				<path class="st2" d="M89.8,15.2c0,0,2.7-2.5,2.6-3.5c-0.1-1-6-1.8-6.9-1.5c-0.6,0.2-1.1,0.5-1.6,0.9l5.1,4.8L89.8,15.2z"/>
				<path class="st2" d="M88.5,16.6c0,0-2.5,2.7-3.5,2.6c-1-0.1-1.8-6.1-1.5-6.9c0.6-1.5,0.4-1.5,0.4-1.5l5.2,5.2L88.5,16.6z"/>
				<path class="st2" d="M66.1-6c0,0-2.7,2.5-2.6,3.5c0.1,1,6,1.8,6.8,1.5c0.6-0.2,1.1-0.5,1.6-0.9l-5.1-4.7L66.1-6z"/>
				<path class="st2" d="M67.4-7.2c0,0,2.5-2.7,3.5-2.6c1,0.1,1.8,6,1.5,6.9c-0.6,1.5-0.5,1.5-0.5,1.5l-5.2-5.2L67.4-7.2z"/>
				<polygon class="st2" points="70.2,-1.4 84,12.7 87,16 88.6,16 86.3,11.3 71.4,-4 				"/>
				<path class="st2" d="M65.9,53.1c0,0-2.7-2.5-2.6-3.5s6-1.8,6.9-1.5c0.6,0.2,1.1,0.5,1.5,0.9l-5.2,4.8L65.9,53.1z"/>
				<path class="st2" d="M67.2,54.5c0,0,2.5,2.7,3.5,2.6s1.8-6,1.5-6.9c-0.6-1.5-0.5-1.5-0.5-1.5l-5.2,5.2L67.2,54.5z"/>
				<path class="st2" d="M89.6,32.1c0,0,2.7,2.5,2.6,3.5c-0.1,1-6,1.8-6.9,1.5c-0.6-0.2-1.1-0.5-1.5-0.9l5.3-4.9L89.6,32.1z"/>
				<path class="st2" d="M88.3,30.6c0,0-2.5-2.7-3.5-2.6c-1,0.1-1.8,6-1.5,6.9c0.6,1.5,0.5,1.5,0.5,1.5l5.3-5.2L88.3,30.6z"/>
				<polygon class="st2" points="85.4,36.4 71.7,50.6 68.7,53.9 67.1,53.9 69.4,49.2 84.3,33.9 				"/>
				<polygon class="st2" points="71.4,30.5 70.2,27.9 71.5,25 69.3,23.8 63.7,27.5 68.6,31.6 				"/>
				<polygon class="st2" points="60.8,37.1 63.1,35.4 66.2,36.2 66.9,34 62.2,28.9 59.2,34.5 				"/>
				<polygon class="st2" points="45.9,17.1 47.2,19.8 45.8,22.7 48,23.9 53.7,20.1 48.8,16.1 				"/>
				<polygon class="st2" points="56.6,10.5 54.2,12.3 51.1,11.5 50.4,13.7 55.1,18.7 58.2,13.2 				"/>
				<polygon class="st2" points="51.6,36.8 54.2,35.6 57.1,36.9 58.3,34.7 54.6,29.1 50.5,33.9 				"/>
				<polygon class="st2" points="45.2,26.3 46.9,28.7 46.1,31.8 48.3,32.5 53.3,27.8 47.8,24.7 				"/>
				<polygon class="st2" points="66.2,10.6 63.5,11.9 60.6,10.5 59.4,12.7 63.2,18.4 67.2,13.5 				"/>
				<polygon class="st2" points="72.6,21.1 70.8,18.8 71.6,15.6 69.4,14.9 64.4,19.6 69.9,22.7 				"/>
				<ellipse class="st2" cx="58.8" cy="24.3" rx="2.7" ry="2.7"/>
				<path class="st2" d="M99.5,25.5l4.4,0.6c0.5,0.1,0.9,0.6,0.8,1.1c0,0.2-0.1,0.4-0.3,0.5l-3.7,3.7c-0.4,0.4-1,0.4-1.4,0
					c-0.1-0.1-0.2-0.3-0.3-0.5l-0.6-4.3c-0.1-0.5,0.3-1,0.8-1.1C99.3,25.5,99.4,25.5,99.5,25.5z"/>
				<path class="st2" d="M98.6,26.5c0.2,1.2,0.4,3,0.6,4.3c0.1,0.5,0.5,0.9,1,0.8c0.2,0,0.4-0.1,0.6-0.3l3.7-3.7
					c0.4-0.4,0.4-1,0-1.3c-0.1-0.2-0.3-0.3-0.5-0.3l-4.3-0.6c-0.5-0.1-1,0.3-1.1,0.9C98.6,26.3,98.6,26.4,98.6,26.5z"/>
				<path class="st2" d="M95.1,26.5c-0.2,1.2-0.4,3-0.6,4.3c-0.1,0.5-0.5,0.9-1,0.8c-0.2,0-0.4-0.1-0.6-0.3l-3.8-3.7
					c-0.4-0.4-0.4-1,0-1.3c0.1-0.2,0.3-0.3,0.5-0.3l4.4-0.6c0.5-0.1,1,0.3,1.1,0.9C95.1,26.3,95.1,26.4,95.1,26.5z"/>
				<path class="st2" d="M95.1,21.2c-0.2-1.2-0.4-3-0.6-4.3c-0.1-0.5-0.5-0.9-1-0.8c-0.2,0-0.4,0.1-0.6,0.3l-3.8,3.7
					c-0.4,0.4-0.4,1,0,1.3c0.1,0.2,0.3,0.3,0.5,0.3l4.3,0.6c0.5,0.1,1-0.2,1.2-0.8C95.1,21.4,95.1,21.3,95.1,21.2z"/>
				<path class="st2" d="M98.6,21.2c0.2-1.2,0.4-3,0.6-4.3c0.1-0.5,0.5-0.9,1-0.8c0.2,0,0.4,0.1,0.6,0.3l3.7,3.7
					c0.4,0.4,0.4,1,0,1.3c-0.1,0.2-0.3,0.3-0.5,0.3l-4.3,0.6c-0.5,0.1-1-0.3-1.1-0.9C98.6,21.4,98.6,21.3,98.6,21.2z"/>
				<path class="st2" d="M127.6-22.7c0,0,2.7-2.5,2.6-3.5c-0.1-1-6-1.8-6.9-1.5c-0.6,0.2-1.1,0.5-1.5,0.9l5.3,4.8L127.6-22.7z"/>
				<path class="st2" d="M126.3-21.3c0,0-2.5,2.7-3.5,2.6s-1.8-6.1-1.5-6.9c0.6-1.5,0.5-1.5,0.5-1.5L127-22L126.3-21.3z"/>
				<path class="st2" d="M103.9-43.8c0,0-2.7,2.5-2.6,3.5c0.1,1,6,1.8,6.9,1.5c0.6-0.2,1.1-0.5,1.5-0.9l-5.2-4.8L103.9-43.8z"/>
				<path class="st2" d="M105.2-45.2c0,0,2.5-2.7,3.5-2.6c1,0.1,1.8,6.1,1.5,6.9c-0.6,1.5-0.5,1.5-0.5,1.5l-5.2-5.2L105.2-45.2z"/>
				<polygon class="st2" points="108.1,-39.3 121.8,-25.2 124.8,-21.9 126.4,-21.9 124.1,-26.6 109.2,-41.8 				"/>
				<path class="st2" d="M103.7,15.2c0,0-2.7-2.5-2.6-3.5c0.1-1,6-1.8,6.9-1.5c0.6,0.2,1.1,0.5,1.5,0.9l-5.2,4.8L103.7,15.2z"/>
				<path class="st2" d="M105,16.6c0,0,2.5,2.7,3.5,2.6s1.8-6.1,1.5-6.9c-0.6-1.5-0.5-1.5-0.5-1.5l-5.2,5.2L105,16.6z"/>
				<path class="st2" d="M127.4-6c0,0,2.7,2.5,2.6,3.5c-0.1,1-6,1.8-6.9,1.5c-0.6-0.2-1.1-0.5-1.5-0.9l5.2-4.8L127.4-6z"/>
				<path class="st2" d="M126.1-7.2c0,0-2.5-2.7-3.5-2.6c-1,0.1-1.8,6-1.5,6.9c0.6,1.5,0.5,1.5,0.5,1.5l5.2-5.2L126.1-7.2z"/>
				<polygon class="st2" points="123.3,-1.4 109.5,12.7 106.5,16 104.9,16 107.3,11.3 122.1,-4 				"/>
				<polygon class="st2" points="109.2,-7.4 108,-10 109.4,-12.9 107.2,-14.1 101.5,-10.4 106.4,-6.3 				"/>
				<polygon class="st2" points="98.6,-0.8 100.9,-2.5 104,-1.7 104.7,-3.9 100.1,-9 97,-3.4 				"/>
				<polygon class="st2" points="83.7,-20.8 85,-18.1 83.6,-15.2 85.8,-14 91.5,-17.8 86.6,-21.8 				"/>
				<polygon class="st2" points="94.4,-27.4 92.1,-25.6 89,-26.4 88.3,-24.2 92.9,-19.2 96,-24.7 				"/>
				<polygon class="st2" points="89.4,-1.1 92,-2.3 94.9,-1 96.1,-3.2 92.4,-8.8 88.3,-4 				"/>
				<polygon class="st2" points="83,-11.6 84.7,-9.2 83.9,-6.1 86.1,-5.4 91.1,-10.1 85.6,-13.2 				"/>
				<polygon class="st2" points="104,-27.3 101.4,-26 98.5,-27.4 97.3,-25.2 101,-19.5 105,-24.4 				"/>
				<polygon class="st2" points="110.4,-16.8 108.6,-19.1 109.4,-22.2 107.2,-22.9 102.2,-18.3 107.8,-15.2 				"/>
				<ellipse class="st2" cx="96.6" cy="-13.6" rx="2.7" ry="2.7"/>
				<path class="st2" d="M137.3-12.4l4.3,0.6c0.5,0.1,0.9,0.5,0.8,1c0,0.2-0.1,0.4-0.3,0.6l-3.7,3.7c-0.4,0.4-1,0.4-1.4,0
					c-0.1-0.1-0.2-0.3-0.3-0.5l-0.6-4.3c-0.1-0.5,0.3-1,0.9-1.1C137.2-12.4,137.3-12.4,137.3-12.4z"/>
				<path class="st2" d="M136.4-11.4c0.2,1.2,0.4,3,0.6,4.3c0.1,0.5,0.6,0.9,1.1,0.8c0.2,0,0.4-0.1,0.5-0.3l3.7-3.7
					c0.4-0.4,0.3-1,0-1.4c-0.1-0.1-0.3-0.2-0.5-0.3l-4.3-0.6c-0.5-0.1-1,0.3-1.1,0.8C136.4-11.6,136.4-11.5,136.4-11.4z"/>
				<path class="st2" d="M132.9-11.4c-0.2,1.2-0.4,3-0.6,4.3c-0.1,0.5-0.6,0.9-1.1,0.8c-0.2,0-0.4-0.1-0.5-0.3l-3.6-3.7
					c-0.4-0.4-0.4-1,0-1.3c0.1-0.2,0.3-0.3,0.6-0.3l4.3-0.6c0.5,0,1,0.4,1,1C132.9-11.5,132.9-11.5,132.9-11.4z"/>
				<path class="st2" d="M132.9-16.6c-0.2-1.2-0.4-3-0.6-4.3c-0.1-0.5-0.5-0.9-1-0.8c-0.2,0-0.4,0.1-0.6,0.3l-3.6,3.7
					c-0.4,0.4-0.4,1,0,1.3c0.1,0.2,0.3,0.3,0.6,0.3l4.3,0.6c0.5,0,1-0.4,1-0.9C132.9-16.6,132.9-16.6,132.9-16.6z"/>
				<path class="st2" d="M136.4-16.6c0.2-1.2,0.4-3,0.6-4.3c0.1-0.5,0.5-0.9,1-0.8c0.2,0,0.4,0.1,0.6,0.3l3.7,3.7
					c0.4,0.4,0.3,1,0,1.4c-0.1,0.1-0.3,0.2-0.5,0.3l-4.3,0.6c-0.5,0.1-1-0.2-1.1-0.7C136.4-16.4,136.4-16.5,136.4-16.6z"/>
				<path class="st2" d="M165.5-60.6c0,0,2.7-2.5,2.6-3.5c-0.1-1-6-1.8-6.9-1.5c-0.6,0.2-1.1,0.5-1.5,0.9l5.2,4.8L165.5-60.6z"/>
				<path class="st2" d="M164.1-59.2c0,0-2.5,2.7-3.5,2.6c-1-0.1-1.8-6-1.5-6.9c0.6-1.5,0.5-1.5,0.5-1.5l5.2,5.2L164.1-59.2z"/>
				<path class="st2" d="M141.7-81.7c0,0-2.7,2.5-2.6,3.5c0.1,1,6,1.8,6.9,1.5c0.6-0.2,1.1-0.5,1.5-0.9l-5.2-4.8L141.7-81.7z"/>
				<path class="st2" d="M143-83c0,0,2.5-2.7,3.5-2.6c1,0.1,1.8,6,1.5,6.9c-0.6,1.5-0.5,1.5-0.5,1.5l-5.2-5.2L143-83z"/>
				<polygon class="st2" points="145.9,-77.2 159.6,-63.1 162.6,-59.8 164.2,-59.8 161.9,-64.5 147,-79.7 				"/>
				<path class="st2" d="M141.5-22.7c0,0-2.7-2.5-2.6-3.5c0.1-1,6-1.8,6.9-1.5c0.6,0.2,1.1,0.6,1.6,0.9l-5.2,4.8L141.5-22.7z"/>
				<path class="st2" d="M142.8-21.3c0,0,2.5,2.7,3.5,2.6c1-0.1,1.8-6.1,1.5-6.9c-0.6-1.5-0.4-1.5-0.4-1.5l-5.3,5.2L142.8-21.3z"/>
				<path class="st2" d="M165.3-43.8c0,0,2.7,2.5,2.6,3.5c-0.1,1-6,1.8-6.9,1.5c-0.6-0.2-1.1-0.5-1.5-0.9l5.2-4.8L165.3-43.8z"/>
				<path class="st2" d="M163.9-45.2c0,0-2.5-2.7-3.5-2.6c-1,0.1-1.8,6.1-1.5,6.9c0.6,1.5,0.5,1.5,0.5,1.5l5.2-5.2L163.9-45.2z"/>
				<polygon class="st2" points="161.1,-39.3 147.3,-25.2 144.4,-21.9 142.8,-21.9 145.1,-26.6 159.9,-41.8 				"/>
				<polygon class="st2" points="147.1,-45.3 145.8,-47.9 147.2,-50.8 145,-52 139.3,-48.3 144.2,-44.2 				"/>
				<polygon class="st2" points="136.4,-38.7 138.8,-40.4 141.9,-39.6 142.6,-41.8 137.9,-46.9 134.8,-41.3 				"/>
				<polygon class="st2" points="121.6,-58.7 122.8,-56 121.5,-53.1 123.7,-51.9 129.3,-55.7 124.4,-59.7 				"/>
				<polygon class="st2" points="132.2,-65.2 129.9,-63.5 126.8,-64.3 126.1,-62.1 130.7,-57.1 133.8,-62.6 				"/>
				<polygon class="st2" points="127.2,-39 129.8,-40.3 132.7,-38.9 133.9,-41.1 130.2,-46.7 126.1,-41.9 				"/>
				<polygon class="st2" points="120.8,-49.5 122.5,-47.1 121.7,-44 124,-43.3 129,-48 123.4,-51.1 				"/>
				<polygon class="st2" points="141.8,-65.2 139.2,-63.9 136.3,-65.3 135.1,-63.1 138.8,-57.4 142.9,-62.3 				"/>
				<polygon class="st2" points="148.2,-54.7 146.5,-57 147.2,-60.2 145.1,-60.8 140,-56.2 145.6,-53.1 				"/>
				<ellipse class="st2" cx="134.4" cy="-51.5" rx="2.7" ry="2.7"/>
				<path class="st2" d="M175.2-50.3l4.3,0.6c0.5,0.1,0.9,0.5,0.8,1c0,0.2-0.1,0.4-0.3,0.6l-3.8,3.7c-0.4,0.4-1,0.4-1.3,0
					c-0.2-0.2-0.3-0.3-0.3-0.6l-0.6-4.3c-0.1-0.5,0.3-1,0.8-1.1C175-50.3,175.1-50.3,175.2-50.3z"/>
				<path class="st2" d="M174.2-49.3l0.6,4.3c0.1,0.5,0.6,0.9,1.1,0.8c0.2,0,0.4-0.1,0.5-0.3l3.7-3.7c0.4-0.4,0.4-1,0-1.3
					c-0.1-0.2-0.3-0.3-0.6-0.3l-4.3-0.6c-0.5-0.1-1,0.3-1.1,0.8C174.2-49.5,174.2-49.4,174.2-49.3z"/>
				<path class="st2" d="M170.7-49.3l-0.6,4.3c-0.1,0.5-0.6,0.9-1.1,0.8c-0.2,0-0.4-0.1-0.5-0.3l-3.7-3.7c-0.4-0.4-0.4-1,0-1.3
					c0.1-0.2,0.3-0.3,0.6-0.3l4.3-0.6c0.5-0.1,1,0.3,1.1,0.8C170.7-49.5,170.7-49.4,170.7-49.3z"/>
				<path class="st2" d="M170.7-54.5l-0.6-4.3c-0.1-0.5-0.5-0.9-1-0.8c-0.2,0-0.4,0.1-0.6,0.3l-3.7,3.7c-0.4,0.4-0.4,1,0,1.3
					c0.1,0.2,0.3,0.3,0.6,0.3l4.3,0.6c0.5,0.1,1-0.3,1.1-0.8C170.7-54.4,170.7-54.5,170.7-54.5z"/>
				<path class="st2" d="M174.2-54.5l0.6-4.3c0.1-0.5,0.5-0.9,1-0.8c0.2,0,0.4,0.1,0.6,0.3l3.7,3.7c0.4,0.4,0.4,1,0,1.3
					c-0.1,0.2-0.3,0.3-0.6,0.3l-4.3,0.6c-0.5,0.1-1-0.3-1.1-0.8C174.2-54.4,174.2-54.5,174.2-54.5z"/>
				<path class="st2" d="M-14.2,139.6l4.3,0.6c0.5,0.1,0.9,0.6,0.8,1.1c0,0.2-0.1,0.4-0.3,0.5l-3.7,3.7c-0.4,0.4-1,0.4-1.4,0
					c-0.1-0.1-0.2-0.3-0.3-0.5l-0.6-4.3c-0.1-0.5,0.3-1,0.8-1.1C-14.4,139.6-14.3,139.6-14.2,139.6z"/>
				<path class="st2" d="M-15.2,140.4c0.2,1.2,0.4,3,0.6,4.3c0.1,0.5,0.5,0.9,1,0.8c0.2,0,0.4-0.1,0.6-0.3l3.7-3.7
					c0.4-0.4,0.4-1,0-1.3c-0.1-0.2-0.3-0.3-0.5-0.3l-4.3-0.6c-0.5-0.1-1,0.3-1.1,0.8C-15.2,140.2-15.2,140.3-15.2,140.4z"/>
				<path class="st2" d="M-18.7,140.4c-0.2,1.2-0.4,3-0.6,4.3c-0.1,0.5-0.5,0.9-1,0.8c-0.2,0-0.4-0.1-0.6-0.3l-3.7-3.7
					c-0.4-0.4-0.3-1,0-1.4c0.1-0.1,0.3-0.2,0.5-0.3l4.3-0.6c0.5-0.1,1,0.3,1.1,0.9C-18.7,140.3-18.7,140.4-18.7,140.4z"/>
				<path class="st2" d="M-18.7,135.2c-0.2-1.2-0.4-3-0.6-4.3c-0.1-0.5-0.5-0.9-1-0.8c-0.2,0-0.4,0.1-0.6,0.3l-3.7,3.7
					c-0.4,0.4-0.3,1,0,1.4c0.1,0.1,0.3,0.2,0.5,0.3l4.3,0.6c0.5,0.1,1-0.3,1.1-0.9C-18.7,135.3-18.7,135.3-18.7,135.2z"/>
				<path class="st2" d="M-15.2,135.2c0.2-1.2,0.4-3,0.6-4.3c0.1-0.5,0.5-0.9,1-0.8c0.2,0,0.4,0.1,0.6,0.3l3.7,3.7
					c0.4,0.4,0.4,1,0,1.3c-0.1,0.2-0.3,0.3-0.5,0.3l-4.3,0.6c-0.5,0.1-1-0.3-1.1-0.8C-15.2,135.4-15.2,135.3-15.2,135.2z"/>
				<path class="st2" d="M52.3,129.2c0,0,2.7-2.5,2.6-3.5c-0.1-1-6-1.8-6.9-1.5c-0.6,0.2-1.1,0.5-1.5,0.9l5.2,4.8L52.3,129.2z"/>
				<path class="st2" d="M51,130.6c0,0-2.5,2.7-3.5,2.6c-1-0.1-1.8-6.1-1.5-6.9c0.6-1.5,0.5-1.5,0.5-1.5l5.2,5.2L51,130.6z"/>
				<path class="st2" d="M28.5,108c0,0-2.7,2.5-2.6,3.5c0.1,1,6,1.8,6.9,1.5c0.6-0.2,1.1-0.5,1.5-0.9l-5.2-4.8L28.5,108z"/>
				<path class="st2" d="M29.8,106.7c0,0,2.5-2.7,3.5-2.6s1.8,6,1.5,6.9c-0.6,1.5-0.5,1.5-0.5,1.5l-5.2-5.2L29.8,106.7z"/>
				<polygon class="st2" points="32.7,112.5 46.4,126.6 49.4,129.9 51,129.9 48.7,125.3 33.9,110 				"/>
				<path class="st2" d="M13.9,167.7c0,0,2.7-2.5,2.6-3.5c-0.1-1-6-1.8-6.9-1.5c-0.6,0.2-1.1,0.5-1.5,0.9l5.2,4.8L13.9,167.7z"/>
				<path class="st2" d="M12.6,169c0,0-2.5,2.7-3.5,2.6c-1-0.1-1.8-6-1.5-6.9c0.6-1.5,0.5-1.5,0.5-1.5l5.2,5.2L12.6,169z"/>
				<path class="st2" d="M-9.9,146.5c0,0-2.7,2.5-2.6,3.5c0.1,1,6,1.8,6.9,1.5c0.6-0.2,1.1-0.5,1.5-0.9l-5.2-4.8L-9.9,146.5z"/>
				<path class="st2" d="M-8.5,145.2c0,0,2.5-2.7,3.5-2.6c1,0.1,1.8,6,1.5,6.9C-4.1,150.9-4,151-4,151l-5.2-5.2L-8.5,145.2z"/>
				<polygon class="st2" points="-5.7,151 8.1,165.1 11.1,168.4 12.6,168.4 10.3,163.7 -4.5,148.5 				"/>
				<path class="st2" d="M28.3,167.1c0,0-2.7-2.5-2.6-3.5c0.1-1,6-1.8,6.9-1.5c0.6,0.2,1.1,0.5,1.5,0.9l-5.2,4.8L28.3,167.1z"/>
				<path class="st2" d="M29.6,168.4c0,0,2.5,2.7,3.5,2.6c1-0.1,1.8-6,1.5-6.9c-0.6-1.5-0.5-1.5-0.5-1.5l-5.2,5.2L29.6,168.4z"/>
				<path class="st2" d="M52.1,145.9c0,0,2.7,2.5,2.6,3.5c-0.1,1-6,1.8-6.9,1.5c-0.6-0.2-1.1-0.5-1.5-0.9l5.2-4.8L52.1,145.9z"/>
				<path class="st2" d="M50.8,144.6c0,0-2.5-2.7-3.5-2.6c-1,0.1-1.8,6-1.5,6.9c0.6,1.5,0.5,1.5,0.5,1.5l5.2-5.2L50.8,144.6z"/>
				<polygon class="st2" points="47.9,150.4 34.2,164.5 31.2,167.8 29.6,167.8 31.9,163.2 46.7,147.9 				"/>
				<polygon class="st2" points="33.9,144.5 32.6,141.9 34,138.9 31.8,137.8 26.2,141.5 31,145.5 				"/>
				<polygon class="st2" points="23.2,151.1 25.6,149.3 28.7,150.1 29.4,147.9 24.7,142.9 21.6,148.4 				"/>
				<polygon class="st2" points="8.4,131.1 9.6,133.7 8.3,136.6 10.5,137.8 16.1,134.1 11.2,130 				"/>
				<polygon class="st2" points="19,124.5 16.7,126.2 13.6,125.4 12.9,127.7 17.5,132.7 20.6,127.1 				"/>
				<polygon class="st2" points="14,150.8 16.7,149.5 19.5,150.9 20.7,148.7 17,143 13,147.9 				"/>
				<polygon class="st2" points="7.6,140.3 9.3,142.6 8.6,145.7 10.8,146.4 15.8,141.8 10.2,138.7 				"/>
				<polygon class="st2" points="28.6,124.6 26,125.8 23.1,124.5 21.9,126.7 25.6,132.3 29.7,127.4 				"/>
				<polygon class="st2" points="35,135.1 33.3,132.7 34.1,129.6 31.9,128.9 26.8,133.6 32.4,136.6 				"/>
				<ellipse class="st2" cx="21.2" cy="138.2" rx="2.7" ry="2.7"/>
				<path class="st2" d="M62,139.6l4.3,0.6c0.5,0.1,0.9,0.5,0.8,1c0,0.2-0.1,0.4-0.3,0.6l-3.7,3.7c-0.4,0.4-1,0.4-1.4,0
					c-0.1-0.1-0.2-0.3-0.3-0.5l-0.6-4.3c-0.1-0.5,0.3-1,0.8-1.1C61.8,139.6,61.9,139.6,62,139.6z"/>
				<path class="st2" d="M61,140.4c0.2,1.2,0.4,3,0.6,4.3c0.1,0.5,0.5,0.9,1,0.8c0.2,0,0.4-0.1,0.6-0.3l3.7-3.7c0.4-0.4,0.3-1,0-1.4
					c-0.1-0.1-0.3-0.2-0.5-0.3l-4.3-0.6c-0.5-0.1-1,0.3-1.1,0.8C61,140.2,61,140.3,61,140.4z"/>
				<path class="st2" d="M57.5,140.4c-0.2,1.2-0.4,3-0.6,4.3c-0.1,0.5-0.5,0.9-1,0.8c-0.2,0-0.4-0.1-0.6-0.3l-3.7-3.7
					c-0.4-0.4-0.4-1,0-1.3c0.1-0.2,0.3-0.3,0.6-0.3l4.3-0.6c0.5-0.1,1,0.3,1.1,0.8C57.5,140.2,57.5,140.3,57.5,140.4z"/>
				<path class="st2" d="M57.5,135.2c-0.2-1.2-0.4-3-0.6-4.3c-0.1-0.5-0.5-0.9-1-0.8c-0.2,0-0.4,0.1-0.6,0.3l-3.7,3.7
					c-0.4,0.4-0.4,1,0,1.3c0.1,0.2,0.3,0.3,0.6,0.3l4.3,0.6c0.5,0.1,1-0.3,1.1-0.8C57.5,135.4,57.5,135.3,57.5,135.2z"/>
				<path class="st2" d="M61,135.2c0.2-1.2,0.4-3,0.6-4.3c0.1-0.5,0.5-0.9,1-0.8c0.2,0,0.4,0.1,0.6,0.3l3.7,3.7c0.4,0.4,0.3,1,0,1.4
					c-0.1,0.1-0.3,0.2-0.5,0.3l-4.3,0.6c-0.5,0.1-1-0.3-1.1-0.8C61,135.4,61,135.3,61,135.2z"/>
				<path class="st2" d="M90.1,91.3c0,0,2.7-2.5,2.6-3.5s-6-1.8-6.9-1.5c-0.6,0.2-1.1,0.5-1.5,0.9l5.2,4.8L90.1,91.3z"/>
				<path class="st2" d="M88.8,92.5c0,0-2.5,2.7-3.5,2.6s-1.8-6.1-1.5-6.9c0.6-1.5,0.5-1.5,0.5-1.5l5.2,5.2L88.8,92.5z"/>
				<path class="st2" d="M66.3,70.2c0,0-2.7,2.5-2.6,3.5s6,1.8,6.9,1.5c0.6-0.2,1.1-0.5,1.5-0.9L67,69.5L66.3,70.2z"/>
				<path class="st2" d="M67.7,68.8c0,0,2.5-2.7,3.5-2.6c1,0.1,1.8,6.1,1.5,6.9c-0.6,1.5-0.5,1.5-0.5,1.5L67,69.5L67.7,68.8z"/>
				<polygon class="st2" points="70.5,74.6 84.3,88.7 87.3,92.1 88.8,92.1 86.5,87.4 71.7,72.1 				"/>
				<path class="st2" d="M66.1,129.2c0,0-2.7-2.5-2.6-3.5c0.1-1,6-1.8,6.9-1.5c0.6,0.2,1.1,0.5,1.6,0.9l-5.2,4.8L66.1,129.2z"/>
				<path class="st2" d="M67.5,130.6c0,0,2.5,2.7,3.5,2.6c1-0.1,1.8-6.1,1.5-6.9c-0.6-1.5-0.4-1.5-0.4-1.5l-5.3,5.1L67.5,130.6z"/>
				<path class="st2" d="M89.9,108c0,0,2.7,2.5,2.6,3.5c-0.1,1-6,1.8-6.8,1.5c-0.6-0.2-1.1-0.5-1.6-0.9l5.2-4.8L89.9,108z"/>
				<path class="st2" d="M88.6,106.7c0,0-2.5-2.7-3.5-2.6c-1,0.1-1.8,6-1.5,6.9c0.6,1.5,0.5,1.5,0.5,1.5l5.2-5.2L88.6,106.7z"/>
				<polygon class="st2" points="85.7,112.5 72,126.6 69,129.9 67.4,129.9 69.7,125.3 84.6,110 				"/>
				<polygon class="st2" points="71.7,106.6 70.5,103.9 71.8,101.1 69.6,99.8 64,103.6 68.8,107.6 				"/>
				<polygon class="st2" points="61,113.2 63.4,111.4 66.5,112.2 67.2,110 62.5,105 59.5,110.5 				"/>
				<polygon class="st2" points="46.2,93.2 47.5,95.8 46.1,98.7 48.3,99.9 53.9,96.2 49.1,92.1 				"/>
				<polygon class="st2" points="56.9,86.6 54.5,88.3 51.4,87.6 50.7,89.7 55.4,94.8 58.4,89.2 				"/>
				<polygon class="st2" points="51.8,112.9 54.5,111.6 57.4,113 58.6,110.8 54.8,105.1 50.8,110 				"/>
				<polygon class="st2" points="45.4,102.4 47.2,104.7 46.4,107.8 48.6,108.5 53.6,103.9 48.1,100.8 				"/>
				<polygon class="st2" points="66.4,86.7 63.8,87.9 60.9,86.6 59.7,88.8 63.4,94.4 67.5,89.5 				"/>
				<polygon class="st2" points="72.8,97.2 71.1,94.8 71.9,91.7 69.7,91 64.7,95.7 70.2,98.7 				"/>
				<ellipse class="st2" cx="59.1" cy="100.3" rx="2.7" ry="2.7"/>
				<path class="st2" d="M99.8,101.5l4.3,0.6c0.5,0,0.9,0.4,1,0.9c0,0.3-0.1,0.6-0.3,0.7l-3.7,3.7c-0.4,0.4-1,0.4-1.4,0
					c-0.1-0.1-0.2-0.3-0.3-0.5l-0.6-4.3c-0.1-0.5,0.2-1,0.7-1.1C99.6,101.5,99.7,101.5,99.8,101.5z"/>
				<path class="st2" d="M98.9,102.5c0.2,1.2,0.4,3,0.6,4.3c0.1,0.5,0.6,0.9,1.1,0.8c0.2,0,0.4-0.1,0.5-0.3l3.7-3.7
					c0.4-0.4,0.4-1,0-1.3c-0.1-0.2-0.3-0.3-0.6-0.3l-4.3-0.6c-0.5-0.1-1,0.3-1.1,0.8C98.9,102.4,98.8,102.5,98.9,102.5z"/>
				<path class="st2" d="M95.3,102.5c-0.2,1.2-0.4,3-0.6,4.3c-0.1,0.5-0.6,0.9-1.1,0.8c-0.2,0-0.4-0.1-0.5-0.3l-3.7-3.7
					c-0.4-0.4-0.4-1,0-1.3c0.1-0.2,0.3-0.3,0.6-0.3l4.3-0.6c0.5-0.1,1,0.3,1.1,0.8C95.4,102.4,95.4,102.5,95.3,102.5z"/>
				<path class="st2" d="M95.3,97.3c-0.2-1.2-0.4-3-0.6-4.3c-0.1-0.5-0.5-0.9-1-0.8c-0.2,0-0.4,0.1-0.6,0.3l-3.7,3.7
					c-0.4,0.4-0.4,1,0,1.3c0.1,0.2,0.3,0.3,0.6,0.3l4.3,0.6c0.5,0.1,1-0.3,1.1-0.8C95.4,97.5,95.4,97.4,95.3,97.3z"/>
				<path class="st2" d="M98.9,97.3c0.2-1.2,0.4-3,0.6-4.3c0.1-0.5,0.5-0.9,1-0.8c0.2,0,0.4,0.1,0.6,0.3l3.7,3.7
					c0.4,0.4,0.4,1,0,1.3c-0.1,0.2-0.3,0.3-0.6,0.3l-4.3,0.6c-0.5,0.1-1-0.3-1.1-0.8C98.8,97.5,98.8,97.4,98.9,97.3z"/>
				<path class="st2" d="M127.9,53.4c0,0,2.7-2.5,2.6-3.5s-6-1.8-6.8-1.5c-0.6,0.2-1.1,0.5-1.6,0.9l5.2,4.8L127.9,53.4z"/>
				<path class="st2" d="M126.6,54.7c0,0-2.5,2.7-3.5,2.6c-1-0.1-1.8-6-1.5-6.9c0.6-1.5,0.5-1.5,0.5-1.5l5.2,5.2L126.6,54.7z"/>
				<path class="st2" d="M104.2,32.2c0,0-2.7,2.5-2.6,3.5c0.1,1,6,1.8,6.9,1.5c0.6-0.2,1.1-0.5,1.6-0.9l-5.2-4.8L104.2,32.2z"/>
				<path class="st2" d="M105.5,30.9c0,0,2.5-2.7,3.5-2.6s1.8,6.1,1.5,6.9c-0.6,1.5-0.4,1.5-0.4,1.5l-5.3-5.2L105.5,30.9z"/>
				<polygon class="st2" points="108.4,36.7 122.1,50.8 125.1,54.2 126.7,54.2 124.3,49.5 109.5,34.2 				"/>
				<path class="st2" d="M104,91.3c0,0-2.7-2.5-2.6-3.5c0.1-1,6-1.8,6.9-1.5c0.6,0.2,1.1,0.6,1.6,0.9l-5.2,4.8L104,91.3z"/>
				<path class="st2" d="M105.3,92.5c0,0,2.5,2.7,3.5,2.6s1.8-6.1,1.5-6.9c-0.6-1.5-0.5-1.5-0.5-1.5l-5.2,5.2L105.3,92.5z"/>
				<path class="st2" d="M127.7,70.2c0,0,2.7,2.5,2.6,3.5c-0.1,1-6,1.8-6.9,1.5c-0.6-0.2-1.1-0.6-1.6-0.9l5.2-4.8L127.7,70.2z"/>
				<path class="st2" d="M126.4,68.8c0,0-2.5-2.7-3.5-2.6s-1.8,6.1-1.5,6.9c0.6,1.5,0.5,1.5,0.5,1.5l5.3-5.2L126.4,68.8z"/>
				<polygon class="st2" points="123.5,74.6 109.8,88.7 106.8,92.1 105.2,92.1 107.6,87.4 122.4,72.1 				"/>
				<polygon class="st2" points="109.5,68.7 108.3,66.1 109.6,63.1 107.4,62 101.8,65.7 106.7,69.7 				"/>
				<polygon class="st2" points="98.9,75.3 101.2,73.6 104.3,74.3 105,72.1 100.4,67.1 97.3,72.7 				"/>
				<polygon class="st2" points="84,55.3 85.3,57.9 83.9,60.8 86.1,62 91.8,58.3 86.9,54.3 				"/>
				<polygon class="st2" points="94.7,48.7 92.4,50.4 89.2,49.7 88.6,51.9 93.2,56.9 96.3,51.3 				"/>
				<polygon class="st2" points="89.7,75 92.3,73.7 95.2,75.1 96.4,72.9 92.6,67.2 88.6,72.1 				"/>
				<polygon class="st2" points="83.3,64.5 85,66.8 84.2,69.9 86.4,70.6 91.4,66 85.9,62.9 				"/>
				<polygon class="st2" points="104.3,48.8 101.6,50 98.7,48.7 97.5,50.9 101.2,56.5 105.3,51.7 				"/>
				<polygon class="st2" points="110.7,59.3 108.9,56.9 109.7,53.8 107.5,53.1 102.5,57.8 108,60.9 				"/>
				<ellipse class="st2" cx="96.9" cy="62.4" rx="2.7" ry="2.7"/>
				<path class="st2" d="M137.6,63.7l4.3,0.6c0.5,0.1,0.9,0.5,0.8,1c0,0.2-0.1,0.4-0.3,0.6l-3.7,3.7c-0.4,0.4-1,0.4-1.3,0
					c-0.2-0.2-0.3-0.3-0.3-0.6l-0.6-4.3c-0.1-0.5,0.3-1,0.8-1.1C137.4,63.7,137.5,63.7,137.6,63.7z"/>
				<path class="st2" d="M136.7,64.6l0.6,4.3c0.1,0.5,0.6,0.9,1.1,0.8c0.2,0,0.4-0.1,0.5-0.3l3.7-3.7c0.4-0.4,0.4-1,0-1.3
					c-0.1-0.2-0.3-0.3-0.6-0.3l-4.3-0.6c-0.5-0.1-1,0.3-1.1,0.8C136.7,64.4,136.7,64.5,136.7,64.6z"/>
				<path class="st2" d="M133.2,64.6l-0.6,4.3c-0.1,0.5-0.6,0.9-1.1,0.8c-0.2,0-0.4-0.1-0.5-0.3l-3.7-3.7c-0.4-0.4-0.4-1,0-1.3
					c0.1-0.2,0.3-0.3,0.6-0.3l4.3-0.6c0.5-0.1,1,0.3,1.1,0.8C133.2,64.4,133.2,64.5,133.2,64.6z"/>
				<path class="st2" d="M133.2,59.4l-0.6-4.3c-0.1-0.5-0.5-0.9-1-0.8c-0.2,0-0.4,0.1-0.6,0.3l-3.7,3.7c-0.4,0.4-0.4,1,0,1.3
					c0.1,0.2,0.3,0.3,0.6,0.3l4.3,0.6c0.5,0.1,1-0.3,1.1-0.8C133.2,59.6,133.2,59.5,133.2,59.4z"/>
				<path class="st2" d="M136.7,59.4l0.6-4.3c0.1-0.5,0.5-0.9,1-0.8c0.2,0,0.4,0.1,0.6,0.3l3.7,3.7c0.4,0.4,0.4,1,0,1.3
					c-0.1,0.2-0.3,0.3-0.6,0.3l-4.3,0.6c-0.5,0.1-1-0.3-1.1-0.8C136.7,59.6,136.7,59.5,136.7,59.4z"/>
				<path class="st2" d="M165.7,15.5c0,0,2.7-2.5,2.6-3.5c-0.1-1-6-1.8-6.9-1.5c-0.6,0.2-1.1,0.5-1.6,0.9l5.2,4.8L165.7,15.5z"/>
				<path class="st2" d="M164.4,16.8c0,0-2.5,2.7-3.5,2.6c-1-0.1-1.8-6-1.5-6.9c0.6-1.5,0.5-1.5,0.5-1.5l5.2,5.2L164.4,16.8z"/>
				<path class="st2" d="M142-5.7c0,0-2.7,2.5-2.6,3.5c0.1,1,6,1.8,6.9,1.5c0.6-0.2,1.1-0.5,1.6-0.9l-5.2-4.8L142-5.7z"/>
				<path class="st2" d="M143.3-7c0,0,2.5-2.7,3.5-2.6c1,0.1,1.8,6,1.5,6.9c-0.6,1.5-0.5,1.5-0.5,1.5l-5.2-5.2L143.3-7z"/>
				<polygon class="st2" points="146.2,-1.2 159.9,12.9 162.9,16.2 164.5,16.3 162.2,11.6 147.3,-3.7 				"/>
				<path class="st2" d="M141.8,53.4c0,0-2.7-2.5-2.6-3.5c0.1-1,6-1.8,6.8-1.5c0.6,0.2,1.1,0.5,1.6,0.9l-5.2,4.8L141.8,53.4z"/>
				<path class="st2" d="M143.1,54.7c0,0,2.5,2.7,3.5,2.6c1-0.1,1.8-6,1.5-6.9c-0.6-1.5-0.5-1.5-0.5-1.5l-5.2,5.2L143.1,54.7z"/>
				<path class="st2" d="M165.5,32.2c0,0,2.7,2.5,2.6,3.5c-0.1,1-6,1.8-6.9,1.5c-0.6-0.2-1.1-0.5-1.6-0.9l5.2-4.8L165.5,32.2z"/>
				<path class="st2" d="M164.2,30.9c0,0-2.5-2.7-3.5-2.6c-1,0.1-1.8,6.1-1.5,6.9c0.6,1.5,0.4,1.5,0.4,1.5l5.3-5.2L164.2,30.9z"/>
				<polygon class="st2" points="161.4,36.7 147.6,50.8 144.6,54.2 143,54.2 145.4,49.5 160.2,34.2 				"/>
				<polygon class="st2" points="147.4,30.8 146.1,28.2 147.4,25.3 145.3,24.1 139.6,27.8 144.5,31.9 				"/>
				<polygon class="st2" points="136.7,37.4 139,35.7 142.1,36.4 142.8,34.2 138.2,29.2 135.1,34.8 				"/>
				<polygon class="st2" points="121.8,17.4 123.1,20 121.7,22.9 123.9,24.1 129.6,20.4 124.7,16.4 				"/>
				<polygon class="st2" points="132.5,10.8 130.2,12.6 127.1,11.7 126.4,14 131,19 134.1,13.4 				"/>
				<polygon class="st2" points="127.5,37.1 130.1,35.8 133,37.2 134.2,35 130.5,29.3 126.4,34.2 				"/>
				<polygon class="st2" points="121.1,26.6 122.8,28.9 122,32 124.2,32.8 129.3,28.1 123.7,25 				"/>
				<polygon class="st2" points="142.1,10.9 139.4,12.1 136.5,10.8 135.4,13 139.1,18.6 143.1,13.8 				"/>
				<polygon class="st2" points="148.5,21.4 146.7,19 147.5,15.9 145.3,15.2 140.3,19.9 145.8,23 				"/>
				<ellipse class="st2" cx="134.7" cy="24.5" rx="2.7" ry="2.7"/>
				<path class="st2" d="M175.4,25.8l4.3,0.6c0.5,0.1,0.9,0.5,0.8,1c0,0.2-0.1,0.4-0.3,0.6l-3.7,3.7c-0.4,0.4-1,0.4-1.3,0
					c-0.2-0.2-0.3-0.3-0.3-0.6l-0.6-4.3c-0.1-0.5,0.3-1,0.8-1.1C175.3,25.8,175.3,25.8,175.4,25.8z"/>
				<path class="st2" d="M174.5,26.7c0.2,1.2,0.4,3,0.6,4.3c0.1,0.5,0.6,0.9,1.1,0.8c0.2,0,0.4-0.1,0.5-0.3l3.7-3.7
					c0.4-0.4,0.4-1,0-1.3c-0.1-0.2-0.3-0.3-0.6-0.3l-4.3-0.6c-0.5-0.1-1,0.3-1.1,0.8C174.5,26.6,174.5,26.6,174.5,26.7z"/>
				<path class="st2" d="M171,26.7c-0.2,1.2-0.4,3-0.6,4.3c-0.1,0.5-0.5,0.9-1,0.8c-0.2,0-0.4-0.1-0.6-0.3l-3.7-3.7
					c-0.4-0.4-0.3-1,0-1.4c0.1-0.1,0.3-0.2,0.5-0.3l4.3-0.6c0.5-0.1,1,0.3,1.1,0.8C171,26.6,171,26.6,171,26.7z"/>
				<path class="st2" d="M171,21.5l-0.6-4.5c-0.1-0.5-0.6-0.9-1.1-0.8c-0.2,0-0.4,0.1-0.5,0.3l-3.7,3.8c-0.4,0.4-0.3,1,0,1.4
					c0.1,0.1,0.3,0.2,0.5,0.3l4.3,0.6c0.5,0.1,1-0.3,1.1-0.8C171,21.7,171,21.6,171,21.5z"/>
				<path class="st2" d="M174.5,21.5l0.6-4.5c0.1-0.5,0.6-0.9,1.2-0.8c0.2,0,0.3,0.1,0.5,0.2l3.7,3.7c0.4,0.4,0.4,1,0,1.3
					c-0.1,0.2-0.3,0.3-0.6,0.3l-4.3,0.6C175,22.5,174.6,22.2,174.5,21.5C174.5,21.6,174.5,21.6,174.5,21.5z"/>
				<path class="st2" d="M203.6-22.4c0,0,2.7-2.5,2.6-3.5s-6-1.8-6.9-1.5c-0.6,0.2-1.1,0.5-1.6,0.9l5.2,4.8L203.6-22.4z"/>
				<path class="st2" d="M202.2-21.1c0,0-2.5,2.7-3.5,2.6c-1-0.1-1.8-6-1.5-6.9c0.6-1.5,0.4-1.5,0.4-1.5l5.3,5.2L202.2-21.1z"/>
				<path class="st2" d="M179.8-43.5c0,0-2.7,2.5-2.6,3.5c0.1,1,6,1.8,6.9,1.5c0.6-0.2,1.1-0.5,1.5-0.9l-5.2-4.8L179.8-43.5z"/>
				<path class="st2" d="M181.1-44.9c0,0,2.5-2.7,3.5-2.6c1,0.1,1.8,6,1.5,6.9c-0.6,1.5-0.5,1.5-0.5,1.5l-5.2-5.2L181.1-44.9z"/>
				<polygon class="st2" points="184,-39.1 197.7,-25 200.7,-21.6 202.3,-21.6 200,-26.3 185.1,-41.6 				"/>
				<path class="st2" d="M179.6,15.5c0,0-2.7-2.5-2.6-3.5s6-1.8,6.9-1.5c0.6,0.2,1.1,0.5,1.5,0.9l-5.2,4.8L179.6,15.5z"/>
				<path class="st2" d="M180.9,16.8c0,0,2.5,2.7,3.5,2.6c1-0.1,1.8-6,1.5-6.9c-0.6-1.5-0.5-1.5-0.5-1.5l-5.2,5.2L180.9,16.8z"/>
				<path class="st2" d="M203.4-5.7c0,0,2.7,2.5,2.6,3.5s-6,1.8-6.9,1.5c-0.6-0.2-1.1-0.5-1.5-0.9l5.2-4.8L203.4-5.7z"/>
				<path class="st2" d="M202-7c0,0-2.5-2.7-3.5-2.6c-1,0.1-1.8,6-1.5,6.9c0.6,1.5,0.5,1.5,0.5,1.5l5.2-5.2L202-7z"/>
				<polygon class="st2" points="199.2,-1.2 185.4,12.9 182.4,16.2 180.9,16.3 183.2,11.6 198,-3.7 				"/>
				<polygon class="st2" points="185.2,-7.1 183.9,-9.7 185.3,-12.6 183.1,-13.8 177.4,-10.1 182.3,-6 				"/>
				<polygon class="st2" points="174.5,-0.5 176.9,-2.2 180,-1.4 180.6,-3.7 176,-8.7 172.9,-3.1 				"/>
				<polygon class="st2" points="159.7,-20.5 160.9,-17.9 159.6,-14.9 161.7,-13.8 167.4,-17.5 162.5,-21.6 				"/>
				<polygon class="st2" points="170.3,-27.1 168,-25.3 164.9,-26.1 164.2,-23.9 168.8,-18.9 171.9,-24.4 				"/>
				<polygon class="st2" points="165.3,-0.8 167.9,-2.1 170.8,-0.7 172,-2.9 168.3,-8.6 164.3,-3.7 				"/>
				<polygon class="st2" points="158.9,-11.3 160.6,-9 159.8,-5.9 162.1,-5.2 167.1,-9.8 161.5,-12.9 				"/>
				<polygon class="st2" points="179.9,-27 177.3,-25.8 174.4,-27.1 173.2,-24.9 176.9,-19.2 180.9,-24.1 				"/>
				<polygon class="st2" points="186.3,-16.5 184.6,-18.9 185.4,-22 183.1,-22.7 178.1,-18 183.7,-14.9 				"/>
				<ellipse class="st2" cx="172.5" cy="-13.4" rx="2.7" ry="2.7"/>
				<path class="st2" d="M213.2-12.1l4.5,0.6c0.5,0.1,0.9,0.6,0.8,1.1c0,0.2-0.1,0.4-0.3,0.5l-3.7,3.7c-0.4,0.4-1,0.4-1.3,0
					c-0.2-0.2-0.3-0.3-0.3-0.6l-0.6-4.3c-0.1-0.5,0.3-1,0.8-1.1C213.1-12.1,213.2-12.1,213.2-12.1z"/>
				<path class="st2" d="M212.3-11.2c0.2,1.2,0.4,3,0.6,4.3c0.1,0.5,0.5,0.9,1,0.8c0.2,0,0.4-0.1,0.6-0.3l3.7-3.7
					c0.4-0.4,0.3-1,0-1.4c-0.1-0.1-0.3-0.2-0.5-0.3l-4.3-0.6c-0.5-0.1-1,0.3-1.1,0.9C212.3-11.3,212.3-11.2,212.3-11.2z"/>
				<path class="st2" d="M208.8-11.2c-0.2,1.2-0.4,3-0.6,4.3c-0.1,0.5-0.5,0.9-1,0.8c-0.2,0-0.4-0.1-0.6-0.3l-3.7-3.7
					c-0.4-0.4-0.4-1,0-1.3c0.1-0.2,0.3-0.3,0.5-0.3l4.3-0.6c0.5-0.1,1,0.3,1.1,0.9C208.8-11.3,208.8-11.2,208.8-11.2z"/>
				<path class="st2" d="M208.8-16.4c-0.2-1.2-0.4-3-0.6-4.3c-0.1-0.5-0.5-0.9-1-0.8c-0.2,0-0.4,0.1-0.6,0.3l-3.7,3.7
					c-0.4,0.4-0.4,1,0,1.3c0.1,0.2,0.3,0.3,0.5,0.3l4.3,0.6c0.5,0.1,1-0.3,1.1-0.9C208.8-16.2,208.8-16.3,208.8-16.4z"/>
				<path class="st2" d="M212.3-16.4c0.2-1.2,0.4-3,0.6-4.3c0.1-0.5,0.5-0.9,1-0.8c0.2,0,0.4,0.1,0.6,0.3l3.7,3.7
					c0.4,0.4,0.3,1,0,1.4c-0.1,0.1-0.3,0.2-0.5,0.3l-4.3,0.6c-0.5,0.1-1-0.3-1.1-0.9C212.3-16.2,212.3-16.3,212.3-16.4z"/>
				<path class="st2" d="M23.9,177.6l4.3,0.6c0.5,0,0.9,0.5,0.9,1c0,0.2-0.1,0.5-0.3,0.6l-3.7,3.7c-0.4,0.4-1,0.4-1.3,0
					c-0.2-0.1-0.3-0.3-0.3-0.5l-0.6-4.3c-0.1-0.5,0.3-1,0.8-1.1C23.7,177.6,23.8,177.6,23.9,177.6z"/>
				<path class="st2" d="M22.9,178.6l0.6,4.3c0.1,0.5,0.6,0.9,1.1,0.8c0.2,0,0.4-0.1,0.5-0.3l3.6-3.6c0.4-0.4,0.4-1,0-1.3
					c-0.1-0.2-0.3-0.3-0.6-0.3l-4.2-0.6c-0.5-0.1-1,0.3-1.1,0.8C22.9,178.5,22.9,178.5,22.9,178.6z"/>
				<path class="st2" d="M19.4,178.6l-0.6,4.3c-0.1,0.5-0.6,0.9-1.1,0.8c-0.2,0-0.4-0.1-0.5-0.3l-3.7-3.6c-0.4-0.4-0.4-1,0-1.3
					c0.1-0.2,0.3-0.3,0.6-0.3l4.3-0.6c0.5-0.1,1,0.3,1.1,0.8C19.4,178.5,19.4,178.5,19.4,178.6z"/>
				<path class="st2" d="M19.4,173.4c-0.2-1.2-0.4-3-0.6-4.3c-0.1-0.5-0.5-0.9-1-0.8c-0.2,0-0.4,0.1-0.6,0.3l-3.7,3.7
					c-0.4,0.4-0.4,1,0,1.3c0.1,0.2,0.3,0.3,0.6,0.3l4.3,0.6c0.5,0.1,1-0.3,1.1-0.8C19.4,173.6,19.4,173.5,19.4,173.4z"/>
				<path class="st2" d="M22.9,173.4c0.2-1.2,0.4-3,0.6-4.3c0.1-0.5,0.5-0.9,1-0.8c0.2,0,0.4,0.1,0.6,0.3l3.6,3.7
					c0.4,0.4,0.4,1,0,1.3c-0.1,0.2-0.3,0.3-0.6,0.3l-4.3,0.6c-0.5,0-1-0.3-1-0.9C22.9,173.5,22.9,173.5,22.9,173.4z"/>
				<path class="st2" d="M90.4,167.4c0,0,2.7-2.5,2.6-3.5c-0.1-1-6-1.8-6.9-1.5c-0.6,0.2-1.1,0.6-1.6,0.9l5.2,4.8L90.4,167.4z"/>
				<path class="st2" d="M89.1,168.7c0,0-2.5,2.7-3.5,2.6c-1-0.1-1.8-6-1.5-6.9c0.6-1.5,0.5-1.5,0.5-1.5l5.2,5.2L89.1,168.7z"/>
				<path class="st2" d="M66.6,146.3c0,0-2.7,2.5-2.6,3.5c0.1,1,6,1.8,6.9,1.5c0.6-0.2,1.1-0.5,1.6-0.9l-5.2-4.8L66.6,146.3z"/>
				<path class="st2" d="M67.9,144.9c0,0,2.5-2.7,3.5-2.6c1,0.1,1.8,6.1,1.5,6.9c-0.6,1.5-0.5,1.5-0.5,1.5l-5.2-5.2L67.9,144.9z"/>
				<polygon class="st2" points="70.8,150.7 84.5,164.8 87.5,168.1 89.1,168.1 86.8,163.4 71.9,148.2 				"/>
				<path class="st2" d="M52,205.8c0,0,2.7-2.5,2.6-3.5c-0.1-1-6-1.8-6.9-1.5c-0.6,0.2-1.1,0.6-1.6,0.9l5.2,4.8L52,205.8z"/>
				<path class="st2" d="M50.7,207.2c0,0-2.5,2.7-3.5,2.6c-1-0.1-1.8-6.1-1.5-6.9c0.6-1.5,0.5-1.5,0.5-1.5l5.2,5.2L50.7,207.2z"/>
				<path class="st2" d="M28.2,184.7c0,0-2.7,2.5-2.6,3.5c0.1,1,6,1.8,6.9,1.5c0.6-0.2,1.1-0.6,1.6-0.9l-5.2-4.8L28.2,184.7z"/>
				<path class="st2" d="M29.6,183.3c0,0,2.5-2.7,3.5-2.6c1,0.1,1.8,6.1,1.5,6.9c-0.6,1.5-0.5,1.5-0.5,1.5l-5.2-5.2L29.6,183.3z"/>
				<polygon class="st2" points="32.4,189.2 46.2,203.2 49.2,206.6 50.7,206.6 48.4,201.9 33.6,186.6 				"/>
				<path class="st2" d="M66.4,205.3c0,0-2.7-2.5-2.6-3.5c0.1-1,6-1.8,6.9-1.5c0.6,0.2,1.1,0.5,1.5,0.9l-5.2,4.8L66.4,205.3z"/>
				<path class="st2" d="M67.7,206.6c0,0,2.5,2.7,3.5,2.6c1-0.1,1.8-6.1,1.5-6.9c-0.6-1.5-0.5-1.5-0.5-1.5l-5.2,5.2L67.7,206.6z"/>
				<path class="st2" d="M90.2,184.1c0,0,2.7,2.5,2.6,3.5s-6,1.8-6.9,1.5c-0.6-0.2-1.1-0.6-1.6-0.9l5.2-4.8L90.2,184.1z"/>
				<path class="st2" d="M88.9,182.8c0,0-2.5-2.7-3.5-2.6c-1,0.1-1.8,6.1-1.5,6.9c0.6,1.5,0.4,1.5,0.4,1.5l5.3-5.2L88.9,182.8z"/>
				<polygon class="st2" points="86,188.6 72.3,202.7 69.3,206 67.7,206 70,201.3 84.8,186.1 				"/>
				<polygon class="st2" points="72,182.7 70.7,180 72.1,177.1 69.9,175.9 64.2,179.7 69.1,183.7 				"/>
				<polygon class="st2" points="61.3,189.2 63.7,187.5 66.8,188.3 67.5,186.1 62.8,181.1 59.7,186.6 				"/>
				<polygon class="st2" points="46.5,169.3 47.7,171.9 46.4,174.8 48.6,176 54.2,172.3 49.4,168.2 				"/>
				<polygon class="st2" points="57.2,162.7 54.8,164.4 51.7,163.6 51,165.8 55.7,170.9 58.7,165.3 				"/>
				<polygon class="st2" points="52.1,189 54.7,187.7 57.6,189 58.8,186.8 55.1,181.2 51.1,186.1 				"/>
				<polygon class="st2" points="45.7,178.4 47.5,180.8 46.7,183.9 48.9,184.6 53.9,179.9 48.3,176.9 				"/>
				<polygon class="st2" points="66.7,162.8 64.1,164 61.2,162.6 60,164.8 63.7,170.5 67.8,165.6 				"/>
				<polygon class="st2" points="73.1,173.2 71.4,170.9 72.2,167.8 70,167.1 64.9,171.8 70.5,174.8 				"/>
				<ellipse class="st2" cx="59.3" cy="176.4" rx="2.7" ry="2.7"/>
				<path class="st2" d="M100.1,177.6l4.3,0.6c0.5,0.1,0.9,0.6,0.8,1.1c0,0.2-0.1,0.4-0.3,0.5l-3.7,3.7c-0.4,0.4-1,0.4-1.3,0
					c-0.2-0.1-0.3-0.3-0.3-0.5l-0.6-4.3c-0.1-0.5,0.3-1,0.8-1.1C99.9,177.6,100,177.6,100.1,177.6z"/>
				<path class="st2" d="M99.1,178.6c0.2,1.2,0.4,3,0.6,4.3c0.1,0.5,0.6,0.9,1.1,0.8c0.2,0,0.4-0.1,0.5-0.3l3.7-3.6
					c0.4-0.4,0.4-1,0-1.3c-0.1-0.2-0.3-0.3-0.6-0.3l-4.2-0.6c-0.5-0.1-1,0.2-1.1,0.7C99.1,178.4,99.1,178.5,99.1,178.6z"/>
				<path class="st2" d="M95.6,178.6l-0.6,4.3c-0.1,0.5-0.6,0.9-1.1,0.8c-0.2,0-0.4-0.1-0.5-0.3l-3.7-3.6c-0.4-0.4-0.3-1,0-1.4
					c0.1-0.1,0.3-0.2,0.5-0.3l4.3-0.6c0.5-0.1,1,0.3,1.1,0.8C95.6,178.5,95.6,178.5,95.6,178.6z"/>
				<path class="st2" d="M95.6,173.4c-0.2-1.2-0.4-3-0.6-4.3c-0.1-0.5-0.5-0.9-1-0.8c-0.2,0-0.4,0.1-0.6,0.3l-3.7,3.7
					c-0.4,0.4-0.3,1,0,1.4c0.1,0.1,0.3,0.2,0.5,0.3l4.3,0.6c0.5,0.1,1-0.3,1.1-0.8C95.6,173.6,95.6,173.5,95.6,173.4z"/>
				<path class="st2" d="M99.1,173.4c0.2-1.2,0.4-3,0.6-4.3c0.1-0.5,0.5-0.9,1-0.8c0.2,0,0.4,0.1,0.6,0.3l3.7,3.7
					c0.4,0.4,0.4,1,0,1.3c-0.1,0.2-0.3,0.3-0.6,0.3l-4.3,0.6c-0.5,0.1-1-0.3-1.1-0.8C99.1,173.5,99.1,173.5,99.1,173.4z"/>
				<path class="st2" d="M128.2,129.5c0,0,2.7-2.5,2.6-3.5c-0.1-1-6-1.8-6.9-1.5c-0.6,0.2-1.1,0.5-1.5,0.9l5.2,4.8L128.2,129.5z"/>
				<path class="st2" d="M126.9,130.8c0,0-2.5,2.7-3.5,2.6c-1-0.1-1.8-6-1.5-6.9c0.6-1.5,0.4-1.5,0.4-1.5l5.3,5.2L126.9,130.8z"/>
				<path class="st2" d="M104.4,108.2c0,0-2.7,2.5-2.6,3.5c0.1,1,6,1.8,6.9,1.5c0.6-0.2,1.1-0.5,1.5-0.9l-5.2-4.8L104.4,108.2z"/>
				<path class="st2" d="M105.8,107c0,0,2.5-2.7,3.5-2.6c1,0.1,1.8,6,1.5,6.9c-0.6,1.5-0.5,1.5-0.5,1.5l-5.2-5.2L105.8,107z"/>
				<polygon class="st2" points="108.6,112.8 122.4,126.9 125.3,130.2 126.9,130.2 124.6,125.6 109.8,110.3 				"/>
				<path class="st2" d="M104.2,167.4c0,0-2.7-2.5-2.6-3.5s6-1.8,6.9-1.5c0.6,0.2,1.1,0.5,1.5,0.9l-5.2,4.8L104.2,167.4z"/>
				<path class="st2" d="M105.6,168.7c0,0,2.5,2.7,3.5,2.6c1-0.1,1.8-6,1.5-6.9c-0.6-1.5-0.5-1.5-0.5-1.5l-5.2,5.2L105.6,168.7z"/>
				<path class="st2" d="M128,146.3c0,0,2.7,2.5,2.6,3.5c-0.1,1-6,1.8-6.9,1.5c-0.6-0.2-1.1-0.5-1.5-0.9l5.2-4.8L128,146.3z"/>
				<path class="st2" d="M126.7,144.9c0,0-2.5-2.7-3.5-2.6c-1,0.1-1.8,6.1-1.5,6.9c0.6,1.5,0.5,1.5,0.5,1.5l5.2-5.2L126.7,144.9z"/>
				<polygon class="st2" points="123.8,150.7 110.1,164.8 107.1,168.1 105.5,168.1 107.8,163.4 122.7,148.2 				"/>
				<polygon class="st2" points="109.8,144.7 108.6,142.1 109.9,139.2 107.7,138 102.1,141.7 106.9,145.8 				"/>
				<polygon class="st2" points="99.1,151.4 101.5,149.6 104.6,150.4 105.3,148.2 100.6,143.2 97.6,148.7 				"/>
				<polygon class="st2" points="84.3,131.4 85.6,134 84.2,136.9 86.4,138.1 92,134.4 87.2,130.3 				"/>
				<polygon class="st2" points="95,124.8 92.6,126.5 89.5,125.7 88.8,127.9 93.5,133 96.5,127.4 				"/>
				<polygon class="st2" points="89.9,151.1 92.6,149.8 95.5,151.2 96.6,149 92.9,143.3 88.9,148.2 				"/>
				<polygon class="st2" points="83.5,140.6 85.3,142.9 84.5,146 86.7,146.7 91.7,142.1 86.2,139 				"/>
				<polygon class="st2" points="104.5,124.8 101.9,126.1 99,124.7 97.8,126.9 101.5,132.6 105.6,127.7 				"/>
				<polygon class="st2" points="110.9,135.3 109.2,133 110,129.9 107.8,129.2 102.8,133.8 108.3,136.9 				"/>
				<ellipse class="st2" cx="97.2" cy="138.5" rx="2.7" ry="2.7"/>
				<path class="st2" d="M137.9,139.8l4.3,0.6c0.5,0.1,0.9,0.6,0.8,1.1c0,0.2-0.1,0.4-0.3,0.5l-3.7,3.7c-0.4,0.4-1,0.4-1.3,0
					c-0.2-0.2-0.3-0.3-0.3-0.6l-0.6-4.3c-0.1-0.5,0.3-1,0.8-1.1C137.7,139.7,137.8,139.7,137.9,139.8z"/>
				<path class="st2" d="M136.9,140.7c0.2,1.2,0.4,3,0.6,4.3c0.1,0.5,0.5,0.9,1,0.8c0.2,0,0.4-0.1,0.6-0.3l3.7-3.7
					c0.4-0.4,0.3-1,0-1.4c-0.1-0.1-0.3-0.2-0.5-0.3l-4.3-0.6c-0.5-0.1-1,0.3-1.1,0.8C136.9,140.5,136.9,140.6,136.9,140.7z"/>
				<path class="st2" d="M133.5,140.7c-0.2,1.2-0.4,3-0.6,4.3c-0.1,0.5-0.5,0.9-1,0.8c-0.2,0-0.4-0.1-0.6-0.3l-3.7-3.8
					c-0.4-0.4-0.4-1,0-1.3c0.1-0.2,0.3-0.3,0.5-0.3l4.3-0.6c0.5-0.1,1,0.3,1.1,0.8C133.5,140.5,133.5,140.6,133.5,140.7z"/>
				<path class="st2" d="M133.5,135.5c-0.2-1.2-0.4-3-0.6-4.3c-0.1-0.5-0.6-0.9-1.1-0.8c-0.2,0-0.4,0.1-0.5,0.3l-3.7,3.7
					c-0.4,0.4-0.4,1,0,1.3c0.1,0.2,0.3,0.3,0.5,0.3l4.3,0.6c0.5,0.1,1-0.3,1.1-0.8C133.5,135.7,133.5,135.6,133.5,135.5z"/>
				<path class="st2" d="M136.9,135.5c0.2-1.2,0.4-3,0.6-4.3c0.1-0.5,0.6-0.9,1.1-0.8c0.2,0,0.4,0.1,0.5,0.3l3.7,3.7
					c0.4,0.4,0.3,1,0,1.4c-0.1,0.1-0.3,0.2-0.5,0.3l-4.3,0.6c-0.5,0.1-1-0.3-1.1-0.8C136.9,135.7,136.9,135.6,136.9,135.5z"/>
				<path class="st2" d="M166,91.6c0,0,2.7-2.5,2.6-3.5c-0.1-1-6-1.8-6.9-1.5c-0.6,0.2-1.1,0.5-1.5,0.9l5.2,4.8L166,91.6z"/>
				<path class="st2" d="M164.7,92.9c0,0-2.5,2.7-3.5,2.6c-1-0.1-1.8-6-1.5-6.9c0.6-1.5,0.5-1.5,0.5-1.5l5.2,5.2L164.7,92.9z"/>
				<path class="st2" d="M142.3,70.4c0,0-2.7,2.5-2.6,3.5s6,1.8,6.9,1.5c0.6-0.2,1.1-0.5,1.5-0.9l-5.2-4.8L142.3,70.4z"/>
				<path class="st2" d="M143.6,69.1c0,0,2.5-2.7,3.5-2.6c1,0.1,1.8,6,1.5,6.9c-0.6,1.5-0.5,1.5-0.5,1.5l-5.2-5.2L143.6,69.1z"/>
				<polygon class="st2" points="146.4,74.9 160.2,89 163.2,92.3 164.7,92.3 162.4,87.7 147.6,72.4 				"/>
				<path class="st2" d="M142.1,129.5c0,0-2.7-2.5-2.6-3.5c0.1-1,6-1.8,6.9-1.5c0.6,0.2,1.1,0.5,1.5,0.9l-5.1,4.8L142.1,129.5z"/>
				<path class="st2" d="M143.4,130.8c0,0,2.5,2.7,3.5,2.6c1-0.1,1.8-6,1.5-6.9c-0.6-1.5-0.5-1.5-0.5-1.5l-5.2,5.2L143.4,130.8z"/>
				<path class="st2" d="M165.8,108.2c0,0,2.7,2.5,2.6,3.5c-0.1,1-6,1.8-6.9,1.5c-0.6-0.2-1.1-0.5-1.5-0.9l5.2-4.8L165.8,108.2z"/>
				<path class="st2" d="M164.5,107c0,0-2.5-2.7-3.5-2.6c-1,0.1-1.8,6-1.5,6.9c0.6,1.5,0.5,1.5,0.5,1.5l5.2-5.2L164.5,107z"/>
				<polygon class="st2" points="161.6,112.8 147.9,126.9 144.9,130.2 143.3,130.2 145.6,125.6 160.5,110.3 				"/>
				<polygon class="st2" points="147.6,106.9 146.4,104.2 147.7,101.3 145.5,100.1 139.9,103.9 144.8,107.9 				"/>
				<polygon class="st2" points="137,113.5 139.3,111.7 142.4,112.5 143.1,110.3 138.5,105.3 135.4,110.8 				"/>
				<polygon class="st2" points="122.1,93.5 123.4,96.1 122,99 124.2,100.2 129.9,96.5 125,92.4 				"/>
				<polygon class="st2" points="132.8,86.9 130.4,88.6 127.3,87.8 126.6,90 131.3,95.1 134.4,89.5 				"/>
				<polygon class="st2" points="127.8,113.1 130.4,111.9 133.3,113.3 134.5,111.1 130.8,105.4 126.7,110.3 				"/>
				<polygon class="st2" points="121.4,102.7 123.1,105 122.3,108.1 124.5,108.8 129.5,104.1 124,101.1 				"/>
				<polygon class="st2" points="142.3,86.9 139.7,88.2 136.8,86.9 135.6,89.1 139.4,94.7 143.4,89.8 				"/>
				<polygon class="st2" points="148.7,97.4 147,95.1 147.8,92 145.6,91.3 140.6,95.9 146.1,99 				"/>
				<ellipse class="st2" cx="135" cy="100.6" rx="2.7" ry="2.7"/>
				<path class="st2" d="M175.7,101.9l4.3,0.6c0.5,0.1,0.9,0.5,0.8,1c0,0.2-0.1,0.4-0.3,0.6l-3.7,3.7c-0.4,0.4-1,0.4-1.3,0
					c-0.2-0.2-0.3-0.3-0.3-0.6l-0.6-4.3c-0.1-0.5,0.3-1,0.8-1.1C175.5,101.8,175.6,101.8,175.7,101.9z"/>
				<path class="st2" d="M174.8,102.8c0.2,1.2,0.4,3,0.6,4.3c0.1,0.5,0.5,0.9,1,0.8c0.2,0,0.4-0.1,0.6-0.3l3.8-3.7
					c0.4-0.4,0.3-1,0-1.4c-0.1-0.1-0.3-0.2-0.5-0.3l-4.3-0.6c-0.5-0.1-1,0.2-1.1,0.7C174.8,102.5,174.8,102.7,174.8,102.8z"/>
				<path class="st2" d="M171.3,102.8c-0.2,1.2-0.4,3-0.6,4.3c-0.1,0.5-0.5,0.9-1,0.8c-0.2,0-0.4-0.1-0.6-0.3l-3.7-3.7
					c-0.4-0.4-0.4-1,0-1.3c0.1-0.2,0.3-0.3,0.6-0.3l4.3-0.6c0.5-0.1,1,0.3,1.1,0.8C171.3,102.6,171.3,102.7,171.3,102.8z"/>
				<path class="st2" d="M171.3,97.6c-0.2-1.2-0.4-3-0.6-4.3c-0.1-0.5-0.6-0.9-1.1-0.8c-0.2,0-0.4,0.1-0.5,0.3l-3.7,3.7
					c-0.4,0.4-0.4,1,0,1.3c0.1,0.2,0.3,0.3,0.6,0.3l4.3,0.6c0.5,0.1,1-0.3,1.1-0.8C171.3,97.8,171.3,97.7,171.3,97.6z"/>
				<path class="st2" d="M174.8,97.6c0.2-1.2,0.4-3,0.6-4.3c0.1-0.5,0.6-0.9,1.1-0.8c0.2,0,0.4,0.1,0.5,0.3l3.7,3.7
					c0.4,0.4,0.3,1,0,1.4c-0.1,0.1-0.3,0.2-0.5,0.3l-4.3,0.6c-0.5,0.1-1-0.3-1.1-0.8C174.8,97.8,174.8,97.7,174.8,97.6z"/>
				<path class="st2" d="M203.8,53.7c0,0,2.7-2.5,2.6-3.5s-6-1.8-6.9-1.5c-0.6,0.2-1.1,0.5-1.5,0.9l5.2,4.9L203.8,53.7z"/>
				<path class="st2" d="M202.5,55c0,0-2.5,2.7-3.5,2.6c-1-0.1-1.8-6-1.5-6.9c0.6-1.5,0.5-1.5,0.5-1.5l5.2,5.2L202.5,55z"/>
				<path class="st2" d="M180.1,32.5c0,0-2.7,2.5-2.6,3.5c0.1,1,6,1.8,6.9,1.5c0.6-0.2,1.1-0.5,1.5-0.9l-5.1-4.8L180.1,32.5z"/>
				<path class="st2" d="M181.4,31.2c0,0,2.5-2.7,3.5-2.6c1,0.1,1.8,6,1.5,6.9c-0.6,1.5-0.4,1.5-0.4,1.5l-5.2-5.2L181.4,31.2z"/>
				<polygon class="st2" points="184.3,37 198,51.1 201,54.4 202.6,54.4 200.3,49.7 185.4,34.5 				"/>
				<path class="st2" d="M179.9,91.6c0,0-2.7-2.5-2.6-3.5c0.1-1,6-1.8,6.9-1.5c0.6,0.2,1.1,0.5,1.6,0.9l-5.2,4.8L179.9,91.6z"/>
				<path class="st2" d="M181.2,92.9c0,0,2.5,2.7,3.5,2.6c1-0.1,1.8-6,1.5-6.9c-0.6-1.5-0.4-1.5-0.4-1.5l-5.2,5.2L181.2,92.9z"/>
				<path class="st2" d="M203.7,70.4c0,0,2.7,2.5,2.6,3.5s-6,1.8-6.8,1.5c-0.6-0.2-1.1-0.5-1.6-0.9l5.3-4.8L203.7,70.4z"/>
				<path class="st2" d="M202.3,69.1c0,0-2.5-2.7-3.5-2.6c-1,0.1-1.8,6-1.5,6.9c0.6,1.5,0.5,1.5,0.5,1.5l5.2-5.2L202.3,69.1z"/>
				<polygon class="st2" points="199.5,74.9 185.7,89 182.7,92.3 181.1,92.3 183.5,87.7 198.3,72.4 				"/>
				<polygon class="st2" points="185.4,69 184.2,66.3 185.6,63.4 183.4,62.2 177.7,66 182.6,70 				"/>
				<polygon class="st2" points="174.8,75.6 177.1,73.8 180.2,74.6 180.9,72.4 176.3,67.4 173.2,72.9 				"/>
				<polygon class="st2" points="159.9,55.6 161.2,58.2 159.8,61.1 162,62.3 167.7,58.6 162.8,54.5 				"/>
				<polygon class="st2" points="170.6,49 168.3,50.7 165.2,49.9 164.5,52.1 169.1,57.2 172.2,51.6 				"/>
				<polygon class="st2" points="165.6,75.3 168.2,74 171.1,75.4 172.3,73.2 168.6,67.5 164.5,72.4 				"/>
				<polygon class="st2" points="159.2,64.8 160.9,67.1 160.1,70.2 162.3,70.9 167.4,66.3 161.8,63.2 				"/>
				<polygon class="st2" points="180.2,49.1 177.6,50.3 174.6,49 173.5,51.2 177.2,56.8 181.2,51.9 				"/>
				<polygon class="st2" points="186.6,59.6 184.8,57.2 185.6,54.1 183.4,53.4 178.4,58.1 183.9,61.1 				"/>
				<ellipse class="st2" cx="172.8" cy="62.7" rx="2.7" ry="2.7"/>
				<path class="st2" d="M213.5,64l4.3,0.6c0.5,0.1,0.9,0.5,0.8,1c0,0.2-0.1,0.4-0.3,0.6l-3.7,3.7c-0.4,0.4-1,0.4-1.4,0
					c-0.1-0.1-0.2-0.3-0.3-0.5l-0.6-4.3c-0.1-0.5,0.3-1,0.8-1.1C213.3,64,213.4,64,213.5,64z"/>
				<path class="st2" d="M212.6,64.9c0.2,1.2,0.4,3,0.6,4.3c0.1,0.5,0.5,0.9,1,0.8c0.2,0,0.4-0.1,0.6-0.3l3.7-3.7
					c0.4-0.4,0.4-1,0-1.3c-0.1-0.2-0.3-0.3-0.6-0.3l-4.3-0.6c-0.5-0.1-1,0.3-1.1,0.8C212.6,64.7,212.6,64.8,212.6,64.9z"/>
				<path class="st2" d="M209.1,64.9c-0.2,1.2-0.4,3-0.6,4.3c-0.1,0.5-0.5,0.9-1,0.8c-0.2,0-0.4-0.1-0.6-0.3l-3.8-3.7
					c-0.4-0.4-0.4-1,0-1.3c0.1-0.2,0.3-0.3,0.6-0.3l4.3-0.6c0.5-0.1,1,0.2,1.1,0.7C209.1,64.6,209.1,64.8,209.1,64.9z"/>
				<path class="st2" d="M209.1,59.7c-0.2-1.2-0.4-3-0.6-4.3c-0.1-0.5-0.5-0.9-1-0.8c-0.2,0-0.4,0.1-0.6,0.3l-3.8,3.7
					c-0.4,0.4-0.4,1,0,1.3c0.1,0.2,0.3,0.3,0.6,0.3l4.3,0.6c0.5,0.1,1-0.2,1.1-0.7C209.1,60,209.1,59.8,209.1,59.7z"/>
				<path class="st2" d="M212.6,59.7c0.2-1.2,0.4-3,0.6-4.3c0.1-0.5,0.5-0.9,1-0.8c0.2,0,0.4,0.1,0.6,0.3l3.7,3.7
					c0.4,0.4,0.4,1,0,1.3c-0.1,0.2-0.3,0.3-0.6,0.3l-4.3,0.6c-0.5,0.1-1-0.3-1.1-0.8C212.6,59.9,212.6,59.8,212.6,59.7z"/>
				<path class="st2" d="M241.7,15.8c0,0,2.7-2.5,2.6-3.5s-6-1.8-6.8-1.5c-0.6,0.2-1.1,0.5-1.6,0.9l5.3,4.7L241.7,15.8z"/>
				<path class="st2" d="M240.3,17.1c0,0-2.5,2.7-3.5,2.6c-1-0.1-1.8-6.1-1.5-6.9c0.6-1.5,0.5-1.5,0.5-1.5l5.3,5.1L240.3,17.1z"/>
				<path class="st2" d="M217.9-5.4c0,0-2.7,2.5-2.6,3.5c0.1,1,6,1.8,6.9,1.5c0.6-0.2,1.1-0.6,1.6-0.9L218.5-6L217.9-5.4z"/>
				<path class="st2" d="M219.2-6.7c0,0,2.5-2.7,3.5-2.6c1,0.1,1.8,6.1,1.5,6.9c-0.6,1.5-0.4,1.5-0.4,1.5L218.5-6L219.2-6.7z"/>
				<polygon class="st2" points="222.1,-0.9 235.8,13.2 238.8,16.5 240.4,16.5 238.1,11.9 223.2,-3.4 				"/>
				<path class="st2" d="M217.7,53.7c0,0-2.7-2.5-2.6-3.5s6-1.8,6.9-1.5c0.6,0.2,1.1,0.5,1.6,0.9l-5.2,4.9L217.7,53.7z"/>
				<path class="st2" d="M219,55c0,0,2.5,2.7,3.5,2.6c1-0.1,1.8-6,1.5-6.9c-0.6-1.5-0.5-1.5-0.5-1.5l-5.2,5.3L219,55z"/>
				<path class="st2" d="M241.5,32.5c0,0,2.7,2.5,2.6,3.5s-6,1.8-6.9,1.5c-0.6-0.2-1.1-0.6-1.6-0.9l5.2-4.8L241.5,32.5z"/>
				<path class="st2" d="M240.2,31.2c0,0-2.5-2.7-3.5-2.6c-1,0.1-1.8,6-1.5,6.9c0.6,1.5,0.5,1.5,0.5,1.5l5.2-5.2L240.2,31.2z"/>
				<polygon class="st2" points="237.3,37 223.5,51.1 220.6,54.4 219,54.4 221.3,49.7 236.1,34.5 				"/>
				<polygon class="st2" points="223.3,31.1 222,28.4 223.4,25.5 221.2,24.4 215.5,28.1 220.4,32.1 				"/>
				<polygon class="st2" points="212.6,37.7 214.9,35.9 218,36.7 218.7,34.5 214.1,29.5 211,35 				"/>
				<polygon class="st2" points="197.8,17.7 199,20.3 197.7,23.2 199.9,24.4 205.5,20.7 200.6,16.6 				"/>
				<polygon class="st2" points="208.4,11.1 206.1,12.8 203,12 202.3,14.3 206.9,19.3 210,13.7 				"/>
				<polygon class="st2" points="203.4,37.4 206,36.1 208.9,37.5 210.1,35.3 206.4,29.6 202.3,34.5 				"/>
				<polygon class="st2" points="197,26.9 198.7,29.2 197.9,32.3 200.1,33 205.2,28.4 199.6,25.3 				"/>
				<polygon class="st2" points="218,11.2 215.4,12.4 212.5,11.1 211.3,13.2 215,18.9 219.1,14 				"/>
				<polygon class="st2" points="224.4,21.6 222.7,19.3 223.5,16.2 221.2,15.5 216.2,20.2 221.8,23.2 				"/>
				<ellipse class="st2" cx="210.6" cy="24.8" rx="2.7" ry="2.7"/>
				<path class="st2" d="M251.3,26.1l4.3,0.6c0.5,0.1,0.9,0.5,0.8,1c0,0.2-0.1,0.4-0.3,0.6l-3.7,3.8c-0.4,0.4-1,0.4-1.4,0
					c-0.1-0.1-0.2-0.3-0.3-0.5l-0.6-4.3c-0.1-0.5,0.1-1,0.6-1.1C251.1,26.1,251.2,26.1,251.3,26.1z"/>
				<path class="st2" d="M250.4,27c0.2,1.2,0.4,3,0.6,4.3c0.1,0.5,0.6,0.9,1.1,0.8c0.2,0,0.4-0.1,0.5-0.3l3.7-3.7
					c0.4-0.4,0.4-1,0-1.3c-0.1-0.2-0.3-0.3-0.6-0.3l-4.3-0.6c-0.5-0.1-1,0.3-1.1,0.8C250.4,26.8,250.4,26.9,250.4,27z"/>
				<path class="st2" d="M246.9,27c-0.2,1.2-0.4,3-0.6,4.3c-0.1,0.5-0.6,0.9-1.1,0.8c-0.2,0-0.4-0.1-0.5-0.3l-3.6-3.7
					c-0.4-0.4-0.3-1,0-1.4c0.1-0.1,0.3-0.2,0.5-0.3l4.3-0.6c0.5,0,1,0.4,1,0.9C246.9,26.9,246.9,27,246.9,27z"/>
				<path class="st2" d="M246.9,21.8c-0.2-1.2-0.4-3-0.6-4.3c-0.1-0.5-0.5-0.9-1-0.8c-0.2,0-0.4,0.1-0.6,0.3l-3.6,3.7
					c-0.4,0.4-0.3,1,0,1.4c0.1,0.1,0.3,0.2,0.5,0.3l4.3,0.6c0.5,0,1-0.4,1-0.9C246.9,21.9,246.9,21.9,246.9,21.8z"/>
				<path class="st2" d="M250.4,21.8c0.2-1.2,0.4-3,0.6-4.3c0.1-0.5,0.5-0.9,1-0.8c0.2,0,0.4,0.1,0.6,0.3l3.7,3.7
					c0.4,0.4,0.4,1,0,1.3c-0.1,0.2-0.3,0.3-0.6,0.3l-4.3,0.6c-0.5,0.1-1-0.3-1.1-0.8C250.4,22,250.4,21.9,250.4,21.8z"/>
				<path class="st2" d="M62,215.8l4.3,0.6c0.5,0.1,0.8,0.7,0.7,1.2c0,0.1-0.1,0.3-0.2,0.4l-3.7,3.7c-0.4,0.4-1,0.4-1.3,0
					c-0.2-0.2-0.3-0.3-0.3-0.6l-0.6-4.3c-0.1-0.5,0.3-1,0.8-1C61.8,215.8,61.9,215.8,62,215.8z"/>
				<path class="st2" d="M61,216.8c0.2,1.2,0.4,3,0.6,4.3c0.1,0.5,0.5,0.9,1,0.8c0.2,0,0.4-0.1,0.6-0.3l3.7-3.7c0.4-0.4,0.3-1,0-1.4
					c-0.1-0.1-0.3-0.2-0.5-0.3l-4.3-0.6c-0.5-0.1-1,0.3-1.1,0.8C61,216.6,61,216.7,61,216.8z"/>
				<path class="st2" d="M57.5,216.8c-0.2,1.2-0.4,3-0.6,4.3c-0.1,0.5-0.5,0.9-1,0.8c-0.2,0-0.4-0.1-0.6-0.3l-3.7-3.7
					c-0.4-0.4-0.4-1,0-1.3c0.1-0.2,0.3-0.3,0.6-0.3l4.3-0.6c0.5-0.1,1,0.3,1.1,0.8C57.5,216.6,57.5,216.7,57.5,216.8z"/>
				<path class="st2" d="M57.5,211.5c-0.2-1.2-0.4-3-0.6-4.3c-0.1-0.5-0.6-0.9-1.1-0.8c-0.2,0-0.4,0.1-0.5,0.3l-3.7,3.7
					c-0.4,0.4-0.4,1,0,1.3c0.1,0.2,0.3,0.3,0.6,0.3l4.3,0.6c0.5,0.1,1-0.3,1.1-0.8C57.5,211.7,57.5,211.6,57.5,211.5z"/>
				<path class="st2" d="M61,211.5c0.2-1.2,0.4-3,0.6-4.3c0.1-0.5,0.6-0.9,1.1-0.8c0.2,0,0.4,0.1,0.5,0.3l3.7,3.7
					c0.4,0.4,0.3,1,0,1.4c-0.1,0.1-0.3,0.2-0.5,0.3l-4.3,0.6c-0.5,0.1-1-0.3-1.1-0.8C61,211.7,61,211.6,61,211.5z"/>
			</g>
		</g>
	</g>
</g>
</svg>
