<?xml version="1.0" encoding="UTF-8" standalone="no"?>
<!-- Generator: Adobe Illustrator 22.1.0, SVG Export Plug-In . SVG Version: 6.00 Build 0)  -->

<svg
   version="1.1"
   id="Calque_1"
   x="0px"
   y="0px"
   viewBox="0 0 54 54.134548"
   xml:space="preserve"
   sodipodi:docname="black.svg"
   width="54"
   height="54.134548"
   inkscape:version="1.2.1 (9c6d41e4, 2022-07-14)"
   xmlns:inkscape="http://www.inkscape.org/namespaces/inkscape"
   xmlns:sodipodi="http://sodipodi.sourceforge.net/DTD/sodipodi-0.dtd"
   xmlns:xlink="http://www.w3.org/1999/xlink"
   xmlns="http://www.w3.org/2000/svg"
   xmlns:svg="http://www.w3.org/2000/svg"><defs
   id="defs1174" /><sodipodi:namedview
   id="namedview1172"
   pagecolor="#ffffff"
   bordercolor="#000000"
   borderopacity="0.25"
   inkscape:showpageshadow="2"
   inkscape:pageopacity="0.0"
   inkscape:pagecheckerboard="0"
   inkscape:deskcolor="#d1d1d1"
   showgrid="false"
   inkscape:zoom="1.9666667"
   inkscape:cx="60.762712"
   inkscape:cy="60.508475"
   inkscape:window-width="1309"
   inkscape:window-height="456"
   inkscape:window-x="0"
   inkscape:window-y="25"
   inkscape:window-maximized="0"
   inkscape:current-layer="Calque_1" />
<style
   type="text/css"
   id="style2">
	.st0{fill:#231F20;}
	.st1{clip-path:url(#SVGID_2_);}
	.st2{fill:#1DA2AC;}
</style>
<title
   id="title4">Fichier 11</title>
<g
   id="Calque_2_1_"
   transform="matrix(0.44850498,0,0,0.44850498,0.17940199,0.31395348)">
	<g
   id="Background">
		<rect
   x="-0.40000001"
   y="-0.69999999"
   class="st0"
   width="120.4"
   height="120.7"
   id="rect6" />
	</g>
	<g
   id="Layer_2">
		<g
   id="g1167">
			<defs
   id="defs10">
				<polygon
   id="SVGID_1_"
   points="116.2,3.3 116,116.2 2.7,116.2 2.8,3.3 " />
			</defs>
			<clipPath
   id="SVGID_2_">
				<use
   xlink:href="#SVGID_1_"
   style="overflow:visible"
   id="use12" />
			</clipPath>
			<g
   class="st1"
   clip-path="url(#SVGID_2_)"
   id="g1165">
				<path
   class="st2"
   d="m -23.9,52.8 c 0,0 2.7,-2.5 2.6,-3.5 -0.1,-1 -6,-1.8 -6.9,-1.5 -0.6,0.2 -1.1,0.6 -1.6,0.9 l 5.2,4.8 z"
   id="path15" />
				<path
   class="st2"
   d="m -25.2,54.2 c 0,0 -2.5,2.7 -3.5,2.6 -1,-0.1 -1.8,-6.1 -1.5,-6.9 0.6,-1.5 0.4,-1.5 0.4,-1.5 l 5.2,5.2 z"
   id="path17" />
				<path
   class="st2"
   d="m -47.7,31.7 c 0,0 -2.7,2.6 -2.6,3.5 0.1,0.9 6,1.8 6.8,1.5 0.6,-0.2 1.1,-0.5 1.6,-0.9 L -47,31 Z"
   id="path19" />
				<path
   class="st2"
   d="m -46.3,30.4 c 0,0 2.5,-2.8 3.6,-2.6 1.1,0.2 1.8,6.1 1.5,6.9 -0.6,1.5 -0.5,1.5 -0.5,1.5 L -47,31 Z"
   id="path21" />
				<polygon
   class="st2"
   points="-25.2,53.6 -27.5,48.9 -42.3,33.7 -43.5,36.2 -29.7,50.3 -26.8,53.6 "
   id="polygon23" />
				<path
   class="st2"
   d="m -62.3,91.3 c 0,0 2.7,-2.5 2.6,-3.5 -0.1,-1 -6,-1.8 -6.9,-1.5 -0.6,0.2 -1.1,0.6 -1.6,0.9 l 5.3,4.8 z"
   id="path25" />
				<path
   class="st2"
   d="m -63.6,92.5 c 0,0 -2.5,2.7 -3.5,2.6 -1,-0.1 -1.8,-6.1 -1.5,-6.9 0.6,-1.5 0.5,-1.5 0.5,-1.5 l 5.2,5.2 z"
   id="path27" />
				<path
   class="st2"
   d="m -86.1,70.2 c 0,0 -2.7,2.5 -2.6,3.5 0.1,1 6,1.8 6.9,1.5 0.6,-0.2 1.1,-0.6 1.6,-0.9 l -5.2,-4.8 z"
   id="path29" />
				<path
   class="st2"
   d="m -84.7,68.8 c 0,0 2.5,-2.7 3.5,-2.6 1,0.1 1.8,6.1 1.5,6.9 -0.6,1.5 -0.5,1.5 -0.5,1.5 l -5.2,-5.2 z"
   id="path31" />
				<polygon
   class="st2"
   points="-63.6,92.1 -65.9,87.4 -80.7,72.1 -81.9,74.6 -68.1,88.7 -65.1,92.1 "
   id="polygon33" />
				<path
   class="st2"
   d="m -85.4,53.1 c 0,0 -2.7,-2.5 -2.6,-3.5 0.1,-1 6,-1.8 6.9,-1.5 0.6,0.2 1.1,0.5 1.5,0.9 l -5.2,4.8 z"
   id="path35" />
				<path
   class="st2"
   d="m -84.1,54.5 c 0,0 2.5,2.7 3.5,2.6 1,-0.1 1.8,-6 1.5,-6.9 -0.6,-1.5 -0.5,-1.5 -0.5,-1.5 l -5.2,5.1 z"
   id="path37" />
				<path
   class="st2"
   d="m -61.7,32.1 c 0,0 2.7,2.5 2.6,3.5 -0.1,1 -6,1.8 -6.9,1.5 -0.6,-0.2 -1.1,-0.5 -1.5,-0.9 l 5.2,-4.8 z"
   id="path39" />
				<path
   class="st2"
   d="m -62.9,30.6 c 0,0 -2.5,-2.7 -3.5,-2.6 -1,0.1 -1.8,6 -1.5,6.9 0.6,1.5 0.5,1.5 0.5,1.5 l 5.2,-5.2 z"
   id="path41" />
				<polygon
   class="st2"
   points="-84.2,53.9 -81.8,49.2 -67,33.9 -65.8,36.4 -79.6,50.6 -82.6,53.9 "
   id="polygon43" />
				<path
   class="st2"
   d="m -47.9,90.8 c 0,0 -2.7,-2.5 -2.6,-3.5 0.1,-1 6,-1.8 6.9,-1.5 0.6,0.2 1.1,0.5 1.5,0.9 l -5.2,4.8 z"
   id="path45" />
				<path
   class="st2"
   d="m -46.5,92.1 c 0,0 2.5,2.7 3.5,2.6 1,-0.1 1.8,-6.1 1.5,-6.9 -0.6,-1.5 -0.5,-1.5 -0.5,-1.5 l -5.2,5.2 z"
   id="path47" />
				<path
   class="st2"
   d="m -24.1,69.6 c 0,0 2.7,2.5 2.6,3.5 -0.1,1 -6,1.8 -6.9,1.5 -0.6,-0.2 -1.1,-0.5 -1.5,-0.9 l 5.2,-4.8 z"
   id="path49" />
				<path
   class="st2"
   d="m -25.4,68.2 c 0,0 -2.5,-2.6 -3.5,-2.6 -1,0 -1.8,6 -1.5,6.9 0.6,1.5 0.4,1.5 0.4,1.5 l 5.3,-5.2 z"
   id="path51" />
				<polygon
   class="st2"
   points="-46.6,91.5 -44.3,86.8 -29.5,71.6 -28.3,74.1 -42,88.2 -45,91.5 "
   id="polygon53" />
				<polygon
   class="st2"
   points="-44.4,61.4 -50.1,65.1 -45.2,69.2 -42.3,68.1 -43.6,65.5 -42.2,62.6 "
   id="polygon55" />
				<polygon
   class="st2"
   points="-46.8,71.6 -51.5,66.5 -54.6,72.1 -53,74.7 -50.6,73 -47.5,73.8 "
   id="polygon57" />
				<polygon
   class="st2"
   points="-65.7,61.5 -60.1,57.7 -64.9,53.7 -67.8,54.7 -66.6,57.4 -67.9,60.3 "
   id="polygon59" />
				<polygon
   class="st2"
   points="-63.3,51.3 -58.6,56.3 -55.6,50.8 -57.1,48.2 -59.5,49.9 -62.6,49.1 "
   id="polygon61" />
				<polygon
   class="st2"
   points="-55.5,72.3 -59.2,66.7 -63.2,71.5 -62.2,74.4 -59.6,73.2 -56.7,74.5 "
   id="polygon63" />
				<polygon
   class="st2"
   points="-65.4,70.1 -60.4,65.4 -65.9,62.4 -68.6,63.9 -66.8,66.3 -67.6,69.4 "
   id="polygon65" />
				<polygon
   class="st2"
   points="-54.3,50.3 -50.6,56 -46.5,51.1 -47.6,48.2 -50.2,49.5 -53.1,48.1 "
   id="polygon67" />
				<polygon
   class="st2"
   points="-44.3,52.6 -49.3,57.2 -43.8,60.3 -41.2,58.7 -42.9,56.4 -42.1,53.3 "
   id="polygon69" />
				<circle
   class="st2"
   cx="-55"
   cy="61.900002"
   id="ellipse71"
   r="2.7" />
				<path
   class="st2"
   d="m -52.1,25.1 4.3,0.6 c 0.5,0.1 0.9,0.5 0.8,1 0,0.2 -0.1,0.4 -0.3,0.6 L -51,31 c -0.4,0.4 -1,0.4 -1.3,0 -0.2,-0.2 -0.3,-0.3 -0.3,-0.6 l -0.6,-4.3 c -0.1,-0.5 0.3,-1 0.8,-1.1 0.1,0.1 0.2,0.1 0.3,0.1 z"
   id="path73" />
				<path
   class="st2"
   d="m -53.1,26.1 c 0.2,1.2 0.4,3 0.6,4.3 0.1,0.5 0.5,0.9 1,0.8 0.2,0 0.4,-0.1 0.6,-0.3 l 3.7,-3.7 c 0.4,-0.4 0.4,-1 0,-1.3 -0.1,-0.2 -0.3,-0.3 -0.6,-0.3 L -52,25 c -0.5,-0.1 -1,0.3 -1,0.8 -0.1,0.1 -0.1,0.2 -0.1,0.3 z"
   id="path75" />
				<path
   class="st2"
   d="m -56.6,26.1 c -0.2,1.2 -0.4,3 -0.6,4.3 -0.1,0.5 -0.5,0.9 -1,0.8 -0.2,0 -0.4,-0.1 -0.6,-0.3 l -3.7,-3.7 c -0.4,-0.4 -0.4,-1 0,-1.3 0.1,-0.2 0.3,-0.3 0.6,-0.3 l 4.3,-0.6 c 0.5,-0.1 1,0.3 1.1,0.8 -0.1,0.1 -0.1,0.2 -0.1,0.3 z"
   id="path77" />
				<path
   class="st2"
   d="m -56.6,20.9 c -0.2,-1.2 -0.4,-3 -0.6,-4.5 -0.1,-0.5 -0.6,-0.9 -1.1,-0.8 -0.2,0 -0.4,0.1 -0.5,0.3 l -3.7,3.7 c -0.4,0.4 -0.4,1 0,1.3 0.1,0.2 0.3,0.3 0.6,0.3 l 4.3,0.6 c 0.5,0.1 1,-0.3 1.1,-0.8 -0.1,0 -0.1,-0.1 -0.1,-0.1 z"
   id="path79" />
				<path
   class="st2"
   d="m -53.1,20.9 0.6,-4.5 c 0.1,-0.5 0.6,-0.9 1.1,-0.8 0.2,0 0.4,0.1 0.5,0.3 l 3.7,3.8 c 0.4,0.4 0.4,1 0,1.3 -0.1,0.2 -0.3,0.3 -0.6,0.3 l -4.3,0.6 c -0.5,0.1 -1,-0.3 -1,-0.8 0,-0.1 0,-0.1 0,-0.2 z"
   id="path81" />
				<path
   class="st2"
   d="m -90.2,63.4 4.3,0.6 c 0.5,0.1 0.9,0.6 0.8,1.1 0,0.2 -0.1,0.4 -0.3,0.5 l -3.7,3.6 c -0.4,0.4 -1,0.4 -1.4,0 -0.1,-0.1 -0.2,-0.3 -0.3,-0.5 l -0.6,-4.3 c 0,-0.5 0.4,-1 0.9,-1 0.2,0 0.2,0 0.3,0 z"
   id="path83" />
				<path
   class="st2"
   d="m -91.2,64.3 c 0.2,1.2 0.4,3 0.6,4.3 0.1,0.5 0.5,0.9 1,0.8 0.2,0 0.4,-0.1 0.6,-0.3 l 3.8,-3.7 c 0.4,-0.4 0.4,-1 0,-1.3 -0.1,-0.2 -0.3,-0.3 -0.5,-0.3 L -90,63.2 c -0.5,-0.1 -1,0.2 -1.2,0.8 0,0.1 0,0.2 0,0.3 z"
   id="path85" />
				<path
   class="st2"
   d="m -94.7,64.3 c -0.2,1.2 -0.4,3 -0.6,4.3 -0.1,0.5 -0.5,0.9 -1,0.8 -0.2,0 -0.4,-0.1 -0.6,-0.3 l -3.7,-3.7 c -0.4,-0.4 -0.3,-1 0,-1.4 0.1,-0.1 0.3,-0.2 0.5,-0.3 l 4.3,-0.6 c 0.5,-0.1 1,0.3 1.1,0.9 0,0.1 0,0.2 0,0.3 z"
   id="path87" />
				<path
   class="st2"
   d="m -94.7,59 c -0.2,-1.2 -0.4,-3 -0.6,-4.3 -0.1,-0.5 -0.5,-0.9 -1,-0.8 -0.2,0 -0.4,0.1 -0.6,0.3 l -3.7,3.8 c -0.4,0.4 -0.3,1 0,1.4 0.1,0.1 0.3,0.2 0.5,0.3 l 4.3,0.6 c 0.5,0.1 1,-0.3 1.1,-0.8 0.1,-0.3 0.1,-0.4 0,-0.5 z"
   id="path89" />
				<path
   class="st2"
   d="m -91.2,59 c 0.2,-1.2 0.4,-3 0.6,-4.3 0.1,-0.5 0.5,-0.9 1,-0.8 0.2,0 0.4,0.1 0.6,0.3 l 3.8,3.8 c 0.4,0.4 0.4,1 0,1.3 -0.1,0.2 -0.3,0.3 -0.5,0.3 l -4.3,0.6 c -0.5,0.1 -1.1,-0.2 -1.2,-0.8 0,-0.2 0,-0.3 0,-0.4 z"
   id="path91" />
				<path
   class="st2"
   d="m -14.2,63.1 4.3,0.6 c 0.5,0.1 0.9,0.6 0.8,1.1 0,0.2 -0.1,0.4 -0.3,0.5 l -3.7,3.7 c -0.4,0.4 -1,0.4 -1.4,0 -0.1,-0.1 -0.2,-0.3 -0.3,-0.5 l -0.6,-4.3 c -0.1,-0.5 0.3,-1 0.8,-1.1 0.2,0 0.3,0 0.4,0 z"
   id="path93" />
				<path
   class="st2"
   d="m -15.2,64.1 c 0.2,1.2 0.4,3 0.6,4.5 0.1,0.5 0.5,0.9 1,0.8 0.2,0 0.4,-0.1 0.6,-0.3 l 3.7,-3.8 c 0.4,-0.4 0.4,-1 0,-1.3 -0.1,-0.2 -0.3,-0.3 -0.5,-0.3 L -14,63 c -0.5,-0.1 -1,0.2 -1.1,0.8 -0.1,0.1 -0.1,0.2 -0.1,0.3 z"
   id="path95" />
				<path
   class="st2"
   d="m -18.7,64.1 c -0.2,1.2 -0.4,3 -0.6,4.5 -0.1,0.5 -0.5,0.9 -1,0.8 -0.2,0 -0.4,-0.1 -0.6,-0.3 l -3.7,-3.7 c -0.4,-0.4 -0.3,-1 0,-1.4 0.1,-0.1 0.3,-0.2 0.5,-0.3 l 4.3,-0.6 c 0.5,-0.1 1,0.3 1.1,0.8 0,0.1 0,0.1 0,0.2 z"
   id="path97" />
				<path
   class="st2"
   d="m -18.7,59 c -0.2,-1.2 -0.4,-3 -0.6,-4.3 -0.1,-0.5 -0.5,-0.9 -1,-0.8 -0.2,0 -0.4,0.1 -0.6,0.3 l -3.7,3.7 c -0.4,0.4 -0.3,1 0,1.4 0.1,0.1 0.3,0.2 0.5,0.3 l 4.3,0.6 c 0.5,0.1 1,-0.3 1.1,-0.8 0,-0.3 0.1,-0.4 0,-0.4 z"
   id="path99" />
				<path
   class="st2"
   d="m -15.2,59 c 0.2,-1.2 0.4,-3 0.6,-4.3 0.1,-0.5 0.5,-0.9 1,-0.8 0.2,0 0.4,0.1 0.6,0.3 l 3.7,3.6 c 0.4,0.4 0.4,1 0,1.3 -0.1,0.2 -0.3,0.3 -0.5,0.3 l -4.3,0.6 c -0.5,0.1 -1,-0.2 -1.1,-0.8 0,-0.1 0,-0.2 0,-0.2 z"
   id="path101" />
				<path
   class="st2"
   d="m 13.9,14.9 c 0,0 2.7,-2.5 2.6,-3.5 -0.1,-1 -6,-1.8 -6.9,-1.5 -0.6,0.2 -1.1,0.5 -1.5,0.9 l 5.2,4.8 z"
   id="path103" />
				<path
   class="st2"
   d="m 12.6,16.3 c 0,0 -2.5,2.7 -3.5,2.6 -1,-0.1 -1.8,-6 -1.5,-6.9 0.6,-1.5 0.5,-1.5 0.5,-1.5 l 5.2,5.2 z"
   id="path105" />
				<path
   class="st2"
   d="m -9.9,-6.2 c 0,0 -2.7,2.5 -2.6,3.5 0.1,1 6,1.8 6.9,1.5 0.6,-0.2 1.1,-0.5 1.6,-0.9 l -5.2,-4.8 z"
   id="path107" />
				<path
   class="st2"
   d="m -8.5,-7.5 c 0,0 2.5,-2.7 3.5,-2.6 1,0.1 1.8,6 1.5,6.9 -0.6,1.4 -0.5,1.5 -0.5,1.5 l -5.2,-5.2 z"
   id="path109" />
				<polygon
   class="st2"
   points="12.6,15.7 10.3,11 -4.5,-4.2 -5.7,-1.7 8.1,12.4 11.1,15.7 "
   id="polygon111" />
				<path
   class="st2"
   d="m -47.6,15.2 c 0,0 -2.7,-2.5 -2.6,-3.5 0.1,-1 6,-1.8 6.9,-1.5 0.6,0.2 1.1,0.5 1.6,0.9 l -5.2,4.8 z"
   id="path113" />
				<path
   class="st2"
   d="m -46.3,16.6 c 0,0 2.5,2.7 3.5,2.6 1,-0.1 1.8,-6.1 1.5,-6.9 -0.6,-1.5 -0.4,-1.5 -0.4,-1.5 L -47,16 Z"
   id="path115" />
				<path
   class="st2"
   d="m -23.8,-6 c 0,0 2.7,2.5 2.6,3.5 -0.1,1 -6,1.8 -6.9,1.5 -0.6,-0.2 -1.1,-0.5 -1.5,-0.9 l 5.2,-4.8 z"
   id="path117" />
				<path
   class="st2"
   d="m -25.2,-7.2 c 0,0 -2.5,-2.7 -3.5,-2.6 -1,0.1 -1.8,6 -1.5,6.9 0.6,1.5 0.5,1.5 0.5,1.5 l 5.2,-5.2 z"
   id="path119" />
				<polygon
   class="st2"
   points="-46.3,16 -44,11.3 -29.2,-4 -28,-1.4 -41.8,12.7 -44.7,16 "
   id="polygon121" />
				<path
   class="st2"
   d="m -10.1,52.8 c 0,0 -2.7,-2.5 -2.6,-3.5 0.1,-1 6,-1.8 6.9,-1.5 0.6,0.2 1.1,0.5 1.5,0.9 l -5.2,4.8 z"
   id="path123" />
				<path
   class="st2"
   d="m -8.7,54.2 c 0,0 2.5,2.7 3.5,2.6 1,-0.1 1.8,-6.1 1.5,-6.9 -0.6,-1.5 -0.5,-1.5 -0.5,-1.5 l -5.2,5.2 z"
   id="path125" />
				<path
   class="st2"
   d="m 13.7,31.7 c 0,0 2.7,2.5 2.6,3.5 -0.1,1 -6,1.8 -6.9,1.5 C 8.8,36.5 8.3,36.2 7.9,35.8 L 13.1,31 Z"
   id="path127" />
				<path
   class="st2"
   d="m 12.4,30.4 c 0,0 -2.5,-2.7 -3.5,-2.6 -1,0.1 -1.8,6.1 -1.5,6.9 0.6,1.5 0.5,1.5 0.5,1.5 L 13.2,31 Z"
   id="path129" />
				<polygon
   class="st2"
   points="-8.8,53.6 -6.5,48.9 8.4,33.7 9.5,36.2 -4.2,50.3 -7.2,53.6 "
   id="polygon131" />
				<polygon
   class="st2"
   points="-6.6,23.5 -12.2,27.2 -7.3,31.3 -4.5,30.2 -5.7,27.6 -4.4,24.7 "
   id="polygon133" />
				<polygon
   class="st2"
   points="-9,33.7 -13.7,28.7 -16.7,34.2 -15.1,36.8 -12.8,35.1 -9.7,35.9 "
   id="polygon135" />
				<polygon
   class="st2"
   points="-27.9,23.6 -22.3,19.9 -27.1,15.8 -30,16.9 -28.7,19.5 -30.1,22.4 "
   id="polygon137" />
				<polygon
   class="st2"
   points="-25.5,13.4 -20.8,18.4 -17.8,12.9 -19.3,10.3 -21.7,12 -24.8,11.2 "
   id="polygon139" />
				<polygon
   class="st2"
   points="-17.7,34.4 -21.4,28.8 -25.4,33.6 -24.4,36.5 -21.7,35.3 -18.8,36.6 "
   id="polygon141" />
				<polygon
   class="st2"
   points="-27.6,32.2 -22.6,27.5 -28.1,24.4 -30.7,26 -29,28.4 -29.8,31.5 "
   id="polygon143" />
				<polygon
   class="st2"
   points="-16.5,12.4 -12.8,18.1 -8.7,13.2 -9.8,10.3 -12.4,11.6 -15.3,10.2 "
   id="polygon145" />
				<polygon
   class="st2"
   points="-6.5,14.7 -11.5,19.3 -6,22.4 -3.4,20.8 -5.1,18.5 -4.3,15.4 "
   id="polygon147" />
				<circle
   class="st2"
   cx="-17.1"
   cy="24"
   id="ellipse149"
   r="2.7" />
				<path
   class="st2"
   d="m -14.3,-12.7 4.3,0.6 c 0.5,0.1 0.9,0.5 0.8,1 0,0.2 -0.1,0.4 -0.3,0.6 l -3.7,3.7 c -0.4,0.4 -1,0.4 -1.3,0 -0.2,-0.2 -0.3,-0.3 -0.3,-0.6 l -0.6,-4.3 c -0.1,-0.5 0.3,-1 0.8,-1.1 0.1,0.1 0.2,0.1 0.3,0.1 z"
   id="path151" />
				<path
   class="st2"
   d="m -15.3,-11.8 c 0.2,1.2 0.4,3 0.6,4.3 0.1,0.5 0.5,0.9 1,0.8 0.2,0 0.4,-0.1 0.6,-0.3 l 3.7,-3.7 c 0.4,-0.4 0.4,-1 0,-1.3 -0.1,-0.2 -0.3,-0.3 -0.6,-0.3 l -4.3,-0.6 c -0.5,-0.1 -1,0.3 -1.1,0.8 0.1,0.1 0.1,0.2 0.1,0.3 z"
   id="path153" />
				<path
   class="st2"
   d="m -18.8,-11.8 c -0.2,1.2 -0.4,3 -0.6,4.3 -0.1,0.5 -0.5,0.9 -1,0.8 -0.2,0 -0.4,-0.1 -0.6,-0.3 l -3.7,-3.7 c -0.4,-0.4 -0.3,-1 0,-1.4 0.1,-0.1 0.3,-0.2 0.5,-0.3 l 4.3,-0.6 c 0.5,-0.1 1,0.3 1.1,0.8 0,0.2 0,0.3 0,0.4 z"
   id="path155" />
				<path
   class="st2"
   d="m -18.8,-17 c -0.2,-1.2 -0.4,-3 -0.6,-4.3 -0.1,-0.5 -0.5,-0.9 -1,-0.8 -0.2,0 -0.4,0.1 -0.6,0.3 l -3.7,3.7 c -0.4,0.4 -0.3,1 0,1.4 0.1,0.1 0.3,0.2 0.5,0.3 l 4.3,0.6 c 0.5,0.1 1,-0.3 1.1,-0.8 0,-0.2 0,-0.3 0,-0.4 z"
   id="path157" />
				<path
   class="st2"
   d="m -15.3,-17 c 0.2,-1.2 0.4,-3 0.6,-4.3 0.1,-0.5 0.5,-0.9 1,-0.8 0.2,0 0.4,0.1 0.6,0.3 l 3.7,3.7 c 0.4,0.4 0.4,1 0,1.3 -0.1,0.2 -0.3,0.3 -0.6,0.3 l -4.3,0.6 c -0.5,0.1 -1,-0.3 -1.1,-0.8 0.1,-0.1 0.1,-0.2 0.1,-0.3 z"
   id="path159" />
				<path
   class="st2"
   d="m 23.6,25.2 4.3,0.6 c 0.5,0.1 0.9,0.6 0.8,1.1 0,0.2 -0.1,0.4 -0.3,0.5 l -3.7,3.7 c -0.4,0.4 -1,0.4 -1.3,0 -0.2,-0.2 -0.3,-0.3 -0.3,-0.6 l -0.6,-4.3 c -0.1,-0.5 0.3,-1 0.8,-1.1 0.1,0.1 0.2,0.1 0.3,0.1 z"
   id="path161" />
				<path
   class="st2"
   d="m 22.7,26.2 0.6,4.3 c 0.1,0.5 0.5,0.9 1,0.8 0.2,0 0.4,-0.1 0.6,-0.3 l 3.7,-3.7 c 0.4,-0.4 0.3,-1 0,-1.4 -0.1,-0.1 -0.3,-0.2 -0.5,-0.3 L 23.8,25 c -0.5,-0.1 -1,0.3 -1.1,0.8 0,0.2 0,0.3 0,0.4 z"
   id="path163" />
				<path
   class="st2"
   d="m 19.2,26.2 -0.6,4.3 C 18.5,31 18,31.4 17.5,31.3 17.3,31.3 17.1,31.2 17,31 l -3.7,-3.7 c -0.4,-0.4 -0.4,-1 0,-1.3 0.1,-0.2 0.3,-0.3 0.6,-0.3 l 4.3,-0.6 c 0.5,-0.1 1,0.3 1.1,0.8 -0.1,0.1 -0.1,0.2 -0.1,0.3 z"
   id="path165" />
				<path
   class="st2"
   d="M 19.2,20.9 18.6,16.6 C 18.5,16.1 18,15.7 17.5,15.8 17.3,15.8 17.1,15.9 17,16 l -3.7,3.7 c -0.4,0.4 -0.4,1 0,1.3 0.1,0.2 0.3,0.3 0.6,0.3 l 4.3,0.6 c 0.5,0.1 1,-0.3 1.1,-0.8 -0.1,0 -0.1,-0.1 -0.1,-0.2 z"
   id="path167" />
				<path
   class="st2"
   d="m 22.7,20.9 0.6,-4.3 c 0.1,-0.5 0.6,-0.9 1.1,-0.8 0.2,0 0.4,0.1 0.5,0.3 l 3.7,3.7 c 0.4,0.4 0.3,1 0,1.4 -0.1,0.1 -0.3,0.2 -0.5,0.3 l -4.3,0.6 c -0.5,0.1 -1,-0.3 -1.1,-0.8 0,-0.2 0,-0.3 0,-0.4 z"
   id="path169" />
				<path
   class="st2"
   d="m 51.7,-22.9 c 0,0 2.7,-2.5 2.6,-3.5 -0.1,-1 -6,-1.8 -6.9,-1.5 -0.6,0.2 -1.1,0.5 -1.5,0.9 l 5.2,4.8 z"
   id="path171" />
				<path
   class="st2"
   d="m 50.4,-21.7 c 0,0 -2.5,2.7 -3.5,2.6 -1,-0.1 -1.8,-6 -1.5,-6.9 0.6,-1.5 0.5,-1.5 0.5,-1.5 l 5.3,5.2 z"
   id="path173" />
				<path
   class="st2"
   d="m 28,-44.1 c 0,0 -2.7,2.5 -2.6,3.5 0.1,1 6,1.8 6.9,1.5 0.6,-0.2 1.1,-0.5 1.5,-0.9 l -5.2,-4.8 z"
   id="path175" />
				<path
   class="st2"
   d="m 29.3,-45.4 c 0,0 2.5,-2.7 3.5,-2.6 1,0.1 1.8,6 1.5,6.9 -0.6,1.5 -0.5,1.5 -0.5,1.5 l -5.2,-5.2 z"
   id="path177" />
				<polygon
   class="st2"
   points="50.5,-22.2 48.1,-26.9 33.3,-42.1 32.1,-39.6 45.9,-25.5 48.9,-22.2 "
   id="polygon179" />
				<path
   class="st2"
   d="m -9.8,-22.7 c 0,0 -2.7,-2.5 -2.6,-3.5 0.1,-1 6,-1.8 6.9,-1.5 0.6,0.2 1.1,0.6 1.6,0.9 l -5.3,4.8 z"
   id="path181" />
				<path
   class="st2"
   d="m -8.5,-21.3 c 0,0 2.5,2.7 3.5,2.6 1,-0.1 1.8,-6.1 1.5,-6.9 -0.6,-1.5 -0.5,-1.5 -0.5,-1.5 l -5.2,5.1 z"
   id="path183" />
				<path
   class="st2"
   d="m 14,-43.8 c 0,0 2.7,2.5 2.6,3.5 -0.1,1 -6,1.8 -6.9,1.5 -0.6,-0.2 -1.1,-0.6 -1.6,-0.9 l 5.2,-4.8 z"
   id="path185" />
				<path
   class="st2"
   d="m 12.7,-45.2 c 0,0 -2.5,-2.7 -3.5,-2.6 -1,0.1 -1.8,6.1 -1.5,6.9 0.6,1.5 0.5,1.5 0.5,1.5 l 5.2,-5.2 z"
   id="path187" />
				<polygon
   class="st2"
   points="-8.5,-21.9 -6.2,-26.6 8.7,-41.8 9.8,-39.3 -3.9,-25.2 -6.9,-21.9 "
   id="polygon189" />
				<path
   class="st2"
   d="m 27.8,14.9 c 0,0 -2.7,-2.5 -2.6,-3.5 0.1,-1 6,-1.8 6.9,-1.5 0.6,0.2 1.1,0.5 1.5,0.9 l -5.2,4.8 z"
   id="path191" />
				<path
   class="st2"
   d="m 29.1,16.3 c 0,0 2.5,2.7 3.5,2.6 1,-0.1 1.8,-6 1.5,-6.9 -0.6,-1.5 -0.4,-1.5 -0.4,-1.5 l -5.3,5.2 z"
   id="path193" />
				<path
   class="st2"
   d="m 51.5,-6.2 c 0,0 2.7,2.5 2.6,3.5 -0.1,1 -6,1.8 -6.9,1.5 -0.6,-0.2 -1.1,-0.5 -1.5,-0.9 l 5.2,-4.8 z"
   id="path195" />
				<path
   class="st2"
   d="m 50.2,-7.5 c 0,0 -2.5,-2.7 -3.5,-2.6 -1,0.1 -1.8,6 -1.5,6.9 0.6,1.5 0.5,1.5 0.5,1.5 l 5.2,-5.2 z"
   id="path197" />
				<polygon
   class="st2"
   points="29,15.7 31.3,11 46.2,-4.2 47.3,-1.7 33.6,12.4 30.6,15.7 "
   id="polygon199" />
				<polygon
   class="st2"
   points="31.2,-14.4 25.6,-10.7 30.5,-6.6 33.3,-7.7 32.1,-10.3 33.4,-13.2 "
   id="polygon201" />
				<polygon
   class="st2"
   points="28.8,-4.2 24.2,-9.2 21.1,-3.7 22.7,-1.1 25,-2.8 28.1,-2 "
   id="polygon203" />
				<polygon
   class="st2"
   points="9.9,-14.3 15.6,-18 10.7,-22.1 7.8,-21 9.1,-18.4 7.7,-15.5 "
   id="polygon205" />
				<polygon
   class="st2"
   points="12.3,-24.5 17,-19.4 20.1,-25 18.5,-27.6 16.1,-25.9 13,-26.7 "
   id="polygon207" />
				<polygon
   class="st2"
   points="20.2,-3.5 16.5,-9.1 12.4,-4.2 13.5,-1.4 16.1,-2.6 19,-1.3 "
   id="polygon209" />
				<polygon
   class="st2"
   points="10.2,-5.7 15.2,-10.4 9.7,-13.4 7.1,-11.9 8.8,-9.5 8,-6.4 "
   id="polygon211" />
				<polygon
   class="st2"
   points="21.3,-25.5 25.1,-19.8 29.1,-24.7 28.1,-27.6 25.4,-26.3 22.5,-27.7 "
   id="polygon213" />
				<polygon
   class="st2"
   points="31.3,-23.2 26.3,-18.6 31.8,-15.5 34.4,-17.1 32.7,-19.4 33.5,-22.5 "
   id="polygon215" />
				<circle
   class="st2"
   cx="20.700001"
   cy="-13.9"
   id="ellipse217"
   r="2.7" />
				<path
   class="st2"
   d="M 23.5,-50.6 28,-50 c 0.5,0.1 0.9,0.6 0.8,1.1 0,0.2 -0.1,0.4 -0.3,0.5 l -3.8,3.7 c -0.4,0.4 -1,0.4 -1.4,0 -0.1,-0.1 -0.2,-0.3 -0.3,-0.5 l -0.6,-4.3 c -0.1,-0.5 0.3,-1 0.8,-1.1 0.1,-0.1 0.2,-0.1 0.3,0 z"
   id="path219" />
				<path
   class="st2"
   d="m 22.6,-49.7 c 0.2,1.2 0.4,3 0.6,4.3 0.1,0.5 0.5,0.9 1,0.8 0.2,0 0.4,-0.1 0.6,-0.3 l 3.7,-3.7 c 0.4,-0.4 0.4,-1 0,-1.3 -0.1,-0.2 -0.3,-0.3 -0.5,-0.3 l -4.3,-0.6 c -0.5,-0.1 -1,0.3 -1.1,0.9 -0.1,0.1 -0.1,0.1 0,0.2 z"
   id="path221" />
				<path
   class="st2"
   d="m 19.1,-49.7 c -0.2,1.2 -0.4,3 -0.6,4.3 -0.1,0.5 -0.5,0.9 -1,0.8 -0.2,0 -0.4,-0.1 -0.6,-0.3 l -3.7,-3.7 c -0.4,-0.4 -0.4,-1 0,-1.3 0.1,-0.2 0.3,-0.3 0.5,-0.3 l 4.3,-0.6 c 0.5,-0.1 1,0.3 1.1,0.9 0,0.1 0,0.1 0,0.2 z"
   id="path223" />
				<path
   class="st2"
   d="m 19.1,-54.9 c -0.2,-1.2 -0.4,-3 -0.6,-4.3 -0.1,-0.5 -0.5,-0.9 -1,-0.8 -0.2,0 -0.4,0.1 -0.6,0.3 l -3.7,3.7 c -0.4,0.4 -0.4,1 0,1.3 0.1,0.2 0.3,0.3 0.5,0.3 l 4.3,0.6 c 0.5,0.1 1,-0.3 1.1,-0.8 0,-0.1 0,-0.2 0,-0.3 z"
   id="path225" />
				<path
   class="st2"
   d="m 22.6,-54.9 c 0.2,-1.2 0.4,-3 0.6,-4.3 0.1,-0.5 0.5,-0.9 1,-0.8 0.2,0 0.4,0.1 0.6,0.3 l 3.7,3.7 c 0.4,0.4 0.4,1 0,1.3 -0.1,0.2 -0.3,0.3 -0.5,0.3 l -4.3,0.6 c -0.5,0.1 -1,-0.3 -1.1,-0.9 -0.1,-0.1 -0.1,-0.2 0,-0.2 z"
   id="path227" />
				<path
   class="st2"
   d="m 61.4,-12.7 4.3,0.6 c 0.5,0.1 0.9,0.5 0.8,1 0,0.2 -0.1,0.4 -0.3,0.6 l -3.7,3.7 c -0.4,0.4 -1,0.4 -1.3,0 C 61.1,-6.9 61,-7.1 61,-7.3 l -0.6,-4.3 c -0.1,-0.5 0.3,-1 0.8,-1.1 0,0 0.1,0 0.2,0 z"
   id="path229" />
				<path
   class="st2"
   d="m 60.5,-11.7 c 0.2,1.2 0.4,3 0.6,4.3 0.1,0.5 0.5,0.9 1,0.8 0.2,0 0.4,-0.1 0.6,-0.3 l 3.7,-3.6 c 0.4,-0.4 0.3,-1 0,-1.4 C 66.2,-12 66,-12 65.8,-12.1 l -4.3,-0.6 c -0.5,-0.1 -1,0.2 -1.1,0.7 0.1,0.1 0.1,0.2 0.1,0.3 z"
   id="path231" />
				<path
   class="st2"
   d="m 57,-11.7 c -0.2,1.2 -0.4,3 -0.6,4.3 -0.1,0.5 -0.5,0.9 -1,0.8 -0.2,0 -0.4,-0.1 -0.6,-0.3 l -3.7,-3.6 c -0.4,-0.4 -0.4,-1 0,-1.3 0.1,-0.2 0.3,-0.3 0.6,-0.3 l 4.2,-0.6 c 0.5,-0.1 1,0.2 1.1,0.7 0,0.1 0,0.2 0,0.3 z"
   id="path233" />
				<path
   class="st2"
   d="m 57,-16.9 c -0.2,-1.2 -0.4,-3 -0.6,-4.3 -0.1,-0.5 -0.6,-0.9 -1.1,-0.8 -0.2,0 -0.4,0.1 -0.5,0.3 l -3.7,3.7 c -0.4,0.4 -0.4,1 0,1.3 0.1,0.2 0.3,0.3 0.6,0.3 l 4.3,0.6 c 0.5,0.1 1,-0.3 1,-0.8 0,-0.2 0,-0.3 0,-0.3 z"
   id="path235" />
				<path
   class="st2"
   d="m 60.5,-16.9 c 0.2,-1.2 0.4,-3 0.6,-4.3 0.1,-0.5 0.6,-0.9 1.1,-0.8 0.2,0 0.4,0.1 0.5,0.3 l 3.7,3.7 c 0.4,0.4 0.3,1 0,1.4 -0.1,0.1 -0.3,0.2 -0.5,0.3 l -4.3,0.6 c -0.5,0.1 -1,-0.3 -1.1,-0.8 0,-0.2 0,-0.3 0,-0.4 z"
   id="path237" />
				<path
   class="st2"
   d="m 89.5,-60.8 c 0,0 2.7,-2.5 2.6,-3.5 -0.1,-1 -6,-1.8 -6.9,-1.5 -0.6,0.2 -1.1,0.5 -1.5,0.9 l 5.2,4.8 z"
   id="path239" />
				<path
   class="st2"
   d="m 88.2,-59.5 c 0,0 -2.5,2.7 -3.6,2.6 -1.1,-0.1 -1.8,-6 -1.5,-6.9 0.6,-1.5 0.5,-1.5 0.5,-1.5 l 5.2,5.2 z"
   id="path241" />
				<path
   class="st2"
   d="m 65.8,-82 c 0,0 -2.7,2.5 -2.6,3.5 0.1,1 6,1.8 6.9,1.5 0.6,-0.2 1.1,-0.5 1.6,-0.9 l -5.2,-4.8 z"
   id="path243" />
				<path
   class="st2"
   d="m 67.1,-83.3 c 0,0 2.5,-2.7 3.5,-2.6 1,0.1 1.8,6 1.5,6.9 -0.6,1.5 -0.4,1.5 -0.4,1.5 l -5.3,-5.2 z"
   id="path245" />
				<polygon
   class="st2"
   points="88.3,-60.1 86,-64.8 71.1,-80 70,-77.5 83.7,-63.4 86.7,-60.1 "
   id="polygon247" />
				<path
   class="st2"
   d="m 28,-60.6 c 0,0 -2.7,-2.5 -2.6,-3.5 0.1,-1 6,-1.8 6.8,-1.5 0.6,0.2 1.1,0.5 1.6,0.9 l -5.1,4.8 z"
   id="path249" />
				<path
   class="st2"
   d="m 29.4,-59.2 c 0,0 2.5,2.7 3.5,2.6 1,-0.1 1.8,-6 1.5,-6.9 C 33.8,-65 33.9,-65 33.9,-65 l -5.1,5.2 z"
   id="path251" />
				<path
   class="st2"
   d="m 51.8,-81.7 c 0,0 2.7,2.5 2.6,3.5 -0.1,1 -6,1.8 -6.9,1.5 -0.6,-0.2 -1.1,-0.5 -1.6,-0.9 l 5.1,-4.8 z"
   id="path253" />
				<path
   class="st2"
   d="m 50.5,-83 c 0,0 -2.5,-2.7 -3.5,-2.6 -1,0.1 -1.8,6 -1.5,6.9 0.6,1.5 0.4,1.5 0.4,1.5 l 5.2,-5.2 z"
   id="path255" />
				<polygon
   class="st2"
   points="29.3,-59.8 31.6,-64.5 46.5,-79.7 47.6,-77.2 33.9,-63.1 30.9,-59.8 "
   id="polygon257" />
				<path
   class="st2"
   d="m 65.6,-22.9 c 0,0 -2.7,-2.5 -2.6,-3.5 0.1,-1 6,-1.8 6.9,-1.5 0.6,0.2 1.1,0.5 1.6,0.9 l -5.2,4.8 z"
   id="path259" />
				<path
   class="st2"
   d="m 66.9,-21.7 c 0,0 2.5,2.7 3.5,2.6 1,-0.1 1.8,-6 1.5,-6.9 -0.6,-1.5 -0.4,-1.5 -0.4,-1.5 l -5.2,5.2 z"
   id="path261" />
				<path
   class="st2"
   d="m 89.4,-44.1 c 0,0 2.7,2.5 2.6,3.5 -0.1,1 -6,1.8 -6.9,1.5 -0.6,-0.2 -1.1,-0.5 -1.6,-0.9 l 5.2,-4.8 z"
   id="path263" />
				<path
   class="st2"
   d="m 88,-45.4 c 0,0 -2.5,-2.7 -3.5,-2.6 -1,0.1 -1.8,6 -1.5,6.9 0.6,1.5 0.5,1.5 0.5,1.5 l 5.2,-5.2 z"
   id="path265" />
				<polygon
   class="st2"
   points="66.9,-22.2 69.2,-26.9 84,-42.1 85.2,-39.6 71.4,-25.5 68.4,-22.2 "
   id="polygon267" />
				<polygon
   class="st2"
   points="69.1,-52.3 63.4,-48.6 68.3,-44.5 71.2,-45.6 69.9,-48.2 71.3,-51.1 "
   id="polygon269" />
				<polygon
   class="st2"
   points="66.6,-42.1 62,-47.2 58.9,-41.6 60.5,-39 62.8,-40.7 65.9,-39.9 "
   id="polygon271" />
				<polygon
   class="st2"
   points="47.7,-52.2 53.4,-55.9 48.5,-60 45.6,-58.9 46.9,-56.3 45.6,-53.4 "
   id="polygon273" />
				<polygon
   class="st2"
   points="50.2,-62.4 54.8,-57.4 57.9,-62.9 56.3,-65.5 54,-63.8 50.9,-64.6 "
   id="polygon275" />
				<polygon
   class="st2"
   points="58,-41.4 54.3,-47 50.2,-42.1 51.3,-39.3 53.9,-40.5 56.8,-39.2 "
   id="polygon277" />
				<polygon
   class="st2"
   points="48,-43.6 53.1,-48.3 47.5,-51.3 44.9,-49.8 46.6,-47.4 45.8,-44.3 "
   id="polygon279" />
				<polygon
   class="st2"
   points="59.2,-63.4 62.9,-57.7 66.9,-62.6 65.9,-65.5 63.3,-64.2 60.3,-65.6 "
   id="polygon281" />
				<polygon
   class="st2"
   points="69.1,-61.1 64.1,-56.5 69.6,-53.4 72.3,-55 70.5,-57.3 71.3,-60.4 "
   id="polygon283" />
				<circle
   class="st2"
   cx="58.5"
   cy="-51.799999"
   id="ellipse285"
   r="2.7" />
				<path
   class="st2"
   d="m 61.3,-88.6 4.3,0.6 c 0.5,0.1 0.9,0.5 0.8,1 0,0.2 -0.1,0.4 -0.3,0.6 l -3.7,3.7 c -0.4,0.4 -1,0.4 -1.4,0 -0.1,-0.1 -0.2,-0.3 -0.3,-0.5 l -0.6,-4.3 c -0.1,-0.5 0.3,-1 0.9,-1.1 0.2,0 0.3,0 0.3,0 z"
   id="path287" />
				<path
   class="st2"
   d="m 60.4,-87.6 c 0.2,1.2 0.4,3 0.6,4.3 0.1,0.5 0.6,0.9 1.1,0.8 0.2,0 0.4,-0.1 0.5,-0.3 l 3.7,-3.7 c 0.4,-0.4 0.3,-1 0,-1.4 -0.1,-0.1 -0.3,-0.2 -0.5,-0.3 l -4.3,-0.6 c -0.5,-0.1 -1,0.3 -1.1,0.8 0,0.2 0,0.3 0,0.4 z"
   id="path289" />
				<path
   class="st2"
   d="m 56.9,-87.6 c -0.2,1.2 -0.4,3 -0.6,4.3 -0.1,0.5 -0.6,0.9 -1.1,0.8 -0.2,0 -0.4,-0.1 -0.5,-0.3 L 51,-86.4 c -0.4,-0.4 -0.4,-1 0,-1.3 0.1,-0.2 0.3,-0.3 0.6,-0.3 l 4.3,-0.6 c 0.5,-0.1 1,0.3 1.1,0.8 -0.1,0 -0.1,0.1 -0.1,0.2 z"
   id="path291" />
				<path
   class="st2"
   d="m 56.9,-92.8 c -0.2,-1.2 -0.4,-3 -0.6,-4.3 -0.1,-0.5 -0.5,-0.9 -1,-0.8 -0.2,0 -0.4,0.1 -0.6,0.3 L 51,-94 c -0.4,0.4 -0.4,1 0,1.3 0.1,0.2 0.3,0.3 0.6,0.3 l 4.3,0.6 c 0.5,0.1 1,-0.2 1.1,-0.7 -0.1,-0.1 -0.1,-0.2 -0.1,-0.3 z"
   id="path293" />
				<path
   class="st2"
   d="m 60.4,-92.8 c 0.2,-1.2 0.4,-3 0.6,-4.3 0.1,-0.5 0.5,-0.9 1,-0.8 0.2,0 0.4,0.1 0.6,0.3 l 3.7,3.7 c 0.4,0.4 0.3,1 0,1.4 -0.1,0.1 -0.3,0.2 -0.5,0.3 l -4.3,0.6 c -0.5,0.1 -1,-0.2 -1.1,-0.7 0,-0.3 0,-0.4 0,-0.5 z"
   id="path295" />
				<path
   class="st2"
   d="m 99.2,-50.6 4.3,0.6 c 0.5,0.1 0.9,0.5 0.8,1 0,0.2 -0.1,0.4 -0.3,0.6 l -3.7,3.7 c -0.4,0.4 -1,0.4 -1.3,0 -0.2,-0.2 -0.3,-0.3 -0.3,-0.6 l -0.6,-4.3 c -0.1,-0.5 0.3,-1 0.8,-1.1 0.1,0.1 0.2,0.1 0.3,0.1 z"
   id="path297" />
				<path
   class="st2"
   d="m 98.3,-49.6 c 0.2,1.2 0.4,3 0.6,4.3 0.1,0.5 0.5,0.9 1,0.8 0.2,0 0.4,-0.1 0.6,-0.3 l 3.7,-3.8 c 0.4,-0.4 0.4,-1 0,-1.3 -0.1,-0.2 -0.3,-0.3 -0.6,-0.3 l -4.3,-0.6 c -0.5,-0.1 -1,0.2 -1.1,0.8 0.1,0.1 0.1,0.3 0.1,0.4 z"
   id="path299" />
				<path
   class="st2"
   d="m 94.8,-49.6 c -0.2,1.2 -0.4,3 -0.6,4.3 -0.1,0.5 -0.5,0.9 -1,0.8 -0.2,0 -0.4,-0.1 -0.6,-0.3 l -3.7,-3.8 c -0.4,-0.4 -0.4,-1 0,-1.3 0.1,-0.2 0.3,-0.3 0.6,-0.3 l 4.3,-0.6 c 0.5,-0.1 1,0.2 1.1,0.8 -0.1,0.1 -0.1,0.3 -0.1,0.4 z"
   id="path301" />
				<path
   class="st2"
   d="m 94.8,-54.8 c -0.2,-1.2 -0.4,-3 -0.6,-4.3 -0.1,-0.5 -0.5,-0.9 -1,-0.8 -0.2,0 -0.4,0.1 -0.6,0.3 l -3.7,3.6 c -0.4,0.4 -0.4,1 0,1.3 0.1,0.2 0.3,0.3 0.6,0.3 l 4.3,0.6 c 0.5,0.1 1,-0.3 1.1,-0.8 -0.1,0 -0.1,-0.1 -0.1,-0.2 z"
   id="path303" />
				<path
   class="st2"
   d="m 98.3,-54.8 c 0.2,-1.2 0.4,-3 0.6,-4.3 0.1,-0.5 0.5,-0.9 1,-0.8 0.2,0 0.4,0.1 0.6,0.3 l 3.7,3.7 c 0.4,0.4 0.4,1 0,1.3 -0.1,0.2 -0.3,0.3 -0.6,0.3 l -4.3,0.6 c -0.5,0.1 -1,-0.3 -1.1,-0.8 0.1,-0.1 0.1,-0.2 0.1,-0.3 z"
   id="path305" />
				<path
   class="st2"
   d="m 127.4,-98.7 c 0,0 2.7,-2.5 2.6,-3.5 -0.1,-1 -6,-1.8 -6.9,-1.5 -0.6,0.2 -1.1,0.5 -1.6,0.9 l 5.2,4.8 z"
   id="path307" />
				<path
   class="st2"
   d="m 126.1,-97.4 c 0,0 -2.5,2.7 -3.5,2.6 -1,-0.1 -1.8,-6.1 -1.5,-6.9 0.6,-1.5 0.5,-1.5 0.5,-1.5 l 5.2,5.2 z"
   id="path309" />
				<path
   class="st2"
   d="m 103.6,-119.9 c 0,0 -2.7,2.5 -2.6,3.5 0.1,1 6,1.8 6.9,1.5 0.6,-0.2 1.1,-0.6 1.6,-0.9 l -5.2,-4.8 z"
   id="path311" />
				<path
   class="st2"
   d="m 104.9,-121.2 c 0,0 2.5,-2.7 3.5,-2.6 1,0.1 1.8,6 1.5,6.9 -0.6,1.5 -0.5,1.5 -0.5,1.5 l -5.2,-5.2 z"
   id="path313" />
				<polygon
   class="st2"
   points="126.1,-98 123.8,-102.7 108.9,-117.9 107.8,-115.4 121.5,-101.3 124.5,-98 "
   id="polygon315" />
				<path
   class="st2"
   d="m 65.9,-98.5 c 0,0 -2.7,-2.5 -2.6,-3.5 0.1,-1 6,-1.8 6.9,-1.5 0.6,0.2 1.1,0.5 1.5,0.9 l -5.2,4.8 z"
   id="path317" />
				<path
   class="st2"
   d="m 67.2,-97.1 c 0,0 2.5,2.7 3.5,2.6 1,-0.1 1.8,-6 1.5,-6.9 -0.6,-1.5 -0.5,-1.5 -0.5,-1.5 l -5.2,5.1 z"
   id="path319" />
				<path
   class="st2"
   d="m 89.6,-119.6 c 0,0 2.7,2.5 2.6,3.5 -0.1,1 -6,1.8 -6.9,1.5 -0.6,-0.2 -1.1,-0.5 -1.5,-0.9 l 5.3,-4.7 z"
   id="path321" />
				<path
   class="st2"
   d="m 88.3,-120.9 c 0,0 -2.5,-2.7 -3.5,-2.6 -1,0.1 -1.8,6 -1.5,6.9 0.6,1.5 0.5,1.5 0.5,1.5 l 5.3,-5.1 z"
   id="path323" />
				<polygon
   class="st2"
   points="67.1,-97.7 69.4,-102.4 84.3,-117.6 85.4,-115.1 71.7,-101 68.7,-97.7 "
   id="polygon325" />
				<path
   class="st2"
   d="m 103.4,-60.8 c 0,0 -2.7,-2.5 -2.6,-3.5 0.1,-1 6,-1.8 6.9,-1.5 0.6,0.2 1.1,0.5 1.6,0.9 l -5.2,4.8 z"
   id="path327" />
				<path
   class="st2"
   d="m 104.8,-59.5 c 0,0 2.5,2.7 3.5,2.6 1,-0.1 1.8,-6 1.5,-6.9 -0.6,-1.5 -0.5,-1.5 -0.5,-1.5 l -5.2,5.2 z"
   id="path329" />
				<path
   class="st2"
   d="m 127.1,-82 c 0,0 2.7,2.5 2.6,3.5 -0.1,1 -6,1.8 -6.9,1.5 -0.6,-0.2 -1.1,-0.5 -1.6,-0.9 l 5.2,-4.8 z"
   id="path331" />
				<path
   class="st2"
   d="m 125.9,-83.3 c 0,0 -2.5,-2.7 -3.5,-2.6 -1,0.1 -1.8,6 -1.5,6.9 0.6,1.5 0.4,1.5 0.4,1.5 l 5.2,-5.2 z"
   id="path333" />
				<polygon
   class="st2"
   points="104.7,-60.1 107,-64.8 121.8,-80 123,-77.5 109.2,-63.4 106.3,-60.1 "
   id="polygon335" />
				<polygon
   class="st2"
   points="106.9,-90.2 101.2,-86.5 106.1,-82.4 109,-83.5 107.7,-86.1 109.1,-89 "
   id="polygon337" />
				<polygon
   class="st2"
   points="104.4,-80 99.8,-85 96.7,-79.5 98.3,-76.8 100.6,-78.6 103.8,-77.8 "
   id="polygon339" />
				<polygon
   class="st2"
   points="85.6,-90.1 91.2,-93.8 86.3,-97.9 83.5,-96.8 84.7,-94.2 83.4,-91.3 "
   id="polygon341" />
				<polygon
   class="st2"
   points="88,-100.3 92.6,-95.3 95.7,-100.8 94.1,-103.4 91.8,-101.7 88.7,-102.5 "
   id="polygon343" />
				<polygon
   class="st2"
   points="95.8,-79.3 92.1,-84.9 88,-80 89.1,-77.2 91.7,-78.4 94.6,-77.1 "
   id="polygon345" />
				<polygon
   class="st2"
   points="85.8,-81.5 90.9,-86.2 85.3,-89.2 82.7,-87.7 84.4,-85.3 83.7,-82.2 "
   id="polygon347" />
				<polygon
   class="st2"
   points="97,-101.3 100.7,-95.6 104.8,-100.5 103.7,-103.4 101.1,-102.1 98.2,-103.5 "
   id="polygon349" />
				<polygon
   class="st2"
   points="106.9,-99 101.9,-94.4 107.5,-91.3 110.1,-92.9 108.4,-95.2 109.2,-98.3 "
   id="polygon351" />
				<circle
   class="st2"
   cx="96.300003"
   cy="-89.699997"
   id="ellipse353"
   r="2.7" />
				<path
   class="st2"
   d="m 99.1,-126.4 4.3,0.6 c 0.5,0.1 0.9,0.5 0.8,1 0,0.2 -0.1,0.4 -0.3,0.6 l -3.7,3.7 c -0.4,0.4 -1,0.4 -1.3,0 -0.2,-0.2 -0.3,-0.3 -0.3,-0.6 l -0.6,-4.3 c -0.1,-0.5 0.3,-1 0.8,-1.1 0.2,0 0.3,0 0.3,0.1 z"
   id="path355" />
				<path
   class="st2"
   d="m 98.2,-125.5 0.6,4.3 c 0.1,0.5 0.6,0.9 1.1,0.8 0.2,0 0.4,-0.1 0.5,-0.3 l 3.7,-3.7 c 0.4,-0.4 0.4,-1 0,-1.3 -0.1,-0.2 -0.3,-0.3 -0.6,-0.3 l -4.3,-0.6 c -0.5,-0.1 -1,0.3 -1.1,0.8 0.1,0.1 0.1,0.2 0.1,0.3 z"
   id="path357" />
				<path
   class="st2"
   d="m 94.7,-125.5 -0.6,4.3 c -0.1,0.5 -0.6,0.9 -1.1,0.8 -0.2,0 -0.4,-0.1 -0.5,-0.3 l -3.7,-3.7 c -0.4,-0.4 -0.4,-1 0,-1.3 0.1,-0.2 0.3,-0.3 0.6,-0.3 l 4.2,-0.6 c 0.5,-0.1 1,0.2 1.1,0.7 0,0.2 0,0.3 0,0.4 z"
   id="path359" />
				<path
   class="st2"
   d="m 94.7,-130.7 -0.6,-4.3 c -0.1,-0.5 -0.5,-0.9 -1,-0.8 -0.2,0 -0.4,0.1 -0.6,0.3 l -3.7,3.7 c -0.4,0.4 -0.4,1 0,1.3 0.1,0.2 0.3,0.3 0.6,0.3 l 4.2,0.6 c 0.5,0.1 1,-0.2 1.1,-0.7 0,-0.2 0,-0.3 0,-0.4 z"
   id="path361" />
				<path
   class="st2"
   d="m 98.2,-130.7 0.6,-4.3 c 0.1,-0.5 0.5,-0.9 1,-0.8 0.2,0 0.4,0.1 0.6,0.3 l 3.7,3.7 c 0.4,0.4 0.4,1 0,1.3 -0.1,0.2 -0.3,0.3 -0.6,0.3 l -4.3,0.6 c -0.5,0.1 -1,-0.3 -1.1,-0.8 0.1,-0.1 0.1,-0.2 0.1,-0.3 z"
   id="path363" />
				<path
   class="st2"
   d="m 137.1,-88.4 4.3,0.6 c 0.5,0.1 0.9,0.5 0.8,1 0,0.2 -0.1,0.4 -0.3,0.6 l -3.6,3.7 c -0.4,0.4 -1,0.4 -1.4,0 -0.1,-0.1 -0.2,-0.3 -0.3,-0.5 l -0.6,-4.3 c -0.1,-0.5 0.3,-1 0.8,-1.1 0.1,0 0.2,-0.1 0.3,0 z"
   id="path365" />
				<path
   class="st2"
   d="m 136,-87.5 c 0.2,1.2 0.4,3 0.6,4.3 0.1,0.5 0.5,0.9 1,0.8 0.2,0 0.4,-0.1 0.6,-0.3 l 3.7,-3.7 c 0.4,-0.4 0.4,-1 0,-1.3 -0.1,-0.2 -0.3,-0.3 -0.6,-0.3 l -4.3,-0.6 c -0.5,-0.1 -1,0.3 -1.1,0.8 0.1,0.1 0.1,0.2 0.1,0.3 z"
   id="path367" />
				<path
   class="st2"
   d="m 132.6,-87.5 c -0.2,1.2 -0.4,3 -0.6,4.3 -0.1,0.5 -0.5,0.9 -1,0.8 -0.2,0 -0.4,-0.1 -0.6,-0.3 l -3.7,-3.7 c -0.4,-0.4 -0.3,-1 0,-1.4 0.1,-0.1 0.3,-0.2 0.5,-0.3 l 4.3,-0.6 c 0.5,-0.1 1,0.3 1.1,0.8 0,0.2 0,0.3 0,0.4 z"
   id="path369" />
				<path
   class="st2"
   d="m 132.6,-92.7 c -0.2,-1.2 -0.4,-3 -0.6,-4.3 -0.1,-0.5 -0.5,-0.9 -1,-0.8 -0.2,0 -0.4,0.1 -0.6,0.3 l -3.7,3.7 c -0.4,0.4 -0.3,1 0,1.4 0.1,0.1 0.3,0.2 0.5,0.3 l 4.3,0.6 c 0.5,0.1 1,-0.3 1.1,-0.8 0,-0.2 0,-0.3 0,-0.4 z"
   id="path371" />
				<path
   class="st2"
   d="m 136,-92.7 c 0.2,-1.2 0.4,-3 0.6,-4.3 0.1,-0.5 0.5,-0.9 1,-0.8 0.2,0 0.4,0.1 0.6,0.3 l 3.7,3.7 c 0.4,0.4 0.4,1 0,1.3 -0.1,0.2 -0.3,0.3 -0.6,0.3 l -4.3,0.6 c -0.5,0.1 -1,-0.3 -1.1,-0.8 0.1,-0.1 0.1,-0.2 0.1,-0.3 z"
   id="path373" />
				<path
   class="st2"
   d="m -52.3,101.3 4.3,0.6 c 0.5,0.1 0.9,0.5 0.8,1 0,0.2 -0.1,0.4 -0.3,0.6 l -3.7,3.7 c -0.4,0.4 -1,0.4 -1.3,0 -0.2,-0.2 -0.3,-0.3 -0.3,-0.6 l -0.6,-4.3 c -0.1,-0.5 0.3,-1 0.8,-1.1 0.1,0.1 0.2,0.1 0.3,0.1 z"
   id="path375" />
				<path
   class="st2"
   d="m -53.3,102.2 c 0.2,1.2 0.4,3 0.6,4.3 0.1,0.5 0.5,0.9 1,0.8 0.2,0 0.4,-0.1 0.6,-0.3 l 3.7,-3.7 c 0.4,-0.4 0.3,-1 -0.1,-1.4 -0.1,-0.1 -0.3,-0.2 -0.5,-0.2 l -4.3,-0.6 c -0.5,-0.1 -1,0.2 -1.1,0.7 0.1,0.2 0.1,0.3 0.1,0.4 z"
   id="path377" />
				<path
   class="st2"
   d="m -56.8,102.2 c -0.2,1.2 -0.4,3 -0.6,4.3 -0.1,0.5 -0.5,0.9 -1,0.8 -0.2,0 -0.4,-0.1 -0.6,-0.3 l -3.7,-3.7 c -0.4,-0.4 -0.4,-1 0,-1.4 0.1,-0.1 0.3,-0.2 0.5,-0.3 l 4.3,-0.6 c 0.5,-0.1 1,0.2 1.1,0.7 0.1,0.3 0.1,0.4 0,0.5 z"
   id="path379" />
				<path
   class="st2"
   d="m -56.8,97 c -0.2,-1.2 -0.4,-3 -0.6,-4.5 -0.1,-0.5 -0.6,-0.9 -1.1,-0.8 -0.2,0 -0.4,0.1 -0.5,0.3 l -3.7,3.7 c -0.4,0.4 -0.4,1 0,1.3 0.1,0.2 0.3,0.3 0.6,0.3 l 4.3,0.6 c 0.5,0.1 1,-0.3 1.1,-0.8 -0.1,0 -0.1,0 -0.1,-0.1 z"
   id="path381" />
				<path
   class="st2"
   d="m -53.3,97 c 0.2,-1.2 0.4,-3 0.6,-4.5 0.1,-0.5 0.6,-0.9 1.1,-0.8 0.2,0 0.4,0.1 0.5,0.3 l 3.7,3.7 c 0.4,0.4 0.3,1 0,1.4 -0.1,0.1 -0.3,0.2 -0.5,0.3 l -4.3,0.6 c -0.5,0.1 -1,-0.3 -1.1,-0.8 0,-0.1 0,-0.1 0,-0.2 z"
   id="path383" />
				<path
   class="st2"
   d="m 14.2,91 c 0,0 2.7,-2.5 2.6,-3.5 -0.1,-1 -6,-1.8 -6.9,-1.5 -0.6,0.2 -1.1,0.5 -1.5,0.9 l 5.2,4.8 z"
   id="path385" />
				<path
   class="st2"
   d="m 12.9,92.3 c 0,0 -2.5,2.7 -3.5,2.6 -1,-0.1 -1.8,-6 -1.5,-6.9 0.6,-1.5 0.5,-1.5 0.5,-1.5 l 5.2,5.2 z"
   id="path387" />
				<path
   class="st2"
   d="m -9.6,69.9 c 0,0 -2.7,2.5 -2.6,3.5 0.1,1 6,1.8 6.9,1.5 0.6,-0.2 1.1,-0.5 1.6,-0.9 L -9,69.2 Z"
   id="path389" />
				<path
   class="st2"
   d="m -8.3,68.5 c 0,0 2.5,-2.7 3.5,-2.6 1,0.1 1.8,6 1.5,6.9 -0.6,1.5 -0.4,1.5 -0.4,1.5 L -9,69.2 Z"
   id="path391" />
				<polygon
   class="st2"
   points="12.9,91.8 10.6,87.1 -4.2,71.9 -5.4,74.4 8.3,88.4 11.3,91.8 "
   id="polygon393" />
				<path
   class="st2"
   d="m -24.2,129.5 c 0,0 2.7,-2.5 2.6,-3.5 -0.1,-1 -6,-1.8 -6.9,-1.5 -0.6,0.2 -1.1,0.5 -1.5,0.9 l 5.1,4.8 z"
   id="path395" />
				<path
   class="st2"
   d="m -25.5,130.8 c 0,0 -2.5,2.7 -3.5,2.6 -1,-0.1 -1.8,-6 -1.5,-6.9 0.6,-1.5 0.5,-1.5 0.5,-1.5 l 5.2,5.2 z"
   id="path397" />
				<path
   class="st2"
   d="m -48,108.2 c 0,0 -2.7,2.5 -2.6,3.5 0.1,1 6,1.8 6.9,1.5 0.6,-0.2 1.1,-0.5 1.5,-0.9 l -5.1,-4.7 z"
   id="path399" />
				<path
   class="st2"
   d="m -46.6,107 c 0,0 2.5,-2.7 3.5,-2.6 1,0.1 1.8,6 1.5,6.9 -0.6,1.5 -0.4,1.5 -0.4,1.5 l -5.1,-5.2 z"
   id="path401" />
				<polygon
   class="st2"
   points="-25.5,130.2 -27.8,125.6 -42.6,110.3 -43.8,112.8 -30,126.9 -27,130.2 "
   id="polygon403" />
				<path
   class="st2"
   d="m -9.8,128.9 c 0,0 -2.7,-2.5 -2.6,-3.5 0.1,-1 6,-1.8 6.9,-1.5 0.6,0.2 1.1,0.6 1.6,0.9 l -5.3,4.8 z"
   id="path405" />
				<path
   class="st2"
   d="m -8.5,130.2 c 0,0 2.5,2.6 3.5,2.6 1,0 1.8,-6 1.5,-6.9 -0.6,-1.5 -0.5,-1.5 -0.5,-1.5 l -5.3,5.1 z"
   id="path407" />
				<path
   class="st2"
   d="m 14,107.8 c 0,0 2.7,2.5 2.6,3.5 -0.1,1 -6,1.8 -6.9,1.5 -0.6,-0.2 -1.1,-0.5 -1.6,-0.9 l 5.2,-4.8 z"
   id="path409" />
				<path
   class="st2"
   d="m 12.7,106.4 c 0,0 -2.5,-2.7 -3.5,-2.7 -1,0 -1.8,6 -1.5,6.9 0.6,1.5 0.5,1.5 0.5,1.5 l 5.2,-5.2 z"
   id="path411" />
				<polygon
   class="st2"
   points="-8.5,129.7 -6.2,125 8.7,109.7 9.8,112.3 -3.9,126.3 -6.9,129.7 "
   id="polygon413" />
				<polygon
   class="st2"
   points="-6.3,99.6 -12,103.3 -7.1,107.4 -4.2,106.3 -5.5,103.7 -4.1,100.8 "
   id="polygon415" />
				<polygon
   class="st2"
   points="-8.7,109.7 -13.4,104.7 -16.4,110.3 -14.9,112.9 -12.5,111.2 -9.4,112 "
   id="polygon417" />
				<polygon
   class="st2"
   points="-27.6,99.6 -22,95.9 -26.8,91.9 -29.7,92.9 -28.4,95.5 -29.8,98.5 "
   id="polygon419" />
				<polygon
   class="st2"
   points="-25.2,89.5 -20.5,94.5 -17.5,89 -19.1,86.3 -21.4,88.1 -24.5,87.3 "
   id="polygon421" />
				<polygon
   class="st2"
   points="-17.4,110.5 -21.1,104.8 -25.1,109.7 -24.1,112.6 -21.5,111.3 -18.5,112.7 "
   id="polygon423" />
				<polygon
   class="st2"
   points="-27.3,108.3 -22.3,103.6 -27.8,100.5 -30.5,102.1 -28.7,104.4 -29.5,107.5 "
   id="polygon425" />
				<polygon
   class="st2"
   points="-16.2,88.5 -12.5,94.2 -8.4,89.3 -9.5,86.4 -12.1,87.7 -15,86.3 "
   id="polygon427" />
				<polygon
   class="st2"
   points="-6.2,90.7 -11.3,95.4 -5.7,98.5 -3.1,96.9 -4.8,94.5 -4,91.4 "
   id="polygon429" />
				<circle
   class="st2"
   cx="-16.799999"
   cy="100"
   id="ellipse431"
   r="2.7" />
				<path
   class="st2"
   d="m 23.9,101.3 4.3,0.6 c 0.5,0.1 0.9,0.5 0.8,1 0,0.2 -0.1,0.4 -0.3,0.6 l -3.7,3.7 c -0.4,0.4 -1,0.4 -1.3,0 -0.2,-0.2 -0.3,-0.3 -0.3,-0.6 l -0.6,-4.3 c -0.1,-0.5 0.3,-1 0.8,-1.1 0.1,0.1 0.2,0.1 0.3,0.1 z"
   id="path433" />
				<path
   class="st2"
   d="m 22.9,102.2 c 0.2,1.2 0.4,3 0.6,4.3 0.1,0.5 0.5,0.9 1,0.8 0.2,0 0.4,-0.1 0.6,-0.3 l 3.6,-3.7 c 0.4,-0.4 0.4,-1 0,-1.4 -0.1,-0.1 -0.3,-0.2 -0.5,-0.3 L 23.9,101 c -0.5,-0.1 -1,0.3 -1,0.8 0,0.3 0,0.4 0,0.4 z"
   id="path435" />
				<path
   class="st2"
   d="m 19.4,102.2 c -0.2,1.2 -0.4,3 -0.6,4.3 -0.1,0.5 -0.5,0.9 -1,0.8 -0.2,0 -0.4,-0.1 -0.6,-0.3 l -3.7,-3.7 c -0.4,-0.4 -0.4,-1 0,-1.4 0.1,-0.1 0.3,-0.2 0.5,-0.3 l 4.3,-0.6 c 0.5,-0.1 1,0.2 1.1,0.7 0,0.3 0,0.4 0,0.5 z"
   id="path437" />
				<path
   class="st2"
   d="M 19.4,97 C 19.2,95.8 19,94 18.8,92.5 18.7,92 18.2,91.6 17.7,91.7 c -0.2,0 -0.4,0.1 -0.5,0.3 l -3.7,3.7 c -0.4,0.4 -0.4,1 0,1.3 0.1,0.2 0.3,0.3 0.6,0.3 l 4.3,0.6 c 0.5,0.1 1,-0.3 1.1,-0.8 -0.1,0 -0.1,0 -0.1,-0.1 z"
   id="path439" />
				<path
   class="st2"
   d="m 22.9,97 c 0.2,-1.2 0.4,-3 0.6,-4.5 0.1,-0.5 0.6,-0.9 1.1,-0.8 0.2,0 0.4,0.1 0.5,0.3 l 3.6,3.9 c 0.4,0.4 0.4,1 0,1.3 -0.1,0.2 -0.3,0.3 -0.6,0.3 l -4.3,0.6 c -0.5,0 -1,-0.3 -1,-0.9 0.1,0 0.1,-0.1 0.1,-0.2 z"
   id="path441" />
				<path
   class="st2"
   d="m 52,53.1 c 0,0 2.7,-2.5 2.6,-3.5 -0.1,-1 -6,-1.8 -6.9,-1.5 -0.6,0.2 -1.1,0.5 -1.6,0.9 l 5.2,4.8 z"
   id="path443" />
				<path
   class="st2"
   d="m 50.7,54.5 c 0,0 -2.5,2.7 -3.5,2.6 -1,-0.1 -1.8,-6 -1.5,-6.9 0.6,-1.5 0.5,-1.5 0.5,-1.5 l 5.2,5.2 z"
   id="path445" />
				<path
   class="st2"
   d="m 28.2,32.1 c 0,0 -2.7,2.5 -2.6,3.5 0.1,1 6,1.8 6.9,1.5 0.6,-0.2 1.1,-0.5 1.6,-0.9 l -5.2,-4.8 z"
   id="path447" />
				<path
   class="st2"
   d="m 29.6,30.6 c 0,0 2.5,-2.7 3.5,-2.6 1,0.1 1.8,6 1.5,6.9 -0.6,1.5 -0.5,1.5 -0.5,1.5 l -5.2,-5.2 z"
   id="path449" />
				<polygon
   class="st2"
   points="50.7,53.9 48.4,49.2 33.6,33.9 32.4,36.4 46.2,50.6 49.2,53.9 "
   id="polygon451" />
				<path
   class="st2"
   d="m 28,91 c 0,0 -2.7,-2.5 -2.6,-3.5 0.1,-1 6,-1.8 6.8,-1.5 0.6,0.2 1.1,0.5 1.6,0.9 l -5.1,4.8 z"
   id="path453" />
				<path
   class="st2"
   d="m 29.4,92.3 c 0,0 2.5,2.7 3.5,2.6 1,-0.1 1.8,-6 1.5,-6.9 -0.6,-1.5 -0.5,-1.5 -0.5,-1.5 l -5.1,5.2 z"
   id="path455" />
				<path
   class="st2"
   d="m 51.8,69.9 c 0,0 2.7,2.5 2.6,3.5 -0.1,1 -6,1.8 -6.9,1.5 C 47,74.6 46.5,74.3 46,74 l 5.1,-4.8 z"
   id="path457" />
				<path
   class="st2"
   d="m 50.5,68.5 c 0,0 -2.5,-2.7 -3.5,-2.6 -1,0.1 -1.8,6 -1.5,6.9 0.6,1.5 0.4,1.5 0.4,1.5 l 5.2,-5.2 z"
   id="path459" />
				<polygon
   class="st2"
   points="29.3,91.8 31.6,87.1 46.5,71.9 47.6,74.4 33.9,88.4 30.9,91.8 "
   id="polygon461" />
				<polygon
   class="st2"
   points="31.5,61.7 25.9,65.4 30.7,69.5 33.6,68.4 32.3,65.8 33.7,62.9 "
   id="polygon463" />
				<polygon
   class="st2"
   points="29.1,71.9 24.4,66.8 21.4,72.4 23,75 25.3,73.3 28.4,74.1 "
   id="polygon465" />
				<polygon
   class="st2"
   points="10.2,61.8 15.9,58 11,54 8.1,55 9.4,57.7 8,60.6 "
   id="polygon467" />
				<polygon
   class="st2"
   points="12.6,51.6 17.3,56.6 20.3,51.1 18.8,48.4 16.4,50.2 13.3,49.4 "
   id="polygon469" />
				<polygon
   class="st2"
   points="20.5,72.6 16.7,66.9 12.7,71.8 13.7,74.7 16.4,73.4 19.3,74.8 "
   id="polygon471" />
				<polygon
   class="st2"
   points="10.5,70.4 15.5,65.7 10,62.6 7.4,64.2 9.1,66.5 8.3,69.7 "
   id="polygon473" />
				<polygon
   class="st2"
   points="21.6,50.6 25.3,56.3 29.4,51.4 28.3,48.5 25.7,49.7 22.8,48.4 "
   id="polygon475" />
				<polygon
   class="st2"
   points="31.6,52.8 26.6,57.5 32.1,60.6 34.7,59 33,56.6 33.8,53.5 "
   id="polygon477" />
				<circle
   class="st2"
   cx="21"
   cy="62.200001"
   id="ellipse479"
   r="2.7" />
				<path
   class="st2"
   d="M 61.7,63.4 66,64 c 0.5,0.1 0.9,0.5 0.8,1 0,0.2 -0.1,0.4 -0.3,0.6 l -3.7,3.7 c -0.4,0.4 -1,0.4 -1.3,0 -0.2,-0.2 -0.3,-0.3 -0.3,-0.6 l -0.6,-4.3 c -0.1,-0.5 0.3,-1 0.8,-1.1 0.1,0.1 0.2,0.1 0.3,0.1 z"
   id="path481" />
				<path
   class="st2"
   d="m 60.8,64.4 c 0.2,1.2 0.4,3 0.6,4.3 0.1,0.5 0.5,0.9 1,0.8 0.2,0 0.4,-0.1 0.6,-0.3 l 3.8,-3.7 c 0.4,-0.4 0.4,-1 0,-1.3 -0.1,-0.2 -0.3,-0.3 -0.6,-0.3 l -4.3,-0.6 c -0.5,-0.1 -1,0.1 -1.2,0.6 0,0.2 0,0.3 0.1,0.5 z"
   id="path483" />
				<path
   class="st2"
   d="m 57.2,64.4 c -0.2,1.2 -0.4,3 -0.6,4.3 -0.1,0.5 -0.5,0.9 -1,0.8 -0.2,0 -0.4,-0.1 -0.6,-0.3 l -3.7,-3.7 c -0.4,-0.4 -0.3,-1 0,-1.4 0.1,-0.1 0.3,-0.2 0.5,-0.3 l 4.3,-0.6 c 0.5,-0.1 1,0.3 1.1,0.8 0.1,0.2 0.1,0.3 0,0.4 z"
   id="path485" />
				<path
   class="st2"
   d="m 57.2,59.1 c -0.2,-1.2 -0.4,-3 -0.6,-4.3 -0.1,-0.5 -0.5,-0.9 -1,-0.8 -0.2,0 -0.4,0.1 -0.6,0.3 L 51.3,58 c -0.4,0.4 -0.3,1 0,1.4 0.1,0.1 0.3,0.2 0.5,0.3 l 4.3,0.6 c 0.5,0.1 1,-0.3 1.1,-0.8 0.1,-0.2 0.1,-0.3 0,-0.4 z"
   id="path487" />
				<path
   class="st2"
   d="m 60.8,59.1 c 0.2,-1.2 0.4,-3 0.6,-4.3 0.1,-0.5 0.5,-0.9 1,-0.8 0.2,0 0.4,0.1 0.6,0.3 l 3.8,3.7 c 0.4,0.4 0.4,1 0,1.3 -0.1,0.2 -0.3,0.3 -0.6,0.3 l -4.3,0.6 c -0.5,0.1 -1,-0.1 -1.2,-0.6 0,-0.2 0,-0.3 0.1,-0.5 z"
   id="path489" />
				<path
   class="st2"
   d="m 89.8,15.2 c 0,0 2.7,-2.5 2.6,-3.5 -0.1,-1 -6,-1.8 -6.9,-1.5 -0.6,0.2 -1.1,0.5 -1.6,0.9 l 5.1,4.8 z"
   id="path491" />
				<path
   class="st2"
   d="m 88.5,16.6 c 0,0 -2.5,2.7 -3.5,2.6 -1,-0.1 -1.8,-6.1 -1.5,-6.9 0.6,-1.5 0.4,-1.5 0.4,-1.5 l 5.2,5.2 z"
   id="path493" />
				<path
   class="st2"
   d="m 66.1,-6 c 0,0 -2.7,2.5 -2.6,3.5 0.1,1 6,1.8 6.8,1.5 0.6,-0.2 1.1,-0.5 1.6,-0.9 l -5.1,-4.7 z"
   id="path495" />
				<path
   class="st2"
   d="m 67.4,-7.2 c 0,0 2.5,-2.7 3.5,-2.6 1,0.1 1.8,6 1.5,6.9 -0.6,1.5 -0.5,1.5 -0.5,1.5 l -5.2,-5.2 z"
   id="path497" />
				<polygon
   class="st2"
   points="88.6,16 86.3,11.3 71.4,-4 70.2,-1.4 84,12.7 87,16 "
   id="polygon499" />
				<path
   class="st2"
   d="m 65.9,53.1 c 0,0 -2.7,-2.5 -2.6,-3.5 0.1,-1 6,-1.8 6.9,-1.5 0.6,0.2 1.1,0.5 1.5,0.9 l -5.2,4.8 z"
   id="path501" />
				<path
   class="st2"
   d="m 67.2,54.5 c 0,0 2.5,2.7 3.5,2.6 1,-0.1 1.8,-6 1.5,-6.9 -0.6,-1.5 -0.5,-1.5 -0.5,-1.5 l -5.2,5.2 z"
   id="path503" />
				<path
   class="st2"
   d="m 89.6,32.1 c 0,0 2.7,2.5 2.6,3.5 -0.1,1 -6,1.8 -6.9,1.5 -0.6,-0.2 -1.1,-0.5 -1.5,-0.9 l 5.3,-4.9 z"
   id="path505" />
				<path
   class="st2"
   d="m 88.3,30.6 c 0,0 -2.5,-2.7 -3.5,-2.6 -1,0.1 -1.8,6 -1.5,6.9 0.6,1.5 0.5,1.5 0.5,1.5 l 5.3,-5.2 z"
   id="path507" />
				<polygon
   class="st2"
   points="67.1,53.9 69.4,49.2 84.3,33.9 85.4,36.4 71.7,50.6 68.7,53.9 "
   id="polygon509" />
				<polygon
   class="st2"
   points="69.3,23.8 63.7,27.5 68.6,31.6 71.4,30.5 70.2,27.9 71.5,25 "
   id="polygon511" />
				<polygon
   class="st2"
   points="66.9,34 62.2,28.9 59.2,34.5 60.8,37.1 63.1,35.4 66.2,36.2 "
   id="polygon513" />
				<polygon
   class="st2"
   points="48,23.9 53.7,20.1 48.8,16.1 45.9,17.1 47.2,19.8 45.8,22.7 "
   id="polygon515" />
				<polygon
   class="st2"
   points="50.4,13.7 55.1,18.7 58.2,13.2 56.6,10.5 54.2,12.3 51.1,11.5 "
   id="polygon517" />
				<polygon
   class="st2"
   points="58.3,34.7 54.6,29.1 50.5,33.9 51.6,36.8 54.2,35.6 57.1,36.9 "
   id="polygon519" />
				<polygon
   class="st2"
   points="48.3,32.5 53.3,27.8 47.8,24.7 45.2,26.3 46.9,28.7 46.1,31.8 "
   id="polygon521" />
				<polygon
   class="st2"
   points="59.4,12.7 63.2,18.4 67.2,13.5 66.2,10.6 63.5,11.9 60.6,10.5 "
   id="polygon523" />
				<polygon
   class="st2"
   points="69.4,14.9 64.4,19.6 69.9,22.7 72.6,21.1 70.8,18.8 71.6,15.6 "
   id="polygon525" />
				<circle
   class="st2"
   cx="58.799999"
   cy="24.299999"
   id="ellipse527"
   r="2.7" />
				<path
   class="st2"
   d="m 99.5,25.5 4.4,0.6 c 0.5,0.1 0.9,0.6 0.8,1.1 0,0.2 -0.1,0.4 -0.3,0.5 l -3.7,3.7 c -0.4,0.4 -1,0.4 -1.4,0 -0.1,-0.1 -0.2,-0.3 -0.3,-0.5 l -0.6,-4.3 c -0.1,-0.5 0.3,-1 0.8,-1.1 0.1,0 0.2,0 0.3,0 z"
   id="path529" />
				<path
   class="st2"
   d="m 98.6,26.5 c 0.2,1.2 0.4,3 0.6,4.3 0.1,0.5 0.5,0.9 1,0.8 0.2,0 0.4,-0.1 0.6,-0.3 l 3.7,-3.7 c 0.4,-0.4 0.4,-1 0,-1.3 C 104.4,26.1 104.2,26 104,26 l -4.3,-0.6 c -0.5,-0.1 -1,0.3 -1.1,0.9 0,0 0,0.1 0,0.2 z"
   id="path531" />
				<path
   class="st2"
   d="m 95.1,26.5 c -0.2,1.2 -0.4,3 -0.6,4.3 -0.1,0.5 -0.5,0.9 -1,0.8 -0.2,0 -0.4,-0.1 -0.6,-0.3 l -3.8,-3.7 c -0.4,-0.4 -0.4,-1 0,-1.3 0.1,-0.2 0.3,-0.3 0.5,-0.3 L 94,25.4 c 0.5,-0.1 1,0.3 1.1,0.9 0,0 0,0.1 0,0.2 z"
   id="path533" />
				<path
   class="st2"
   d="m 95.1,21.2 c -0.2,-1.2 -0.4,-3 -0.6,-4.3 -0.1,-0.5 -0.5,-0.9 -1,-0.8 -0.2,0 -0.4,0.1 -0.6,0.3 l -3.8,3.7 c -0.4,0.4 -0.4,1 0,1.3 0.1,0.2 0.3,0.3 0.5,0.3 l 4.3,0.6 c 0.5,0.1 1,-0.2 1.2,-0.8 0,-0.1 0,-0.2 0,-0.3 z"
   id="path535" />
				<path
   class="st2"
   d="m 98.6,21.2 c 0.2,-1.2 0.4,-3 0.6,-4.3 0.1,-0.5 0.5,-0.9 1,-0.8 0.2,0 0.4,0.1 0.6,0.3 l 3.7,3.7 c 0.4,0.4 0.4,1 0,1.3 -0.1,0.2 -0.3,0.3 -0.5,0.3 l -4.3,0.6 c -0.5,0.1 -1,-0.3 -1.1,-0.9 0,0 0,-0.1 0,-0.2 z"
   id="path537" />
				<path
   class="st2"
   d="m 127.6,-22.7 c 0,0 2.7,-2.5 2.6,-3.5 -0.1,-1 -6,-1.8 -6.9,-1.5 -0.6,0.2 -1.1,0.5 -1.5,0.9 l 5.3,4.8 z"
   id="path539" />
				<path
   class="st2"
   d="m 126.3,-21.3 c 0,0 -2.5,2.7 -3.5,2.6 -1,-0.1 -1.8,-6.1 -1.5,-6.9 0.6,-1.5 0.5,-1.5 0.5,-1.5 l 5.2,5.1 z"
   id="path541" />
				<path
   class="st2"
   d="m 103.9,-43.8 c 0,0 -2.7,2.5 -2.6,3.5 0.1,1 6,1.8 6.9,1.5 0.6,-0.2 1.1,-0.5 1.5,-0.9 l -5.2,-4.8 z"
   id="path543" />
				<path
   class="st2"
   d="m 105.2,-45.2 c 0,0 2.5,-2.7 3.5,-2.6 1,0.1 1.8,6.1 1.5,6.9 -0.6,1.5 -0.5,1.5 -0.5,1.5 l -5.2,-5.2 z"
   id="path545" />
				<polygon
   class="st2"
   points="126.4,-21.9 124.1,-26.6 109.2,-41.8 108.1,-39.3 121.8,-25.2 124.8,-21.9 "
   id="polygon547" />
				<path
   class="st2"
   d="m 103.7,15.2 c 0,0 -2.7,-2.5 -2.6,-3.5 0.1,-1 6,-1.8 6.9,-1.5 0.6,0.2 1.1,0.5 1.5,0.9 l -5.2,4.8 z"
   id="path549" />
				<path
   class="st2"
   d="m 105,16.6 c 0,0 2.5,2.7 3.5,2.6 1,-0.1 1.8,-6.1 1.5,-6.9 -0.6,-1.5 -0.5,-1.5 -0.5,-1.5 l -5.2,5.2 z"
   id="path551" />
				<path
   class="st2"
   d="m 127.4,-6 c 0,0 2.7,2.5 2.6,3.5 -0.1,1 -6,1.8 -6.9,1.5 -0.6,-0.2 -1.1,-0.5 -1.5,-0.9 l 5.2,-4.8 z"
   id="path553" />
				<path
   class="st2"
   d="m 126.1,-7.2 c 0,0 -2.5,-2.7 -3.5,-2.6 -1,0.1 -1.8,6 -1.5,6.9 0.6,1.5 0.5,1.5 0.5,1.5 l 5.2,-5.2 z"
   id="path555" />
				<polygon
   class="st2"
   points="104.9,16 107.3,11.3 122.1,-4 123.3,-1.4 109.5,12.7 106.5,16 "
   id="polygon557" />
				<polygon
   class="st2"
   points="107.2,-14.1 101.5,-10.4 106.4,-6.3 109.2,-7.4 108,-10 109.4,-12.9 "
   id="polygon559" />
				<polygon
   class="st2"
   points="104.7,-3.9 100.1,-9 97,-3.4 98.6,-0.8 100.9,-2.5 104,-1.7 "
   id="polygon561" />
				<polygon
   class="st2"
   points="85.8,-14 91.5,-17.8 86.6,-21.8 83.7,-20.8 85,-18.1 83.6,-15.2 "
   id="polygon563" />
				<polygon
   class="st2"
   points="88.3,-24.2 92.9,-19.2 96,-24.7 94.4,-27.4 92.1,-25.6 89,-26.4 "
   id="polygon565" />
				<polygon
   class="st2"
   points="96.1,-3.2 92.4,-8.8 88.3,-4 89.4,-1.1 92,-2.3 94.9,-1 "
   id="polygon567" />
				<polygon
   class="st2"
   points="86.1,-5.4 91.1,-10.1 85.6,-13.2 83,-11.6 84.7,-9.2 83.9,-6.1 "
   id="polygon569" />
				<polygon
   class="st2"
   points="97.3,-25.2 101,-19.5 105,-24.4 104,-27.3 101.4,-26 98.5,-27.4 "
   id="polygon571" />
				<polygon
   class="st2"
   points="107.2,-22.9 102.2,-18.3 107.8,-15.2 110.4,-16.8 108.6,-19.1 109.4,-22.2 "
   id="polygon573" />
				<circle
   class="st2"
   cx="96.599998"
   cy="-13.6"
   id="ellipse575"
   r="2.7" />
				<path
   class="st2"
   d="m 137.3,-12.4 4.3,0.6 c 0.5,0.1 0.9,0.5 0.8,1 0,0.2 -0.1,0.4 -0.3,0.6 l -3.7,3.7 c -0.4,0.4 -1,0.4 -1.4,0 -0.1,-0.1 -0.2,-0.3 -0.3,-0.5 l -0.6,-4.3 c -0.1,-0.5 0.3,-1 0.9,-1.1 0.2,0 0.3,0 0.3,0 z"
   id="path577" />
				<path
   class="st2"
   d="m 136.4,-11.4 c 0.2,1.2 0.4,3 0.6,4.3 0.1,0.5 0.6,0.9 1.1,0.8 0.2,0 0.4,-0.1 0.5,-0.3 l 3.7,-3.7 c 0.4,-0.4 0.3,-1 0,-1.4 -0.1,-0.1 -0.3,-0.2 -0.5,-0.3 l -4.3,-0.6 c -0.5,-0.1 -1,0.3 -1.1,0.8 0,0.2 0,0.3 0,0.4 z"
   id="path579" />
				<path
   class="st2"
   d="m 132.9,-11.4 c -0.2,1.2 -0.4,3 -0.6,4.3 -0.1,0.5 -0.6,0.9 -1.1,0.8 -0.2,0 -0.4,-0.1 -0.5,-0.3 l -3.6,-3.7 c -0.4,-0.4 -0.4,-1 0,-1.3 0.1,-0.2 0.3,-0.3 0.6,-0.3 l 4.3,-0.6 c 0.5,0 1,0.4 1,1 -0.1,0 -0.1,0 -0.1,0.1 z"
   id="path581" />
				<path
   class="st2"
   d="m 132.9,-16.6 c -0.2,-1.2 -0.4,-3 -0.6,-4.3 -0.1,-0.5 -0.5,-0.9 -1,-0.8 -0.2,0 -0.4,0.1 -0.6,0.3 l -3.6,3.7 c -0.4,0.4 -0.4,1 0,1.3 0.1,0.2 0.3,0.3 0.6,0.3 l 4.3,0.6 c 0.5,0 1,-0.4 1,-0.9 -0.1,-0.2 -0.1,-0.2 -0.1,-0.2 z"
   id="path583" />
				<path
   class="st2"
   d="m 136.4,-16.6 c 0.2,-1.2 0.4,-3 0.6,-4.3 0.1,-0.5 0.5,-0.9 1,-0.8 0.2,0 0.4,0.1 0.6,0.3 l 3.7,3.7 c 0.4,0.4 0.3,1 0,1.4 -0.1,0.1 -0.3,0.2 -0.5,0.3 l -4.3,0.6 c -0.5,0.1 -1,-0.2 -1.1,-0.7 0,-0.3 0,-0.4 0,-0.5 z"
   id="path585" />
				<path
   class="st2"
   d="m 165.5,-60.6 c 0,0 2.7,-2.5 2.6,-3.5 -0.1,-1 -6,-1.8 -6.9,-1.5 -0.6,0.2 -1.1,0.5 -1.5,0.9 l 5.2,4.8 z"
   id="path587" />
				<path
   class="st2"
   d="m 164.1,-59.2 c 0,0 -2.5,2.7 -3.5,2.6 -1,-0.1 -1.8,-6 -1.5,-6.9 0.6,-1.5 0.5,-1.5 0.5,-1.5 l 5.2,5.2 z"
   id="path589" />
				<path
   class="st2"
   d="m 141.7,-81.7 c 0,0 -2.7,2.5 -2.6,3.5 0.1,1 6,1.8 6.9,1.5 0.6,-0.2 1.1,-0.5 1.5,-0.9 l -5.2,-4.8 z"
   id="path591" />
				<path
   class="st2"
   d="m 143,-83 c 0,0 2.5,-2.7 3.5,-2.6 1,0.1 1.8,6 1.5,6.9 -0.6,1.5 -0.5,1.5 -0.5,1.5 l -5.2,-5.2 z"
   id="path593" />
				<polygon
   class="st2"
   points="164.2,-59.8 161.9,-64.5 147,-79.7 145.9,-77.2 159.6,-63.1 162.6,-59.8 "
   id="polygon595" />
				<path
   class="st2"
   d="m 141.5,-22.7 c 0,0 -2.7,-2.5 -2.6,-3.5 0.1,-1 6,-1.8 6.9,-1.5 0.6,0.2 1.1,0.6 1.6,0.9 l -5.2,4.8 z"
   id="path597" />
				<path
   class="st2"
   d="m 142.8,-21.3 c 0,0 2.5,2.7 3.5,2.6 1,-0.1 1.8,-6.1 1.5,-6.9 -0.6,-1.5 -0.4,-1.5 -0.4,-1.5 l -5.3,5.2 z"
   id="path599" />
				<path
   class="st2"
   d="m 165.3,-43.8 c 0,0 2.7,2.5 2.6,3.5 -0.1,1 -6,1.8 -6.9,1.5 -0.6,-0.2 -1.1,-0.5 -1.5,-0.9 l 5.2,-4.8 z"
   id="path601" />
				<path
   class="st2"
   d="m 163.9,-45.2 c 0,0 -2.5,-2.7 -3.5,-2.6 -1,0.1 -1.8,6.1 -1.5,6.9 0.6,1.5 0.5,1.5 0.5,1.5 l 5.2,-5.2 z"
   id="path603" />
				<polygon
   class="st2"
   points="142.8,-21.9 145.1,-26.6 159.9,-41.8 161.1,-39.3 147.3,-25.2 144.4,-21.9 "
   id="polygon605" />
				<polygon
   class="st2"
   points="145,-52 139.3,-48.3 144.2,-44.2 147.1,-45.3 145.8,-47.9 147.2,-50.8 "
   id="polygon607" />
				<polygon
   class="st2"
   points="142.6,-41.8 137.9,-46.9 134.8,-41.3 136.4,-38.7 138.8,-40.4 141.9,-39.6 "
   id="polygon609" />
				<polygon
   class="st2"
   points="123.7,-51.9 129.3,-55.7 124.4,-59.7 121.6,-58.7 122.8,-56 121.5,-53.1 "
   id="polygon611" />
				<polygon
   class="st2"
   points="126.1,-62.1 130.7,-57.1 133.8,-62.6 132.2,-65.2 129.9,-63.5 126.8,-64.3 "
   id="polygon613" />
				<polygon
   class="st2"
   points="133.9,-41.1 130.2,-46.7 126.1,-41.9 127.2,-39 129.8,-40.3 132.7,-38.9 "
   id="polygon615" />
				<polygon
   class="st2"
   points="124,-43.3 129,-48 123.4,-51.1 120.8,-49.5 122.5,-47.1 121.7,-44 "
   id="polygon617" />
				<polygon
   class="st2"
   points="135.1,-63.1 138.8,-57.4 142.9,-62.3 141.8,-65.2 139.2,-63.9 136.3,-65.3 "
   id="polygon619" />
				<polygon
   class="st2"
   points="145.1,-60.8 140,-56.2 145.6,-53.1 148.2,-54.7 146.5,-57 147.2,-60.2 "
   id="polygon621" />
				<circle
   class="st2"
   cx="134.39999"
   cy="-51.5"
   id="ellipse623"
   r="2.7" />
				<path
   class="st2"
   d="m 175.2,-50.3 4.3,0.6 c 0.5,0.1 0.9,0.5 0.8,1 0,0.2 -0.1,0.4 -0.3,0.6 l -3.8,3.7 c -0.4,0.4 -1,0.4 -1.3,0 -0.2,-0.2 -0.3,-0.3 -0.3,-0.6 l -0.6,-4.3 c -0.1,-0.5 0.3,-1 0.8,-1.1 0.2,0.1 0.3,0.1 0.4,0.1 z"
   id="path625" />
				<path
   class="st2"
   d="m 174.2,-49.3 0.6,4.3 c 0.1,0.5 0.6,0.9 1.1,0.8 0.2,0 0.4,-0.1 0.5,-0.3 l 3.7,-3.7 c 0.4,-0.4 0.4,-1 0,-1.3 -0.1,-0.2 -0.3,-0.3 -0.6,-0.3 l -4.3,-0.6 c -0.5,-0.1 -1,0.3 -1.1,0.8 0.1,0.1 0.1,0.2 0.1,0.3 z"
   id="path627" />
				<path
   class="st2"
   d="m 170.7,-49.3 -0.6,4.3 c -0.1,0.5 -0.6,0.9 -1.1,0.8 -0.2,0 -0.4,-0.1 -0.5,-0.3 l -3.7,-3.7 c -0.4,-0.4 -0.4,-1 0,-1.3 0.1,-0.2 0.3,-0.3 0.6,-0.3 l 4.3,-0.6 c 0.5,-0.1 1,0.3 1.1,0.8 -0.1,0.1 -0.1,0.2 -0.1,0.3 z"
   id="path629" />
				<path
   class="st2"
   d="m 170.7,-54.5 -0.6,-4.3 c -0.1,-0.5 -0.5,-0.9 -1,-0.8 -0.2,0 -0.4,0.1 -0.6,0.3 l -3.7,3.7 c -0.4,0.4 -0.4,1 0,1.3 0.1,0.2 0.3,0.3 0.6,0.3 l 4.3,0.6 c 0.5,0.1 1,-0.3 1.1,-0.8 -0.1,-0.2 -0.1,-0.3 -0.1,-0.3 z"
   id="path631" />
				<path
   class="st2"
   d="m 174.2,-54.5 0.6,-4.3 c 0.1,-0.5 0.5,-0.9 1,-0.8 0.2,0 0.4,0.1 0.6,0.3 l 3.7,3.7 c 0.4,0.4 0.4,1 0,1.3 -0.1,0.2 -0.3,0.3 -0.6,0.3 l -4.3,0.6 c -0.5,0.1 -1,-0.3 -1.1,-0.8 0.1,-0.2 0.1,-0.3 0.1,-0.3 z"
   id="path633" />
				<path
   class="st2"
   d="m -14.2,139.6 4.3,0.6 c 0.5,0.1 0.9,0.6 0.8,1.1 0,0.2 -0.1,0.4 -0.3,0.5 l -3.7,3.7 c -0.4,0.4 -1,0.4 -1.4,0 -0.1,-0.1 -0.2,-0.3 -0.3,-0.5 l -0.6,-4.3 c -0.1,-0.5 0.3,-1 0.8,-1.1 0.2,0 0.3,0 0.4,0 z"
   id="path635" />
				<path
   class="st2"
   d="m -15.2,140.4 c 0.2,1.2 0.4,3 0.6,4.3 0.1,0.5 0.5,0.9 1,0.8 0.2,0 0.4,-0.1 0.6,-0.3 l 3.7,-3.7 c 0.4,-0.4 0.4,-1 0,-1.3 -0.1,-0.2 -0.3,-0.3 -0.5,-0.3 l -4.3,-0.6 c -0.5,-0.1 -1,0.3 -1.1,0.8 0,0.1 0,0.2 0,0.3 z"
   id="path637" />
				<path
   class="st2"
   d="m -18.7,140.4 c -0.2,1.2 -0.4,3 -0.6,4.3 -0.1,0.5 -0.5,0.9 -1,0.8 -0.2,0 -0.4,-0.1 -0.6,-0.3 l -3.7,-3.7 c -0.4,-0.4 -0.3,-1 0,-1.4 0.1,-0.1 0.3,-0.2 0.5,-0.3 l 4.3,-0.6 c 0.5,-0.1 1,0.3 1.1,0.9 0,0.2 0,0.3 0,0.3 z"
   id="path639" />
				<path
   class="st2"
   d="m -18.7,135.2 c -0.2,-1.2 -0.4,-3 -0.6,-4.3 -0.1,-0.5 -0.5,-0.9 -1,-0.8 -0.2,0 -0.4,0.1 -0.6,0.3 l -3.7,3.7 c -0.4,0.4 -0.3,1 0,1.4 0.1,0.1 0.3,0.2 0.5,0.3 l 4.3,0.6 c 0.5,0.1 1,-0.3 1.1,-0.9 0,-0.2 0,-0.2 0,-0.3 z"
   id="path641" />
				<path
   class="st2"
   d="m -15.2,135.2 c 0.2,-1.2 0.4,-3 0.6,-4.3 0.1,-0.5 0.5,-0.9 1,-0.8 0.2,0 0.4,0.1 0.6,0.3 l 3.7,3.7 c 0.4,0.4 0.4,1 0,1.3 -0.1,0.2 -0.3,0.3 -0.5,0.3 l -4.3,0.6 c -0.5,0.1 -1,-0.3 -1.1,-0.8 0,-0.1 0,-0.2 0,-0.3 z"
   id="path643" />
				<path
   class="st2"
   d="m 52.3,129.2 c 0,0 2.7,-2.5 2.6,-3.5 -0.1,-1 -6,-1.8 -6.9,-1.5 -0.6,0.2 -1.1,0.5 -1.5,0.9 l 5.2,4.8 z"
   id="path645" />
				<path
   class="st2"
   d="m 51,130.6 c 0,0 -2.5,2.7 -3.5,2.6 -1,-0.1 -1.8,-6.1 -1.5,-6.9 0.6,-1.5 0.5,-1.5 0.5,-1.5 l 5.2,5.2 z"
   id="path647" />
				<path
   class="st2"
   d="m 28.5,108 c 0,0 -2.7,2.5 -2.6,3.5 0.1,1 6,1.8 6.9,1.5 0.6,-0.2 1.1,-0.5 1.5,-0.9 l -5.2,-4.8 z"
   id="path649" />
				<path
   class="st2"
   d="m 29.8,106.7 c 0,0 2.5,-2.7 3.5,-2.6 1,0.1 1.8,6 1.5,6.9 -0.6,1.5 -0.5,1.5 -0.5,1.5 l -5.2,-5.2 z"
   id="path651" />
				<polygon
   class="st2"
   points="51,129.9 48.7,125.3 33.9,110 32.7,112.5 46.4,126.6 49.4,129.9 "
   id="polygon653" />
				<path
   class="st2"
   d="m 13.9,167.7 c 0,0 2.7,-2.5 2.6,-3.5 -0.1,-1 -6,-1.8 -6.9,-1.5 -0.6,0.2 -1.1,0.5 -1.5,0.9 l 5.2,4.8 z"
   id="path655" />
				<path
   class="st2"
   d="m 12.6,169 c 0,0 -2.5,2.7 -3.5,2.6 -1,-0.1 -1.8,-6 -1.5,-6.9 0.6,-1.5 0.5,-1.5 0.5,-1.5 l 5.2,5.2 z"
   id="path657" />
				<path
   class="st2"
   d="m -9.9,146.5 c 0,0 -2.7,2.5 -2.6,3.5 0.1,1 6,1.8 6.9,1.5 0.6,-0.2 1.1,-0.5 1.5,-0.9 l -5.2,-4.8 z"
   id="path659" />
				<path
   class="st2"
   d="m -8.5,145.2 c 0,0 2.5,-2.7 3.5,-2.6 1,0.1 1.8,6 1.5,6.9 -0.6,1.4 -0.5,1.5 -0.5,1.5 l -5.2,-5.2 z"
   id="path661" />
				<polygon
   class="st2"
   points="12.6,168.4 10.3,163.7 -4.5,148.5 -5.7,151 8.1,165.1 11.1,168.4 "
   id="polygon663" />
				<path
   class="st2"
   d="m 28.3,167.1 c 0,0 -2.7,-2.5 -2.6,-3.5 0.1,-1 6,-1.8 6.9,-1.5 0.6,0.2 1.1,0.5 1.5,0.9 l -5.2,4.8 z"
   id="path665" />
				<path
   class="st2"
   d="m 29.6,168.4 c 0,0 2.5,2.7 3.5,2.6 1,-0.1 1.8,-6 1.5,-6.9 -0.6,-1.5 -0.5,-1.5 -0.5,-1.5 l -5.2,5.2 z"
   id="path667" />
				<path
   class="st2"
   d="m 52.1,145.9 c 0,0 2.7,2.5 2.6,3.5 -0.1,1 -6,1.8 -6.9,1.5 -0.6,-0.2 -1.1,-0.5 -1.5,-0.9 l 5.2,-4.8 z"
   id="path669" />
				<path
   class="st2"
   d="m 50.8,144.6 c 0,0 -2.5,-2.7 -3.5,-2.6 -1,0.1 -1.8,6 -1.5,6.9 0.6,1.5 0.5,1.5 0.5,1.5 l 5.2,-5.2 z"
   id="path671" />
				<polygon
   class="st2"
   points="29.6,167.8 31.9,163.2 46.7,147.9 47.9,150.4 34.2,164.5 31.2,167.8 "
   id="polygon673" />
				<polygon
   class="st2"
   points="31.8,137.8 26.2,141.5 31,145.5 33.9,144.5 32.6,141.9 34,138.9 "
   id="polygon675" />
				<polygon
   class="st2"
   points="29.4,147.9 24.7,142.9 21.6,148.4 23.2,151.1 25.6,149.3 28.7,150.1 "
   id="polygon677" />
				<polygon
   class="st2"
   points="10.5,137.8 16.1,134.1 11.2,130 8.4,131.1 9.6,133.7 8.3,136.6 "
   id="polygon679" />
				<polygon
   class="st2"
   points="12.9,127.7 17.5,132.7 20.6,127.1 19,124.5 16.7,126.2 13.6,125.4 "
   id="polygon681" />
				<polygon
   class="st2"
   points="20.7,148.7 17,143 13,147.9 14,150.8 16.7,149.5 19.5,150.9 "
   id="polygon683" />
				<polygon
   class="st2"
   points="10.8,146.4 15.8,141.8 10.2,138.7 7.6,140.3 9.3,142.6 8.6,145.7 "
   id="polygon685" />
				<polygon
   class="st2"
   points="21.9,126.7 25.6,132.3 29.7,127.4 28.6,124.6 26,125.8 23.1,124.5 "
   id="polygon687" />
				<polygon
   class="st2"
   points="31.9,128.9 26.8,133.6 32.4,136.6 35,135.1 33.3,132.7 34.1,129.6 "
   id="polygon689" />
				<circle
   class="st2"
   cx="21.200001"
   cy="138.2"
   id="ellipse691"
   r="2.7" />
				<path
   class="st2"
   d="m 62,139.6 4.3,0.6 c 0.5,0.1 0.9,0.5 0.8,1 0,0.2 -0.1,0.4 -0.3,0.6 l -3.7,3.7 c -0.4,0.4 -1,0.4 -1.4,0 -0.1,-0.1 -0.2,-0.3 -0.3,-0.5 l -0.6,-4.3 c -0.1,-0.5 0.3,-1 0.8,-1.1 0.2,0 0.3,0 0.4,0 z"
   id="path693" />
				<path
   class="st2"
   d="m 61,140.4 c 0.2,1.2 0.4,3 0.6,4.3 0.1,0.5 0.5,0.9 1,0.8 0.2,0 0.4,-0.1 0.6,-0.3 l 3.7,-3.7 c 0.4,-0.4 0.3,-1 0,-1.4 -0.1,-0.1 -0.3,-0.2 -0.5,-0.3 l -4.3,-0.6 c -0.5,-0.1 -1,0.3 -1.1,0.8 0,0.2 0,0.3 0,0.4 z"
   id="path695" />
				<path
   class="st2"
   d="m 57.5,140.4 c -0.2,1.2 -0.4,3 -0.6,4.3 -0.1,0.5 -0.5,0.9 -1,0.8 -0.2,0 -0.4,-0.1 -0.6,-0.3 l -3.7,-3.7 c -0.4,-0.4 -0.4,-1 0,-1.3 0.1,-0.2 0.3,-0.3 0.6,-0.3 l 4.3,-0.6 c 0.5,-0.1 1,0.3 1.1,0.8 -0.1,0.1 -0.1,0.2 -0.1,0.3 z"
   id="path697" />
				<path
   class="st2"
   d="m 57.5,135.2 c -0.2,-1.2 -0.4,-3 -0.6,-4.3 -0.1,-0.5 -0.5,-0.9 -1,-0.8 -0.2,0 -0.4,0.1 -0.6,0.3 l -3.7,3.7 c -0.4,0.4 -0.4,1 0,1.3 0.1,0.2 0.3,0.3 0.6,0.3 l 4.3,0.6 c 0.5,0.1 1,-0.3 1.1,-0.8 -0.1,-0.1 -0.1,-0.2 -0.1,-0.3 z"
   id="path699" />
				<path
   class="st2"
   d="m 61,135.2 c 0.2,-1.2 0.4,-3 0.6,-4.3 0.1,-0.5 0.5,-0.9 1,-0.8 0.2,0 0.4,0.1 0.6,0.3 l 3.7,3.7 c 0.4,0.4 0.3,1 0,1.4 -0.1,0.1 -0.3,0.2 -0.5,0.3 l -4.3,0.6 c -0.5,0.1 -1,-0.3 -1.1,-0.8 0,-0.2 0,-0.3 0,-0.4 z"
   id="path701" />
				<path
   class="st2"
   d="m 90.1,91.3 c 0,0 2.7,-2.5 2.6,-3.5 -0.1,-1 -6,-1.8 -6.9,-1.5 -0.6,0.2 -1.1,0.5 -1.5,0.9 l 5.2,4.8 z"
   id="path703" />
				<path
   class="st2"
   d="m 88.8,92.5 c 0,0 -2.5,2.7 -3.5,2.6 -1,-0.1 -1.8,-6.1 -1.5,-6.9 0.6,-1.5 0.5,-1.5 0.5,-1.5 l 5.2,5.2 z"
   id="path705" />
				<path
   class="st2"
   d="m 66.3,70.2 c 0,0 -2.7,2.5 -2.6,3.5 0.1,1 6,1.8 6.9,1.5 0.6,-0.2 1.1,-0.5 1.5,-0.9 L 67,69.5 Z"
   id="path707" />
				<path
   class="st2"
   d="m 67.7,68.8 c 0,0 2.5,-2.7 3.5,-2.6 1,0.1 1.8,6.1 1.5,6.9 -0.6,1.5 -0.5,1.5 -0.5,1.5 L 67,69.5 Z"
   id="path709" />
				<polygon
   class="st2"
   points="88.8,92.1 86.5,87.4 71.7,72.1 70.5,74.6 84.3,88.7 87.3,92.1 "
   id="polygon711" />
				<path
   class="st2"
   d="m 66.1,129.2 c 0,0 -2.7,-2.5 -2.6,-3.5 0.1,-1 6,-1.8 6.9,-1.5 0.6,0.2 1.1,0.5 1.6,0.9 l -5.2,4.8 z"
   id="path713" />
				<path
   class="st2"
   d="m 67.5,130.6 c 0,0 2.5,2.7 3.5,2.6 1,-0.1 1.8,-6.1 1.5,-6.9 -0.6,-1.5 -0.4,-1.5 -0.4,-1.5 l -5.3,5.1 z"
   id="path715" />
				<path
   class="st2"
   d="m 89.9,108 c 0,0 2.7,2.5 2.6,3.5 -0.1,1 -6,1.8 -6.8,1.5 -0.6,-0.2 -1.1,-0.5 -1.6,-0.9 l 5.2,-4.8 z"
   id="path717" />
				<path
   class="st2"
   d="m 88.6,106.7 c 0,0 -2.5,-2.7 -3.5,-2.6 -1,0.1 -1.8,6 -1.5,6.9 0.6,1.5 0.5,1.5 0.5,1.5 l 5.2,-5.2 z"
   id="path719" />
				<polygon
   class="st2"
   points="67.4,129.9 69.7,125.3 84.6,110 85.7,112.5 72,126.6 69,129.9 "
   id="polygon721" />
				<polygon
   class="st2"
   points="69.6,99.8 64,103.6 68.8,107.6 71.7,106.6 70.5,103.9 71.8,101.1 "
   id="polygon723" />
				<polygon
   class="st2"
   points="67.2,110 62.5,105 59.5,110.5 61,113.2 63.4,111.4 66.5,112.2 "
   id="polygon725" />
				<polygon
   class="st2"
   points="48.3,99.9 53.9,96.2 49.1,92.1 46.2,93.2 47.5,95.8 46.1,98.7 "
   id="polygon727" />
				<polygon
   class="st2"
   points="50.7,89.7 55.4,94.8 58.4,89.2 56.9,86.6 54.5,88.3 51.4,87.6 "
   id="polygon729" />
				<polygon
   class="st2"
   points="58.6,110.8 54.8,105.1 50.8,110 51.8,112.9 54.5,111.6 57.4,113 "
   id="polygon731" />
				<polygon
   class="st2"
   points="48.6,108.5 53.6,103.9 48.1,100.8 45.4,102.4 47.2,104.7 46.4,107.8 "
   id="polygon733" />
				<polygon
   class="st2"
   points="59.7,88.8 63.4,94.4 67.5,89.5 66.4,86.7 63.8,87.9 60.9,86.6 "
   id="polygon735" />
				<polygon
   class="st2"
   points="69.7,91 64.7,95.7 70.2,98.7 72.8,97.2 71.1,94.8 71.9,91.7 "
   id="polygon737" />
				<circle
   class="st2"
   cx="59.099998"
   cy="100.3"
   id="ellipse739"
   r="2.7" />
				<path
   class="st2"
   d="m 99.8,101.5 4.3,0.6 c 0.5,0 0.9,0.4 1,0.9 0,0.3 -0.1,0.6 -0.3,0.7 l -3.7,3.7 c -0.4,0.4 -1,0.4 -1.4,0 -0.1,-0.1 -0.2,-0.3 -0.3,-0.5 l -0.6,-4.3 c -0.1,-0.5 0.2,-1 0.7,-1.1 0.1,0 0.2,0 0.3,0 z"
   id="path741" />
				<path
   class="st2"
   d="m 98.9,102.5 c 0.2,1.2 0.4,3 0.6,4.3 0.1,0.5 0.6,0.9 1.1,0.8 0.2,0 0.4,-0.1 0.5,-0.3 l 3.7,-3.7 c 0.4,-0.4 0.4,-1 0,-1.3 -0.1,-0.2 -0.3,-0.3 -0.6,-0.3 l -4.3,-0.6 c -0.5,-0.1 -1,0.3 -1.1,0.8 0.1,0.2 0,0.3 0.1,0.3 z"
   id="path743" />
				<path
   class="st2"
   d="m 95.3,102.5 c -0.2,1.2 -0.4,3 -0.6,4.3 -0.1,0.5 -0.6,0.9 -1.1,0.8 -0.2,0 -0.4,-0.1 -0.5,-0.3 l -3.7,-3.7 c -0.4,-0.4 -0.4,-1 0,-1.3 0.1,-0.2 0.3,-0.3 0.6,-0.3 l 4.3,-0.6 c 0.5,-0.1 1,0.3 1.1,0.8 0,0.2 0,0.3 -0.1,0.3 z"
   id="path745" />
				<path
   class="st2"
   d="m 95.3,97.3 c -0.2,-1.2 -0.4,-3 -0.6,-4.3 -0.1,-0.5 -0.5,-0.9 -1,-0.8 -0.2,0 -0.4,0.1 -0.6,0.3 l -3.7,3.7 c -0.4,0.4 -0.4,1 0,1.3 0.1,0.2 0.3,0.3 0.6,0.3 l 4.3,0.6 c 0.5,0.1 1,-0.3 1.1,-0.8 0,-0.1 0,-0.2 -0.1,-0.3 z"
   id="path747" />
				<path
   class="st2"
   d="m 98.9,97.3 c 0.2,-1.2 0.4,-3 0.6,-4.3 0.1,-0.5 0.5,-0.9 1,-0.8 0.2,0 0.4,0.1 0.6,0.3 l 3.7,3.7 c 0.4,0.4 0.4,1 0,1.3 -0.1,0.2 -0.3,0.3 -0.6,0.3 l -4.3,0.6 c -0.5,0.1 -1,-0.3 -1.1,-0.8 0,-0.1 0,-0.2 0.1,-0.3 z"
   id="path749" />
				<path
   class="st2"
   d="m 127.9,53.4 c 0,0 2.7,-2.5 2.6,-3.5 -0.1,-1 -6,-1.8 -6.8,-1.5 -0.6,0.2 -1.1,0.5 -1.6,0.9 l 5.2,4.8 z"
   id="path751" />
				<path
   class="st2"
   d="m 126.6,54.7 c 0,0 -2.5,2.7 -3.5,2.6 -1,-0.1 -1.8,-6 -1.5,-6.9 0.6,-1.5 0.5,-1.5 0.5,-1.5 l 5.2,5.2 z"
   id="path753" />
				<path
   class="st2"
   d="m 104.2,32.2 c 0,0 -2.7,2.5 -2.6,3.5 0.1,1 6,1.8 6.9,1.5 0.6,-0.2 1.1,-0.5 1.6,-0.9 l -5.2,-4.8 z"
   id="path755" />
				<path
   class="st2"
   d="m 105.5,30.9 c 0,0 2.5,-2.7 3.5,-2.6 1,0.1 1.8,6.1 1.5,6.9 -0.6,1.5 -0.4,1.5 -0.4,1.5 l -5.3,-5.2 z"
   id="path757" />
				<polygon
   class="st2"
   points="126.7,54.2 124.3,49.5 109.5,34.2 108.4,36.7 122.1,50.8 125.1,54.2 "
   id="polygon759" />
				<path
   class="st2"
   d="m 104,91.3 c 0,0 -2.7,-2.5 -2.6,-3.5 0.1,-1 6,-1.8 6.9,-1.5 0.6,0.2 1.1,0.6 1.6,0.9 l -5.2,4.8 z"
   id="path761" />
				<path
   class="st2"
   d="m 105.3,92.5 c 0,0 2.5,2.7 3.5,2.6 1,-0.1 1.8,-6.1 1.5,-6.9 -0.6,-1.5 -0.5,-1.5 -0.5,-1.5 l -5.2,5.2 z"
   id="path763" />
				<path
   class="st2"
   d="m 127.7,70.2 c 0,0 2.7,2.5 2.6,3.5 -0.1,1 -6,1.8 -6.9,1.5 -0.6,-0.2 -1.1,-0.6 -1.6,-0.9 l 5.2,-4.8 z"
   id="path765" />
				<path
   class="st2"
   d="m 126.4,68.8 c 0,0 -2.5,-2.7 -3.5,-2.6 -1,0.1 -1.8,6.1 -1.5,6.9 0.6,1.5 0.5,1.5 0.5,1.5 l 5.3,-5.2 z"
   id="path767" />
				<polygon
   class="st2"
   points="105.2,92.1 107.6,87.4 122.4,72.1 123.5,74.6 109.8,88.7 106.8,92.1 "
   id="polygon769" />
				<polygon
   class="st2"
   points="107.4,62 101.8,65.7 106.7,69.7 109.5,68.7 108.3,66.1 109.6,63.1 "
   id="polygon771" />
				<polygon
   class="st2"
   points="105,72.1 100.4,67.1 97.3,72.7 98.9,75.3 101.2,73.6 104.3,74.3 "
   id="polygon773" />
				<polygon
   class="st2"
   points="86.1,62 91.8,58.3 86.9,54.3 84,55.3 85.3,57.9 83.9,60.8 "
   id="polygon775" />
				<polygon
   class="st2"
   points="88.6,51.9 93.2,56.9 96.3,51.3 94.7,48.7 92.4,50.4 89.2,49.7 "
   id="polygon777" />
				<polygon
   class="st2"
   points="96.4,72.9 92.6,67.2 88.6,72.1 89.7,75 92.3,73.7 95.2,75.1 "
   id="polygon779" />
				<polygon
   class="st2"
   points="86.4,70.6 91.4,66 85.9,62.9 83.3,64.5 85,66.8 84.2,69.9 "
   id="polygon781" />
				<polygon
   class="st2"
   points="97.5,50.9 101.2,56.5 105.3,51.7 104.3,48.8 101.6,50 98.7,48.7 "
   id="polygon783" />
				<polygon
   class="st2"
   points="107.5,53.1 102.5,57.8 108,60.9 110.7,59.3 108.9,56.9 109.7,53.8 "
   id="polygon785" />
				<circle
   class="st2"
   cx="96.900002"
   cy="62.400002"
   id="ellipse787"
   r="2.7" />
				<path
   class="st2"
   d="m 137.6,63.7 4.3,0.6 c 0.5,0.1 0.9,0.5 0.8,1 0,0.2 -0.1,0.4 -0.3,0.6 l -3.7,3.7 c -0.4,0.4 -1,0.4 -1.3,0 -0.2,-0.2 -0.3,-0.3 -0.3,-0.6 l -0.6,-4.3 c -0.1,-0.5 0.3,-1 0.8,-1.1 0.1,0.1 0.2,0.1 0.3,0.1 z"
   id="path789" />
				<path
   class="st2"
   d="m 136.7,64.6 0.6,4.3 c 0.1,0.5 0.6,0.9 1.1,0.8 0.2,0 0.4,-0.1 0.5,-0.3 l 3.7,-3.7 c 0.4,-0.4 0.4,-1 0,-1.3 -0.1,-0.2 -0.3,-0.3 -0.6,-0.3 l -4.3,-0.6 c -0.5,-0.1 -1,0.3 -1.1,0.8 0.1,0.1 0.1,0.2 0.1,0.3 z"
   id="path791" />
				<path
   class="st2"
   d="m 133.2,64.6 -0.6,4.3 c -0.1,0.5 -0.6,0.9 -1.1,0.8 -0.2,0 -0.4,-0.1 -0.5,-0.3 l -3.7,-3.7 c -0.4,-0.4 -0.4,-1 0,-1.3 0.1,-0.2 0.3,-0.3 0.6,-0.3 l 4.3,-0.6 c 0.5,-0.1 1,0.3 1.1,0.8 -0.1,0.1 -0.1,0.2 -0.1,0.3 z"
   id="path793" />
				<path
   class="st2"
   d="m 133.2,59.4 -0.6,-4.3 c -0.1,-0.5 -0.5,-0.9 -1,-0.8 -0.2,0 -0.4,0.1 -0.6,0.3 l -3.7,3.7 c -0.4,0.4 -0.4,1 0,1.3 0.1,0.2 0.3,0.3 0.6,0.3 l 4.3,0.6 c 0.5,0.1 1,-0.3 1.1,-0.8 -0.1,-0.1 -0.1,-0.2 -0.1,-0.3 z"
   id="path795" />
				<path
   class="st2"
   d="m 136.7,59.4 0.6,-4.3 c 0.1,-0.5 0.5,-0.9 1,-0.8 0.2,0 0.4,0.1 0.6,0.3 l 3.7,3.7 c 0.4,0.4 0.4,1 0,1.3 -0.1,0.2 -0.3,0.3 -0.6,0.3 l -4.3,0.6 c -0.5,0.1 -1,-0.3 -1.1,-0.8 0.1,-0.1 0.1,-0.2 0.1,-0.3 z"
   id="path797" />
				<path
   class="st2"
   d="m 165.7,15.5 c 0,0 2.7,-2.5 2.6,-3.5 -0.1,-1 -6,-1.8 -6.9,-1.5 -0.6,0.2 -1.1,0.5 -1.6,0.9 l 5.2,4.8 z"
   id="path799" />
				<path
   class="st2"
   d="m 164.4,16.8 c 0,0 -2.5,2.7 -3.5,2.6 -1,-0.1 -1.8,-6 -1.5,-6.9 0.6,-1.5 0.5,-1.5 0.5,-1.5 l 5.2,5.2 z"
   id="path801" />
				<path
   class="st2"
   d="m 142,-5.7 c 0,0 -2.7,2.5 -2.6,3.5 0.1,1 6,1.8 6.9,1.5 0.6,-0.2 1.1,-0.5 1.6,-0.9 l -5.2,-4.8 z"
   id="path803" />
				<path
   class="st2"
   d="m 143.3,-7 c 0,0 2.5,-2.7 3.5,-2.6 1,0.1 1.8,6 1.5,6.9 -0.6,1.5 -0.5,1.5 -0.5,1.5 l -5.2,-5.2 z"
   id="path805" />
				<polygon
   class="st2"
   points="164.5,16.3 162.2,11.6 147.3,-3.7 146.2,-1.2 159.9,12.9 162.9,16.2 "
   id="polygon807" />
				<path
   class="st2"
   d="m 141.8,53.4 c 0,0 -2.7,-2.5 -2.6,-3.5 0.1,-1 6,-1.8 6.8,-1.5 0.6,0.2 1.1,0.5 1.6,0.9 l -5.2,4.8 z"
   id="path809" />
				<path
   class="st2"
   d="m 143.1,54.7 c 0,0 2.5,2.7 3.5,2.6 1,-0.1 1.8,-6 1.5,-6.9 -0.6,-1.5 -0.5,-1.5 -0.5,-1.5 l -5.2,5.2 z"
   id="path811" />
				<path
   class="st2"
   d="m 165.5,32.2 c 0,0 2.7,2.5 2.6,3.5 -0.1,1 -6,1.8 -6.9,1.5 -0.6,-0.2 -1.1,-0.5 -1.6,-0.9 l 5.2,-4.8 z"
   id="path813" />
				<path
   class="st2"
   d="m 164.2,30.9 c 0,0 -2.5,-2.7 -3.5,-2.6 -1,0.1 -1.8,6.1 -1.5,6.9 0.6,1.5 0.4,1.5 0.4,1.5 l 5.3,-5.2 z"
   id="path815" />
				<polygon
   class="st2"
   points="143,54.2 145.4,49.5 160.2,34.2 161.4,36.7 147.6,50.8 144.6,54.2 "
   id="polygon817" />
				<polygon
   class="st2"
   points="145.3,24.1 139.6,27.8 144.5,31.9 147.4,30.8 146.1,28.2 147.4,25.3 "
   id="polygon819" />
				<polygon
   class="st2"
   points="142.8,34.2 138.2,29.2 135.1,34.8 136.7,37.4 139,35.7 142.1,36.4 "
   id="polygon821" />
				<polygon
   class="st2"
   points="123.9,24.1 129.6,20.4 124.7,16.4 121.8,17.4 123.1,20 121.7,22.9 "
   id="polygon823" />
				<polygon
   class="st2"
   points="126.4,14 131,19 134.1,13.4 132.5,10.8 130.2,12.6 127.1,11.7 "
   id="polygon825" />
				<polygon
   class="st2"
   points="134.2,35 130.5,29.3 126.4,34.2 127.5,37.1 130.1,35.8 133,37.2 "
   id="polygon827" />
				<polygon
   class="st2"
   points="124.2,32.8 129.3,28.1 123.7,25 121.1,26.6 122.8,28.9 122,32 "
   id="polygon829" />
				<polygon
   class="st2"
   points="135.4,13 139.1,18.6 143.1,13.8 142.1,10.9 139.4,12.1 136.5,10.8 "
   id="polygon831" />
				<polygon
   class="st2"
   points="145.3,15.2 140.3,19.9 145.8,23 148.5,21.4 146.7,19 147.5,15.9 "
   id="polygon833" />
				<circle
   class="st2"
   cx="134.7"
   cy="24.5"
   id="ellipse835"
   r="2.7" />
				<path
   class="st2"
   d="m 175.4,25.8 4.3,0.6 c 0.5,0.1 0.9,0.5 0.8,1 0,0.2 -0.1,0.4 -0.3,0.6 l -3.7,3.7 c -0.4,0.4 -1,0.4 -1.3,0 -0.2,-0.2 -0.3,-0.3 -0.3,-0.6 l -0.6,-4.3 c -0.1,-0.5 0.3,-1 0.8,-1.1 0.2,0.1 0.2,0.1 0.3,0.1 z"
   id="path837" />
				<path
   class="st2"
   d="m 174.5,26.7 c 0.2,1.2 0.4,3 0.6,4.3 0.1,0.5 0.6,0.9 1.1,0.8 0.2,0 0.4,-0.1 0.5,-0.3 l 3.7,-3.7 c 0.4,-0.4 0.4,-1 0,-1.3 -0.1,-0.2 -0.3,-0.3 -0.6,-0.3 l -4.3,-0.6 c -0.5,-0.1 -1,0.3 -1.1,0.8 0.1,0.2 0.1,0.2 0.1,0.3 z"
   id="path839" />
				<path
   class="st2"
   d="m 171,26.7 c -0.2,1.2 -0.4,3 -0.6,4.3 -0.1,0.5 -0.5,0.9 -1,0.8 -0.2,0 -0.4,-0.1 -0.6,-0.3 l -3.7,-3.7 c -0.4,-0.4 -0.3,-1 0,-1.4 0.1,-0.1 0.3,-0.2 0.5,-0.3 l 4.3,-0.6 c 0.5,-0.1 1,0.3 1.1,0.8 0,0.3 0,0.3 0,0.4 z"
   id="path841" />
				<path
   class="st2"
   d="M 171,21.5 170.4,17 c -0.1,-0.5 -0.6,-0.9 -1.1,-0.8 -0.2,0 -0.4,0.1 -0.5,0.3 l -3.7,3.8 c -0.4,0.4 -0.3,1 0,1.4 0.1,0.1 0.3,0.2 0.5,0.3 l 4.3,0.6 c 0.5,0.1 1,-0.3 1.1,-0.8 0,-0.1 0,-0.2 0,-0.3 z"
   id="path843" />
				<path
   class="st2"
   d="m 174.5,21.5 0.6,-4.5 c 0.1,-0.5 0.6,-0.9 1.2,-0.8 0.2,0 0.3,0.1 0.5,0.2 l 3.7,3.7 c 0.4,0.4 0.4,1 0,1.3 -0.1,0.2 -0.3,0.3 -0.6,0.3 l -4.3,0.6 c -0.6,0.2 -1,-0.1 -1.1,-0.8 0,0.1 0,0.1 0,0 z"
   id="path845" />
				<path
   class="st2"
   d="m 203.6,-22.4 c 0,0 2.7,-2.5 2.6,-3.5 -0.1,-1 -6,-1.8 -6.9,-1.5 -0.6,0.2 -1.1,0.5 -1.6,0.9 l 5.2,4.8 z"
   id="path847" />
				<path
   class="st2"
   d="m 202.2,-21.1 c 0,0 -2.5,2.7 -3.5,2.6 -1,-0.1 -1.8,-6 -1.5,-6.9 0.6,-1.5 0.4,-1.5 0.4,-1.5 l 5.3,5.2 z"
   id="path849" />
				<path
   class="st2"
   d="m 179.8,-43.5 c 0,0 -2.7,2.5 -2.6,3.5 0.1,1 6,1.8 6.9,1.5 0.6,-0.2 1.1,-0.5 1.5,-0.9 l -5.2,-4.8 z"
   id="path851" />
				<path
   class="st2"
   d="m 181.1,-44.9 c 0,0 2.5,-2.7 3.5,-2.6 1,0.1 1.8,6 1.5,6.9 -0.6,1.5 -0.5,1.5 -0.5,1.5 l -5.2,-5.2 z"
   id="path853" />
				<polygon
   class="st2"
   points="202.3,-21.6 200,-26.3 185.1,-41.6 184,-39.1 197.7,-25 200.7,-21.6 "
   id="polygon855" />
				<path
   class="st2"
   d="m 179.6,15.5 c 0,0 -2.7,-2.5 -2.6,-3.5 0.1,-1 6,-1.8 6.9,-1.5 0.6,0.2 1.1,0.5 1.5,0.9 l -5.2,4.8 z"
   id="path857" />
				<path
   class="st2"
   d="m 180.9,16.8 c 0,0 2.5,2.7 3.5,2.6 1,-0.1 1.8,-6 1.5,-6.9 C 185.3,11 185.4,11 185.4,11 l -5.2,5.2 z"
   id="path859" />
				<path
   class="st2"
   d="m 203.4,-5.7 c 0,0 2.7,2.5 2.6,3.5 -0.1,1 -6,1.8 -6.9,1.5 -0.6,-0.2 -1.1,-0.5 -1.5,-0.9 l 5.2,-4.8 z"
   id="path861" />
				<path
   class="st2"
   d="m 202,-7 c 0,0 -2.5,-2.7 -3.5,-2.6 -1,0.1 -1.8,6 -1.5,6.9 0.6,1.5 0.5,1.5 0.5,1.5 l 5.2,-5.2 z"
   id="path863" />
				<polygon
   class="st2"
   points="180.9,16.3 183.2,11.6 198,-3.7 199.2,-1.2 185.4,12.9 182.4,16.2 "
   id="polygon865" />
				<polygon
   class="st2"
   points="183.1,-13.8 177.4,-10.1 182.3,-6 185.2,-7.1 183.9,-9.7 185.3,-12.6 "
   id="polygon867" />
				<polygon
   class="st2"
   points="180.6,-3.7 176,-8.7 172.9,-3.1 174.5,-0.5 176.9,-2.2 180,-1.4 "
   id="polygon869" />
				<polygon
   class="st2"
   points="161.7,-13.8 167.4,-17.5 162.5,-21.6 159.7,-20.5 160.9,-17.9 159.6,-14.9 "
   id="polygon871" />
				<polygon
   class="st2"
   points="164.2,-23.9 168.8,-18.9 171.9,-24.4 170.3,-27.1 168,-25.3 164.9,-26.1 "
   id="polygon873" />
				<polygon
   class="st2"
   points="172,-2.9 168.3,-8.6 164.3,-3.7 165.3,-0.8 167.9,-2.1 170.8,-0.7 "
   id="polygon875" />
				<polygon
   class="st2"
   points="162.1,-5.2 167.1,-9.8 161.5,-12.9 158.9,-11.3 160.6,-9 159.8,-5.9 "
   id="polygon877" />
				<polygon
   class="st2"
   points="173.2,-24.9 176.9,-19.2 180.9,-24.1 179.9,-27 177.3,-25.8 174.4,-27.1 "
   id="polygon879" />
				<polygon
   class="st2"
   points="183.1,-22.7 178.1,-18 183.7,-14.9 186.3,-16.5 184.6,-18.9 185.4,-22 "
   id="polygon881" />
				<circle
   class="st2"
   cx="172.5"
   cy="-13.4"
   id="ellipse883"
   r="2.7" />
				<path
   class="st2"
   d="m 213.2,-12.1 4.5,0.6 c 0.5,0.1 0.9,0.6 0.8,1.1 0,0.2 -0.1,0.4 -0.3,0.5 l -3.7,3.7 c -0.4,0.4 -1,0.4 -1.3,0 -0.2,-0.2 -0.3,-0.3 -0.3,-0.6 l -0.6,-4.3 c -0.1,-0.5 0.3,-1 0.8,-1.1 0,0.1 0.1,0.1 0.1,0.1 z"
   id="path885" />
				<path
   class="st2"
   d="m 212.3,-11.2 c 0.2,1.2 0.4,3 0.6,4.3 0.1,0.5 0.5,0.9 1,0.8 0.2,0 0.4,-0.1 0.6,-0.3 l 3.7,-3.7 c 0.4,-0.4 0.3,-1 0,-1.4 -0.1,-0.1 -0.3,-0.2 -0.5,-0.3 l -4.3,-0.6 c -0.5,-0.1 -1,0.3 -1.1,0.9 0,0.2 0,0.3 0,0.3 z"
   id="path887" />
				<path
   class="st2"
   d="m 208.8,-11.2 c -0.2,1.2 -0.4,3 -0.6,4.3 -0.1,0.5 -0.5,0.9 -1,0.8 -0.2,0 -0.4,-0.1 -0.6,-0.3 l -3.7,-3.7 c -0.4,-0.4 -0.4,-1 0,-1.3 0.1,-0.2 0.3,-0.3 0.5,-0.3 l 4.3,-0.6 c 0.5,-0.1 1,0.3 1.1,0.9 0,0.1 0,0.2 0,0.2 z"
   id="path889" />
				<path
   class="st2"
   d="m 208.8,-16.4 c -0.2,-1.2 -0.4,-3 -0.6,-4.3 -0.1,-0.5 -0.5,-0.9 -1,-0.8 -0.2,0 -0.4,0.1 -0.6,0.3 l -3.7,3.7 c -0.4,0.4 -0.4,1 0,1.3 0.1,0.2 0.3,0.3 0.5,0.3 l 4.3,0.6 c 0.5,0.1 1,-0.3 1.1,-0.9 0,0 0,-0.1 0,-0.2 z"
   id="path891" />
				<path
   class="st2"
   d="m 212.3,-16.4 c 0.2,-1.2 0.4,-3 0.6,-4.3 0.1,-0.5 0.5,-0.9 1,-0.8 0.2,0 0.4,0.1 0.6,0.3 l 3.7,3.7 c 0.4,0.4 0.3,1 0,1.4 -0.1,0.1 -0.3,0.2 -0.5,0.3 l -4.3,0.6 c -0.5,0.1 -1,-0.3 -1.1,-0.9 0,-0.1 0,-0.2 0,-0.3 z"
   id="path893" />
				<path
   class="st2"
   d="m 23.9,177.6 4.3,0.6 c 0.5,0 0.9,0.5 0.9,1 0,0.2 -0.1,0.5 -0.3,0.6 l -3.7,3.7 c -0.4,0.4 -1,0.4 -1.3,0 -0.2,-0.1 -0.3,-0.3 -0.3,-0.5 l -0.6,-4.3 c -0.1,-0.5 0.3,-1 0.8,-1.1 0,0 0.1,0 0.2,0 z"
   id="path895" />
				<path
   class="st2"
   d="m 22.9,178.6 0.6,4.3 c 0.1,0.5 0.6,0.9 1.1,0.8 0.2,0 0.4,-0.1 0.5,-0.3 l 3.6,-3.6 c 0.4,-0.4 0.4,-1 0,-1.3 -0.1,-0.2 -0.3,-0.3 -0.6,-0.3 l -4.2,-0.6 c -0.5,-0.1 -1,0.3 -1.1,0.8 0.1,0.1 0.1,0.1 0.1,0.2 z"
   id="path897" />
				<path
   class="st2"
   d="m 19.4,178.6 -0.6,4.3 c -0.1,0.5 -0.6,0.9 -1.1,0.8 -0.2,0 -0.4,-0.1 -0.5,-0.3 l -3.7,-3.6 c -0.4,-0.4 -0.4,-1 0,-1.3 0.1,-0.2 0.3,-0.3 0.6,-0.3 l 4.3,-0.6 c 0.5,-0.1 1,0.3 1.1,0.8 -0.1,0.1 -0.1,0.1 -0.1,0.2 z"
   id="path899" />
				<path
   class="st2"
   d="m 19.4,173.4 c -0.2,-1.2 -0.4,-3 -0.6,-4.3 -0.1,-0.5 -0.5,-0.9 -1,-0.8 -0.2,0 -0.4,0.1 -0.6,0.3 l -3.7,3.7 c -0.4,0.4 -0.4,1 0,1.3 0.1,0.2 0.3,0.3 0.6,0.3 l 4.3,0.6 c 0.5,0.1 1,-0.3 1.1,-0.8 -0.1,-0.1 -0.1,-0.2 -0.1,-0.3 z"
   id="path901" />
				<path
   class="st2"
   d="m 22.9,173.4 c 0.2,-1.2 0.4,-3 0.6,-4.3 0.1,-0.5 0.5,-0.9 1,-0.8 0.2,0 0.4,0.1 0.6,0.3 l 3.6,3.7 c 0.4,0.4 0.4,1 0,1.3 -0.1,0.2 -0.3,0.3 -0.6,0.3 l -4.3,0.6 c -0.5,0 -1,-0.3 -1,-0.9 0.1,-0.1 0.1,-0.1 0.1,-0.2 z"
   id="path903" />
				<path
   class="st2"
   d="m 90.4,167.4 c 0,0 2.7,-2.5 2.6,-3.5 -0.1,-1 -6,-1.8 -6.9,-1.5 -0.6,0.2 -1.1,0.6 -1.6,0.9 l 5.2,4.8 z"
   id="path905" />
				<path
   class="st2"
   d="m 89.1,168.7 c 0,0 -2.5,2.7 -3.5,2.6 -1,-0.1 -1.8,-6 -1.5,-6.9 0.6,-1.5 0.5,-1.5 0.5,-1.5 l 5.2,5.2 z"
   id="path907" />
				<path
   class="st2"
   d="m 66.6,146.3 c 0,0 -2.7,2.5 -2.6,3.5 0.1,1 6,1.8 6.9,1.5 0.6,-0.2 1.1,-0.5 1.6,-0.9 l -5.2,-4.8 z"
   id="path909" />
				<path
   class="st2"
   d="m 67.9,144.9 c 0,0 2.5,-2.7 3.5,-2.6 1,0.1 1.8,6.1 1.5,6.9 -0.6,1.5 -0.5,1.5 -0.5,1.5 l -5.2,-5.2 z"
   id="path911" />
				<polygon
   class="st2"
   points="89.1,168.1 86.8,163.4 71.9,148.2 70.8,150.7 84.5,164.8 87.5,168.1 "
   id="polygon913" />
				<path
   class="st2"
   d="m 52,205.8 c 0,0 2.7,-2.5 2.6,-3.5 -0.1,-1 -6,-1.8 -6.9,-1.5 -0.6,0.2 -1.1,0.6 -1.6,0.9 l 5.2,4.8 z"
   id="path915" />
				<path
   class="st2"
   d="m 50.7,207.2 c 0,0 -2.5,2.7 -3.5,2.6 -1,-0.1 -1.8,-6.1 -1.5,-6.9 0.6,-1.5 0.5,-1.5 0.5,-1.5 l 5.2,5.2 z"
   id="path917" />
				<path
   class="st2"
   d="m 28.2,184.7 c 0,0 -2.7,2.5 -2.6,3.5 0.1,1 6,1.8 6.9,1.5 0.6,-0.2 1.1,-0.6 1.6,-0.9 L 28.9,184 Z"
   id="path919" />
				<path
   class="st2"
   d="m 29.6,183.3 c 0,0 2.5,-2.7 3.5,-2.6 1,0.1 1.8,6.1 1.5,6.9 -0.6,1.5 -0.5,1.5 -0.5,1.5 l -5.2,-5.2 z"
   id="path921" />
				<polygon
   class="st2"
   points="50.7,206.6 48.4,201.9 33.6,186.6 32.4,189.2 46.2,203.2 49.2,206.6 "
   id="polygon923" />
				<path
   class="st2"
   d="m 66.4,205.3 c 0,0 -2.7,-2.5 -2.6,-3.5 0.1,-1 6,-1.8 6.9,-1.5 0.6,0.2 1.1,0.5 1.5,0.9 L 67,206 Z"
   id="path925" />
				<path
   class="st2"
   d="m 67.7,206.6 c 0,0 2.5,2.7 3.5,2.6 1,-0.1 1.8,-6.1 1.5,-6.9 -0.6,-1.5 -0.5,-1.5 -0.5,-1.5 L 67,206 Z"
   id="path927" />
				<path
   class="st2"
   d="m 90.2,184.1 c 0,0 2.7,2.5 2.6,3.5 -0.1,1 -6,1.8 -6.9,1.5 -0.6,-0.2 -1.1,-0.6 -1.6,-0.9 l 5.2,-4.8 z"
   id="path929" />
				<path
   class="st2"
   d="m 88.9,182.8 c 0,0 -2.5,-2.7 -3.5,-2.6 -1,0.1 -1.8,6.1 -1.5,6.9 0.6,1.5 0.4,1.5 0.4,1.5 l 5.3,-5.2 z"
   id="path931" />
				<polygon
   class="st2"
   points="67.7,206 70,201.3 84.8,186.1 86,188.6 72.3,202.7 69.3,206 "
   id="polygon933" />
				<polygon
   class="st2"
   points="69.9,175.9 64.2,179.7 69.1,183.7 72,182.7 70.7,180 72.1,177.1 "
   id="polygon935" />
				<polygon
   class="st2"
   points="67.5,186.1 62.8,181.1 59.7,186.6 61.3,189.2 63.7,187.5 66.8,188.3 "
   id="polygon937" />
				<polygon
   class="st2"
   points="48.6,176 54.2,172.3 49.4,168.2 46.5,169.3 47.7,171.9 46.4,174.8 "
   id="polygon939" />
				<polygon
   class="st2"
   points="51,165.8 55.7,170.9 58.7,165.3 57.2,162.7 54.8,164.4 51.7,163.6 "
   id="polygon941" />
				<polygon
   class="st2"
   points="58.8,186.8 55.1,181.2 51.1,186.1 52.1,189 54.7,187.7 57.6,189 "
   id="polygon943" />
				<polygon
   class="st2"
   points="48.9,184.6 53.9,179.9 48.3,176.9 45.7,178.4 47.5,180.8 46.7,183.9 "
   id="polygon945" />
				<polygon
   class="st2"
   points="60,164.8 63.7,170.5 67.8,165.6 66.7,162.8 64.1,164 61.2,162.6 "
   id="polygon947" />
				<polygon
   class="st2"
   points="70,167.1 64.9,171.8 70.5,174.8 73.1,173.2 71.4,170.9 72.2,167.8 "
   id="polygon949" />
				<circle
   class="st2"
   cx="59.299999"
   cy="176.39999"
   id="ellipse951"
   r="2.7" />
				<path
   class="st2"
   d="m 100.1,177.6 4.3,0.6 c 0.5,0.1 0.9,0.6 0.8,1.1 0,0.2 -0.1,0.4 -0.3,0.5 l -3.7,3.7 c -0.4,0.4 -1,0.4 -1.3,0 -0.2,-0.1 -0.3,-0.3 -0.3,-0.5 L 99,178.7 c -0.1,-0.5 0.3,-1 0.8,-1.1 0.1,0 0.2,0 0.3,0 z"
   id="path953" />
				<path
   class="st2"
   d="m 99.1,178.6 c 0.2,1.2 0.4,3 0.6,4.3 0.1,0.5 0.6,0.9 1.1,0.8 0.2,0 0.4,-0.1 0.5,-0.3 l 3.7,-3.6 c 0.4,-0.4 0.4,-1 0,-1.3 -0.1,-0.2 -0.3,-0.3 -0.6,-0.3 l -4.2,-0.6 c -0.5,-0.1 -1,0.2 -1.1,0.7 0,0.1 0,0.2 0,0.3 z"
   id="path955" />
				<path
   class="st2"
   d="m 95.6,178.6 -0.6,4.3 c -0.1,0.5 -0.6,0.9 -1.1,0.8 -0.2,0 -0.4,-0.1 -0.5,-0.3 l -3.7,-3.6 c -0.4,-0.4 -0.3,-1 0,-1.4 0.1,-0.1 0.3,-0.2 0.5,-0.3 l 4.3,-0.6 c 0.5,-0.1 1,0.3 1.1,0.8 0,0.2 0,0.2 0,0.3 z"
   id="path957" />
				<path
   class="st2"
   d="m 95.6,173.4 c -0.2,-1.2 -0.4,-3 -0.6,-4.3 -0.1,-0.5 -0.5,-0.9 -1,-0.8 -0.2,0 -0.4,0.1 -0.6,0.3 l -3.7,3.7 c -0.4,0.4 -0.3,1 0,1.4 0.1,0.1 0.3,0.2 0.5,0.3 l 4.3,0.6 c 0.5,0.1 1,-0.3 1.1,-0.8 0,-0.2 0,-0.3 0,-0.4 z"
   id="path959" />
				<path
   class="st2"
   d="m 99.1,173.4 c 0.2,-1.2 0.4,-3 0.6,-4.3 0.1,-0.5 0.5,-0.9 1,-0.8 0.2,0 0.4,0.1 0.6,0.3 l 3.7,3.7 c 0.4,0.4 0.4,1 0,1.3 -0.1,0.2 -0.3,0.3 -0.6,0.3 l -4.3,0.6 c -0.5,0.1 -1,-0.3 -1.1,-0.8 0.1,-0.2 0.1,-0.2 0.1,-0.3 z"
   id="path961" />
				<path
   class="st2"
   d="m 128.2,129.5 c 0,0 2.7,-2.5 2.6,-3.5 -0.1,-1 -6,-1.8 -6.9,-1.5 -0.6,0.2 -1.1,0.5 -1.5,0.9 l 5.2,4.8 z"
   id="path963" />
				<path
   class="st2"
   d="m 126.9,130.8 c 0,0 -2.5,2.7 -3.5,2.6 -1,-0.1 -1.8,-6 -1.5,-6.9 0.6,-1.5 0.4,-1.5 0.4,-1.5 l 5.3,5.2 z"
   id="path965" />
				<path
   class="st2"
   d="m 104.4,108.2 c 0,0 -2.7,2.5 -2.6,3.5 0.1,1 6,1.8 6.9,1.5 0.6,-0.2 1.1,-0.5 1.5,-0.9 l -5.2,-4.8 z"
   id="path967" />
				<path
   class="st2"
   d="m 105.8,107 c 0,0 2.5,-2.7 3.5,-2.6 1,0.1 1.8,6 1.5,6.9 -0.6,1.5 -0.5,1.5 -0.5,1.5 l -5.2,-5.2 z"
   id="path969" />
				<polygon
   class="st2"
   points="126.9,130.2 124.6,125.6 109.8,110.3 108.6,112.8 122.4,126.9 125.3,130.2 "
   id="polygon971" />
				<path
   class="st2"
   d="m 104.2,167.4 c 0,0 -2.7,-2.5 -2.6,-3.5 0.1,-1 6,-1.8 6.9,-1.5 0.6,0.2 1.1,0.5 1.5,0.9 l -5.2,4.8 z"
   id="path973" />
				<path
   class="st2"
   d="m 105.6,168.7 c 0,0 2.5,2.7 3.5,2.6 1,-0.1 1.8,-6 1.5,-6.9 -0.6,-1.5 -0.5,-1.5 -0.5,-1.5 l -5.2,5.2 z"
   id="path975" />
				<path
   class="st2"
   d="m 128,146.3 c 0,0 2.7,2.5 2.6,3.5 -0.1,1 -6,1.8 -6.9,1.5 -0.6,-0.2 -1.1,-0.5 -1.5,-0.9 l 5.2,-4.8 z"
   id="path977" />
				<path
   class="st2"
   d="m 126.7,144.9 c 0,0 -2.5,-2.7 -3.5,-2.6 -1,0.1 -1.8,6.1 -1.5,6.9 0.6,1.5 0.5,1.5 0.5,1.5 l 5.2,-5.2 z"
   id="path979" />
				<polygon
   class="st2"
   points="105.5,168.1 107.8,163.4 122.7,148.2 123.8,150.7 110.1,164.8 107.1,168.1 "
   id="polygon981" />
				<polygon
   class="st2"
   points="107.7,138 102.1,141.7 106.9,145.8 109.8,144.7 108.6,142.1 109.9,139.2 "
   id="polygon983" />
				<polygon
   class="st2"
   points="105.3,148.2 100.6,143.2 97.6,148.7 99.1,151.4 101.5,149.6 104.6,150.4 "
   id="polygon985" />
				<polygon
   class="st2"
   points="86.4,138.1 92,134.4 87.2,130.3 84.3,131.4 85.6,134 84.2,136.9 "
   id="polygon987" />
				<polygon
   class="st2"
   points="88.8,127.9 93.5,133 96.5,127.4 95,124.8 92.6,126.5 89.5,125.7 "
   id="polygon989" />
				<polygon
   class="st2"
   points="96.6,149 92.9,143.3 88.9,148.2 89.9,151.1 92.6,149.8 95.5,151.2 "
   id="polygon991" />
				<polygon
   class="st2"
   points="86.7,146.7 91.7,142.1 86.2,139 83.5,140.6 85.3,142.9 84.5,146 "
   id="polygon993" />
				<polygon
   class="st2"
   points="97.8,126.9 101.5,132.6 105.6,127.7 104.5,124.8 101.9,126.1 99,124.7 "
   id="polygon995" />
				<polygon
   class="st2"
   points="107.8,129.2 102.8,133.8 108.3,136.9 110.9,135.3 109.2,133 110,129.9 "
   id="polygon997" />
				<circle
   class="st2"
   cx="97.199997"
   cy="138.5"
   id="ellipse999"
   r="2.7" />
				<path
   class="st2"
   d="m 137.9,139.8 4.3,0.6 c 0.5,0.1 0.9,0.6 0.8,1.1 0,0.2 -0.1,0.4 -0.3,0.5 l -3.7,3.7 c -0.4,0.4 -1,0.4 -1.3,0 -0.2,-0.2 -0.3,-0.3 -0.3,-0.6 l -0.6,-4.3 c -0.1,-0.5 0.3,-1 0.8,-1.1 0.1,0 0.2,0 0.3,0.1 z"
   id="path1001" />
				<path
   class="st2"
   d="m 136.9,140.7 c 0.2,1.2 0.4,3 0.6,4.3 0.1,0.5 0.5,0.9 1,0.8 0.2,0 0.4,-0.1 0.6,-0.3 l 3.7,-3.7 c 0.4,-0.4 0.3,-1 0,-1.4 -0.1,-0.1 -0.3,-0.2 -0.5,-0.3 l -4.3,-0.6 c -0.5,-0.1 -1,0.3 -1.1,0.8 0,0.2 0,0.3 0,0.4 z"
   id="path1003" />
				<path
   class="st2"
   d="m 133.5,140.7 c -0.2,1.2 -0.4,3 -0.6,4.3 -0.1,0.5 -0.5,0.9 -1,0.8 -0.2,0 -0.4,-0.1 -0.6,-0.3 l -3.7,-3.8 c -0.4,-0.4 -0.4,-1 0,-1.3 0.1,-0.2 0.3,-0.3 0.5,-0.3 l 4.3,-0.6 c 0.5,-0.1 1,0.3 1.1,0.8 0,0.2 0,0.3 0,0.4 z"
   id="path1005" />
				<path
   class="st2"
   d="m 133.5,135.5 c -0.2,-1.2 -0.4,-3 -0.6,-4.3 -0.1,-0.5 -0.6,-0.9 -1.1,-0.8 -0.2,0 -0.4,0.1 -0.5,0.3 l -3.7,3.7 c -0.4,0.4 -0.4,1 0,1.3 0.1,0.2 0.3,0.3 0.5,0.3 l 4.3,0.6 c 0.5,0.1 1,-0.3 1.1,-0.8 0,-0.1 0,-0.2 0,-0.3 z"
   id="path1007" />
				<path
   class="st2"
   d="m 136.9,135.5 c 0.2,-1.2 0.4,-3 0.6,-4.3 0.1,-0.5 0.6,-0.9 1.1,-0.8 0.2,0 0.4,0.1 0.5,0.3 l 3.7,3.7 c 0.4,0.4 0.3,1 0,1.4 -0.1,0.1 -0.3,0.2 -0.5,0.3 l -4.3,0.6 c -0.5,0.1 -1,-0.3 -1.1,-0.8 0,-0.2 0,-0.3 0,-0.4 z"
   id="path1009" />
				<path
   class="st2"
   d="m 166,91.6 c 0,0 2.7,-2.5 2.6,-3.5 -0.1,-1 -6,-1.8 -6.9,-1.5 -0.6,0.2 -1.1,0.5 -1.5,0.9 l 5.2,4.8 z"
   id="path1011" />
				<path
   class="st2"
   d="m 164.7,92.9 c 0,0 -2.5,2.7 -3.5,2.6 -1,-0.1 -1.8,-6 -1.5,-6.9 0.6,-1.5 0.5,-1.5 0.5,-1.5 l 5.2,5.2 z"
   id="path1013" />
				<path
   class="st2"
   d="m 142.3,70.4 c 0,0 -2.7,2.5 -2.6,3.5 0.1,1 6,1.8 6.9,1.5 0.6,-0.2 1.1,-0.5 1.5,-0.9 l -5.2,-4.8 z"
   id="path1015" />
				<path
   class="st2"
   d="m 143.6,69.1 c 0,0 2.5,-2.7 3.5,-2.6 1,0.1 1.8,6 1.5,6.9 -0.6,1.5 -0.5,1.5 -0.5,1.5 l -5.2,-5.2 z"
   id="path1017" />
				<polygon
   class="st2"
   points="164.7,92.3 162.4,87.7 147.6,72.4 146.4,74.9 160.2,89 163.2,92.3 "
   id="polygon1019" />
				<path
   class="st2"
   d="m 142.1,129.5 c 0,0 -2.7,-2.5 -2.6,-3.5 0.1,-1 6,-1.8 6.9,-1.5 0.6,0.2 1.1,0.5 1.5,0.9 l -5.1,4.8 z"
   id="path1021" />
				<path
   class="st2"
   d="m 143.4,130.8 c 0,0 2.5,2.7 3.5,2.6 1,-0.1 1.8,-6 1.5,-6.9 -0.6,-1.5 -0.5,-1.5 -0.5,-1.5 l -5.2,5.2 z"
   id="path1023" />
				<path
   class="st2"
   d="m 165.8,108.2 c 0,0 2.7,2.5 2.6,3.5 -0.1,1 -6,1.8 -6.9,1.5 -0.6,-0.2 -1.1,-0.5 -1.5,-0.9 l 5.2,-4.8 z"
   id="path1025" />
				<path
   class="st2"
   d="m 164.5,107 c 0,0 -2.5,-2.7 -3.5,-2.6 -1,0.1 -1.8,6 -1.5,6.9 0.6,1.5 0.5,1.5 0.5,1.5 l 5.2,-5.2 z"
   id="path1027" />
				<polygon
   class="st2"
   points="143.3,130.2 145.6,125.6 160.5,110.3 161.6,112.8 147.9,126.9 144.9,130.2 "
   id="polygon1029" />
				<polygon
   class="st2"
   points="145.5,100.1 139.9,103.9 144.8,107.9 147.6,106.9 146.4,104.2 147.7,101.3 "
   id="polygon1031" />
				<polygon
   class="st2"
   points="143.1,110.3 138.5,105.3 135.4,110.8 137,113.5 139.3,111.7 142.4,112.5 "
   id="polygon1033" />
				<polygon
   class="st2"
   points="124.2,100.2 129.9,96.5 125,92.4 122.1,93.5 123.4,96.1 122,99 "
   id="polygon1035" />
				<polygon
   class="st2"
   points="126.6,90 131.3,95.1 134.4,89.5 132.8,86.9 130.4,88.6 127.3,87.8 "
   id="polygon1037" />
				<polygon
   class="st2"
   points="134.5,111.1 130.8,105.4 126.7,110.3 127.8,113.1 130.4,111.9 133.3,113.3 "
   id="polygon1039" />
				<polygon
   class="st2"
   points="124.5,108.8 129.5,104.1 124,101.1 121.4,102.7 123.1,105 122.3,108.1 "
   id="polygon1041" />
				<polygon
   class="st2"
   points="135.6,89.1 139.4,94.7 143.4,89.8 142.3,86.9 139.7,88.2 136.8,86.9 "
   id="polygon1043" />
				<polygon
   class="st2"
   points="145.6,91.3 140.6,95.9 146.1,99 148.7,97.4 147,95.1 147.8,92 "
   id="polygon1045" />
				<circle
   class="st2"
   cx="135"
   cy="100.6"
   id="ellipse1047"
   r="2.7" />
				<path
   class="st2"
   d="m 175.7,101.9 4.3,0.6 c 0.5,0.1 0.9,0.5 0.8,1 0,0.2 -0.1,0.4 -0.3,0.6 l -3.7,3.7 c -0.4,0.4 -1,0.4 -1.3,0 -0.2,-0.2 -0.3,-0.3 -0.3,-0.6 l -0.6,-4.3 c -0.1,-0.5 0.3,-1 0.8,-1.1 0.1,0 0.2,0 0.3,0.1 z"
   id="path1049" />
				<path
   class="st2"
   d="m 174.8,102.8 c 0.2,1.2 0.4,3 0.6,4.3 0.1,0.5 0.5,0.9 1,0.8 0.2,0 0.4,-0.1 0.6,-0.3 l 3.8,-3.7 c 0.4,-0.4 0.3,-1 0,-1.4 -0.1,-0.1 -0.3,-0.2 -0.5,-0.3 l -4.3,-0.6 c -0.5,-0.1 -1,0.2 -1.1,0.7 -0.1,0.2 -0.1,0.4 -0.1,0.5 z"
   id="path1051" />
				<path
   class="st2"
   d="m 171.3,102.8 c -0.2,1.2 -0.4,3 -0.6,4.3 -0.1,0.5 -0.5,0.9 -1,0.8 -0.2,0 -0.4,-0.1 -0.6,-0.3 l -3.7,-3.7 c -0.4,-0.4 -0.4,-1 0,-1.3 0.1,-0.2 0.3,-0.3 0.6,-0.3 l 4.3,-0.6 c 0.5,-0.1 1,0.3 1.1,0.8 -0.1,0.1 -0.1,0.2 -0.1,0.3 z"
   id="path1053" />
				<path
   class="st2"
   d="m 171.3,97.6 c -0.2,-1.2 -0.4,-3 -0.6,-4.3 -0.1,-0.5 -0.6,-0.9 -1.1,-0.8 -0.2,0 -0.4,0.1 -0.5,0.3 l -3.7,3.7 c -0.4,0.4 -0.4,1 0,1.3 0.1,0.2 0.3,0.3 0.6,0.3 l 4.3,0.6 c 0.5,0.1 1,-0.3 1.1,-0.8 -0.1,-0.1 -0.1,-0.2 -0.1,-0.3 z"
   id="path1055" />
				<path
   class="st2"
   d="m 174.8,97.6 c 0.2,-1.2 0.4,-3 0.6,-4.3 0.1,-0.5 0.6,-0.9 1.1,-0.8 0.2,0 0.4,0.1 0.5,0.3 l 3.7,3.7 c 0.4,0.4 0.3,1 0,1.4 -0.1,0.1 -0.3,0.2 -0.5,0.3 l -4.3,0.6 c -0.5,0.1 -1,-0.3 -1.1,-0.8 0,-0.2 0,-0.3 0,-0.4 z"
   id="path1057" />
				<path
   class="st2"
   d="m 203.8,53.7 c 0,0 2.7,-2.5 2.6,-3.5 -0.1,-1 -6,-1.8 -6.9,-1.5 -0.6,0.2 -1.1,0.5 -1.5,0.9 l 5.2,4.9 z"
   id="path1059" />
				<path
   class="st2"
   d="m 202.5,55 c 0,0 -2.5,2.7 -3.5,2.6 -1,-0.1 -1.8,-6 -1.5,-6.9 0.6,-1.5 0.5,-1.5 0.5,-1.5 l 5.2,5.2 z"
   id="path1061" />
				<path
   class="st2"
   d="m 180.1,32.5 c 0,0 -2.7,2.5 -2.6,3.5 0.1,1 6,1.8 6.9,1.5 0.6,-0.2 1.1,-0.5 1.5,-0.9 l -5.1,-4.8 z"
   id="path1063" />
				<path
   class="st2"
   d="m 181.4,31.2 c 0,0 2.5,-2.7 3.5,-2.6 1,0.1 1.8,6 1.5,6.9 C 185.8,37 186,37 186,37 l -5.2,-5.2 z"
   id="path1065" />
				<polygon
   class="st2"
   points="202.6,54.4 200.3,49.7 185.4,34.5 184.3,37 198,51.1 201,54.4 "
   id="polygon1067" />
				<path
   class="st2"
   d="m 179.9,91.6 c 0,0 -2.7,-2.5 -2.6,-3.5 0.1,-1 6,-1.8 6.9,-1.5 0.6,0.2 1.1,0.5 1.6,0.9 l -5.2,4.8 z"
   id="path1069" />
				<path
   class="st2"
   d="m 181.2,92.9 c 0,0 2.5,2.7 3.5,2.6 1,-0.1 1.8,-6 1.5,-6.9 -0.6,-1.5 -0.4,-1.5 -0.4,-1.5 l -5.2,5.2 z"
   id="path1071" />
				<path
   class="st2"
   d="m 203.7,70.4 c 0,0 2.7,2.5 2.6,3.5 -0.1,1 -6,1.8 -6.8,1.5 -0.6,-0.2 -1.1,-0.5 -1.6,-0.9 l 5.3,-4.8 z"
   id="path1073" />
				<path
   class="st2"
   d="m 202.3,69.1 c 0,0 -2.5,-2.7 -3.5,-2.6 -1,0.1 -1.8,6 -1.5,6.9 0.6,1.5 0.5,1.5 0.5,1.5 l 5.2,-5.2 z"
   id="path1075" />
				<polygon
   class="st2"
   points="181.1,92.3 183.5,87.7 198.3,72.4 199.5,74.9 185.7,89 182.7,92.3 "
   id="polygon1077" />
				<polygon
   class="st2"
   points="183.4,62.2 177.7,66 182.6,70 185.4,69 184.2,66.3 185.6,63.4 "
   id="polygon1079" />
				<polygon
   class="st2"
   points="180.9,72.4 176.3,67.4 173.2,72.9 174.8,75.6 177.1,73.8 180.2,74.6 "
   id="polygon1081" />
				<polygon
   class="st2"
   points="162,62.3 167.7,58.6 162.8,54.5 159.9,55.6 161.2,58.2 159.8,61.1 "
   id="polygon1083" />
				<polygon
   class="st2"
   points="164.5,52.1 169.1,57.2 172.2,51.6 170.6,49 168.3,50.7 165.2,49.9 "
   id="polygon1085" />
				<polygon
   class="st2"
   points="172.3,73.2 168.6,67.5 164.5,72.4 165.6,75.3 168.2,74 171.1,75.4 "
   id="polygon1087" />
				<polygon
   class="st2"
   points="162.3,70.9 167.4,66.3 161.8,63.2 159.2,64.8 160.9,67.1 160.1,70.2 "
   id="polygon1089" />
				<polygon
   class="st2"
   points="173.5,51.2 177.2,56.8 181.2,51.9 180.2,49.1 177.6,50.3 174.6,49 "
   id="polygon1091" />
				<polygon
   class="st2"
   points="183.4,53.4 178.4,58.1 183.9,61.1 186.6,59.6 184.8,57.2 185.6,54.1 "
   id="polygon1093" />
				<circle
   class="st2"
   cx="172.8"
   cy="62.700001"
   id="ellipse1095"
   r="2.7" />
				<path
   class="st2"
   d="m 213.5,64 4.3,0.6 c 0.5,0.1 0.9,0.5 0.8,1 0,0.2 -0.1,0.4 -0.3,0.6 l -3.7,3.7 c -0.4,0.4 -1,0.4 -1.4,0 -0.1,-0.1 -0.2,-0.3 -0.3,-0.5 l -0.6,-4.3 c -0.1,-0.5 0.3,-1 0.8,-1.1 0.2,0 0.3,0 0.4,0 z"
   id="path1097" />
				<path
   class="st2"
   d="m 212.6,64.9 c 0.2,1.2 0.4,3 0.6,4.3 0.1,0.5 0.5,0.9 1,0.8 0.2,0 0.4,-0.1 0.6,-0.3 l 3.7,-3.7 c 0.4,-0.4 0.4,-1 0,-1.3 -0.1,-0.2 -0.3,-0.3 -0.6,-0.3 l -4.3,-0.6 c -0.5,-0.1 -1,0.3 -1.1,0.8 0.1,0.1 0.1,0.2 0.1,0.3 z"
   id="path1099" />
				<path
   class="st2"
   d="m 209.1,64.9 c -0.2,1.2 -0.4,3 -0.6,4.3 -0.1,0.5 -0.5,0.9 -1,0.8 -0.2,0 -0.4,-0.1 -0.6,-0.3 L 203.1,66 c -0.4,-0.4 -0.4,-1 0,-1.3 0.1,-0.2 0.3,-0.3 0.6,-0.3 l 4.3,-0.6 c 0.5,-0.1 1,0.2 1.1,0.7 0,0.1 0,0.3 0,0.4 z"
   id="path1101" />
				<path
   class="st2"
   d="m 209.1,59.7 c -0.2,-1.2 -0.4,-3 -0.6,-4.3 -0.1,-0.5 -0.5,-0.9 -1,-0.8 -0.2,0 -0.4,0.1 -0.6,0.3 l -3.8,3.7 c -0.4,0.4 -0.4,1 0,1.3 0.1,0.2 0.3,0.3 0.6,0.3 l 4.3,0.6 c 0.5,0.1 1,-0.2 1.1,-0.7 0,-0.1 0,-0.3 0,-0.4 z"
   id="path1103" />
				<path
   class="st2"
   d="m 212.6,59.7 c 0.2,-1.2 0.4,-3 0.6,-4.3 0.1,-0.5 0.5,-0.9 1,-0.8 0.2,0 0.4,0.1 0.6,0.3 l 3.7,3.7 c 0.4,0.4 0.4,1 0,1.3 -0.1,0.2 -0.3,0.3 -0.6,0.3 l -4.3,0.6 c -0.5,0.1 -1,-0.3 -1.1,-0.8 0.1,-0.1 0.1,-0.2 0.1,-0.3 z"
   id="path1105" />
				<path
   class="st2"
   d="m 241.7,15.8 c 0,0 2.7,-2.5 2.6,-3.5 -0.1,-1 -6,-1.8 -6.8,-1.5 -0.6,0.2 -1.1,0.5 -1.6,0.9 l 5.3,4.7 z"
   id="path1107" />
				<path
   class="st2"
   d="m 240.3,17.1 c 0,0 -2.5,2.7 -3.5,2.6 -1,-0.1 -1.8,-6.1 -1.5,-6.9 0.6,-1.5 0.5,-1.5 0.5,-1.5 l 5.3,5.1 z"
   id="path1109" />
				<path
   class="st2"
   d="m 217.9,-5.4 c 0,0 -2.7,2.5 -2.6,3.5 0.1,1 6,1.8 6.9,1.5 0.6,-0.2 1.1,-0.6 1.6,-0.9 L 218.5,-6 Z"
   id="path1111" />
				<path
   class="st2"
   d="m 219.2,-6.7 c 0,0 2.5,-2.7 3.5,-2.6 1,0.1 1.8,6.1 1.5,6.9 -0.6,1.5 -0.4,1.5 -0.4,1.5 L 218.5,-6 Z"
   id="path1113" />
				<polygon
   class="st2"
   points="240.4,16.5 238.1,11.9 223.2,-3.4 222.1,-0.9 235.8,13.2 238.8,16.5 "
   id="polygon1115" />
				<path
   class="st2"
   d="m 217.7,53.7 c 0,0 -2.7,-2.5 -2.6,-3.5 0.1,-1 6,-1.8 6.9,-1.5 0.6,0.2 1.1,0.5 1.6,0.9 l -5.2,4.9 z"
   id="path1117" />
				<path
   class="st2"
   d="m 219,55 c 0,0 2.5,2.7 3.5,2.6 1,-0.1 1.8,-6 1.5,-6.9 -0.6,-1.5 -0.5,-1.5 -0.5,-1.5 l -5.2,5.3 z"
   id="path1119" />
				<path
   class="st2"
   d="m 241.5,32.5 c 0,0 2.7,2.5 2.6,3.5 -0.1,1 -6,1.8 -6.9,1.5 -0.6,-0.2 -1.1,-0.6 -1.6,-0.9 l 5.2,-4.8 z"
   id="path1121" />
				<path
   class="st2"
   d="m 240.2,31.2 c 0,0 -2.5,-2.7 -3.5,-2.6 -1,0.1 -1.8,6 -1.5,6.9 0.6,1.5 0.5,1.5 0.5,1.5 l 5.2,-5.2 z"
   id="path1123" />
				<polygon
   class="st2"
   points="219,54.4 221.3,49.7 236.1,34.5 237.3,37 223.5,51.1 220.6,54.4 "
   id="polygon1125" />
				<polygon
   class="st2"
   points="221.2,24.4 215.5,28.1 220.4,32.1 223.3,31.1 222,28.4 223.4,25.5 "
   id="polygon1127" />
				<polygon
   class="st2"
   points="218.7,34.5 214.1,29.5 211,35 212.6,37.7 214.9,35.9 218,36.7 "
   id="polygon1129" />
				<polygon
   class="st2"
   points="199.9,24.4 205.5,20.7 200.6,16.6 197.8,17.7 199,20.3 197.7,23.2 "
   id="polygon1131" />
				<polygon
   class="st2"
   points="202.3,14.3 206.9,19.3 210,13.7 208.4,11.1 206.1,12.8 203,12 "
   id="polygon1133" />
				<polygon
   class="st2"
   points="210.1,35.3 206.4,29.6 202.3,34.5 203.4,37.4 206,36.1 208.9,37.5 "
   id="polygon1135" />
				<polygon
   class="st2"
   points="200.1,33 205.2,28.4 199.6,25.3 197,26.9 198.7,29.2 197.9,32.3 "
   id="polygon1137" />
				<polygon
   class="st2"
   points="211.3,13.2 215,18.9 219.1,14 218,11.2 215.4,12.4 212.5,11.1 "
   id="polygon1139" />
				<polygon
   class="st2"
   points="221.2,15.5 216.2,20.2 221.8,23.2 224.4,21.6 222.7,19.3 223.5,16.2 "
   id="polygon1141" />
				<circle
   class="st2"
   cx="210.60001"
   cy="24.799999"
   id="ellipse1143"
   r="2.7" />
				<path
   class="st2"
   d="m 251.3,26.1 4.3,0.6 c 0.5,0.1 0.9,0.5 0.8,1 0,0.2 -0.1,0.4 -0.3,0.6 l -3.7,3.8 c -0.4,0.4 -1,0.4 -1.4,0 -0.1,-0.1 -0.2,-0.3 -0.3,-0.5 l -0.6,-4.3 c -0.1,-0.5 0.1,-1 0.6,-1.1 0.4,-0.1 0.5,-0.1 0.6,-0.1 z"
   id="path1145" />
				<path
   class="st2"
   d="m 250.4,27 c 0.2,1.2 0.4,3 0.6,4.3 0.1,0.5 0.6,0.9 1.1,0.8 0.2,0 0.4,-0.1 0.5,-0.3 l 3.7,-3.7 c 0.4,-0.4 0.4,-1 0,-1.3 -0.1,-0.2 -0.3,-0.3 -0.6,-0.3 l -4.3,-0.6 c -0.5,-0.1 -1,0.3 -1.1,0.8 0.1,0.1 0.1,0.2 0.1,0.3 z"
   id="path1147" />
				<path
   class="st2"
   d="m 246.9,27 c -0.2,1.2 -0.4,3 -0.6,4.3 -0.1,0.5 -0.6,0.9 -1.1,0.8 -0.2,0 -0.4,-0.1 -0.5,-0.3 l -3.6,-3.7 c -0.4,-0.4 -0.3,-1 0,-1.4 0.1,-0.1 0.3,-0.2 0.5,-0.3 l 4.3,-0.6 c 0.5,0 1,0.4 1,0.9 0,0.2 0,0.3 0,0.3 z"
   id="path1149" />
				<path
   class="st2"
   d="m 246.9,21.8 c -0.2,-1.2 -0.4,-3 -0.6,-4.3 -0.1,-0.5 -0.5,-0.9 -1,-0.8 -0.2,0 -0.4,0.1 -0.6,0.3 l -3.6,3.7 c -0.4,0.4 -0.3,1 0,1.4 0.1,0.1 0.3,0.2 0.5,0.3 l 4.3,0.6 c 0.5,0 1,-0.4 1,-0.9 0,-0.2 0,-0.2 0,-0.3 z"
   id="path1151" />
				<path
   class="st2"
   d="m 250.4,21.8 c 0.2,-1.2 0.4,-3 0.6,-4.3 0.1,-0.5 0.5,-0.9 1,-0.8 0.2,0 0.4,0.1 0.6,0.3 l 3.7,3.7 c 0.4,0.4 0.4,1 0,1.3 -0.1,0.2 -0.3,0.3 -0.6,0.3 l -4.3,0.6 c -0.5,0.1 -1,-0.3 -1.1,-0.8 0.1,-0.1 0.1,-0.2 0.1,-0.3 z"
   id="path1153" />
				<path
   class="st2"
   d="m 62,215.8 4.3,0.6 c 0.5,0.1 0.8,0.7 0.7,1.2 0,0.1 -0.1,0.3 -0.2,0.4 l -3.7,3.7 c -0.4,0.4 -1,0.4 -1.3,0 -0.2,-0.2 -0.3,-0.3 -0.3,-0.6 l -0.6,-4.3 c -0.1,-0.5 0.3,-1 0.8,-1 0.1,0 0.2,0 0.3,0 z"
   id="path1155" />
				<path
   class="st2"
   d="m 61,216.8 c 0.2,1.2 0.4,3 0.6,4.3 0.1,0.5 0.5,0.9 1,0.8 0.2,0 0.4,-0.1 0.6,-0.3 l 3.7,-3.7 c 0.4,-0.4 0.3,-1 0,-1.4 -0.1,-0.1 -0.3,-0.2 -0.5,-0.3 l -4.3,-0.6 c -0.5,-0.1 -1,0.3 -1.1,0.8 0,0.2 0,0.3 0,0.4 z"
   id="path1157" />
				<path
   class="st2"
   d="m 57.5,216.8 c -0.2,1.2 -0.4,3 -0.6,4.3 -0.1,0.5 -0.5,0.9 -1,0.8 -0.2,0 -0.4,-0.1 -0.6,-0.3 l -3.7,-3.7 c -0.4,-0.4 -0.4,-1 0,-1.3 0.1,-0.2 0.3,-0.3 0.6,-0.3 l 4.3,-0.6 c 0.5,-0.1 1,0.3 1.1,0.8 -0.1,0.1 -0.1,0.2 -0.1,0.3 z"
   id="path1159" />
				<path
   class="st2"
   d="m 57.5,211.5 c -0.2,-1.2 -0.4,-3 -0.6,-4.3 -0.1,-0.5 -0.6,-0.9 -1.1,-0.8 -0.2,0 -0.4,0.1 -0.5,0.3 l -3.7,3.7 c -0.4,0.4 -0.4,1 0,1.3 0.1,0.2 0.3,0.3 0.6,0.3 l 4.3,0.6 c 0.5,0.1 1,-0.3 1.1,-0.8 -0.1,-0.1 -0.1,-0.2 -0.1,-0.3 z"
   id="path1161" />
				<path
   class="st2"
   d="m 61,211.5 c 0.2,-1.2 0.4,-3 0.6,-4.3 0.1,-0.5 0.6,-0.9 1.1,-0.8 0.2,0 0.4,0.1 0.5,0.3 l 3.7,3.7 c 0.4,0.4 0.3,1 0,1.4 -0.1,0.1 -0.3,0.2 -0.5,0.3 l -4.3,0.6 c -0.5,0.1 -1,-0.3 -1.1,-0.8 0,-0.2 0,-0.3 0,-0.4 z"
   id="path1163" />
			</g>
		</g>
	</g>
</g>
</svg>
