<svg xmlns="http://www.w3.org/2000/svg" viewBox="0 0 53.63 53.63"><defs><style>.cls-1{fill:#1dcad3;}.cls-2{fill:#fff;}</style></defs><title>Fichier 4</title><g id="Calque_2" data-name="Calque 2"><g id="Background"><rect class="cls-1" width="53.63" height="53.63"/></g><g id="Layer_2" data-name="Layer 2"><polygon class="cls-2" points="37.69 1.71 37.69 14.75 27.85 24.41 27.85 10.62 36.92 1.71 17.15 1.71 26.23 10.62 26.23 24.41 16.38 14.75 16.38 1.71 8.1 1.71 1.83 7.98 1.83 16.31 15.06 16.31 24.73 26.15 10.94 26.15 1.83 16.88 1.83 37.05 10.94 27.77 24.73 27.77 15.06 37.62 1.83 37.62 1.83 45.33 8.24 51.74 16.62 51.74 16.62 38.94 26.47 29.27 26.47 43.06 17.63 51.74 36.93 51.74 28.09 43.06 28.09 29.27 37.93 38.94 37.93 51.74 45.32 51.74 51.71 45.35 51.71 37.38 39.25 37.38 29.59 27.53 43.38 27.53 51.71 36.02 51.71 17.43 43.38 25.91 29.59 25.91 39.25 16.07 51.71 16.07 51.71 8.17 45.26 1.71 37.69 1.71"/></g></g></svg>