<?xml version="1.0" encoding="UTF-8" standalone="no"?>
<!-- Generator: Adobe Illustrator 22.1.0, SVG Export Plug-In . SVG Version: 6.00 Build 0)  -->

<svg
   version="1.1"
   id="Calque_1"
   x="0px"
   y="0px"
   viewBox="0 0 54.999999 54.590952"
   xml:space="preserve"
   sodipodi:docname="first-player.svg"
   width="55"
   height="54.59095"
   inkscape:version="1.2.1 (9c6d41e4, 2022-07-14)"
   xmlns:inkscape="http://www.inkscape.org/namespaces/inkscape"
   xmlns:sodipodi="http://sodipodi.sourceforge.net/DTD/sodipodi-0.dtd"
   xmlns="http://www.w3.org/2000/svg"
   xmlns:svg="http://www.w3.org/2000/svg"><defs
   id="defs39" /><sodipodi:namedview
   id="namedview37"
   pagecolor="#ffffff"
   bordercolor="#000000"
   borderopacity="0.25"
   inkscape:showpageshadow="2"
   inkscape:pageopacity="0.0"
   inkscape:pagecheckerboard="0"
   inkscape:deskcolor="#d1d1d1"
   showgrid="false"
   inkscape:zoom="4.8065175"
   inkscape:cx="7.0737285"
   inkscape:cy="15.915889"
   inkscape:window-width="1311"
   inkscape:window-height="691"
   inkscape:window-x="0"
   inkscape:window-y="25"
   inkscape:window-maximized="0"
   inkscape:current-layer="Calque_1" />
<style
   type="text/css"
   id="style2">
	.st0{fill:#003764;}
</style>
<title
   id="title4">Fichier 15</title>
<rect
   style="fill:#ffffff;stroke:#ffffff;stroke-width:0.998306"
   id="rect4856"
   width="54.001694"
   height="53.576626"
   x="0.6233058"
   y="0.62330562" /><g
   id="Calque_2_1_"
   transform="matrix(1.2369421,0,0,1.2369421,-3.05247,-3.0505518)">
	<g
   id="Layer_2">
		<path
   class="st0"
   d="M 24.7,46.6 C 19.6,46.6 15.1,43.4 13.4,38.7 12.9,37.3 11.8,36.3 10.5,35.8 4.3,33.6 1,26.9 3.1,20.7 4.3,17.2 7,14.5 10.5,13.3 c 1.4,-0.5 2.4,-1.6 2.9,-2.9 2.3,-6.2 9.2,-9.5 15.4,-7.2 3.3,1.2 6,3.9 7.2,7.2 0.5,1.4 1.6,2.4 2.9,2.9 6.2,2.1 9.5,8.9 7.4,15.1 -1.2,3.5 -3.9,6.2 -7.4,7.4 -1.4,0.5 -2.4,1.5 -2.9,2.9 -1.7,4.7 -6.2,7.9 -11.3,7.9 z m 0,-41.5 c -4,0 -7.5,2.5 -8.9,6.2 -0.7,2.1 -0.6,3.8 -2.7,4.5 -3.7,1.3 -5.1,4.8 -5.1,8.8 0,4 1.4,7.5 5.1,8.8 2.1,0.7 2.7,2.4 3.4,4.5 1.3,3.7 4.1,6.2 8.1,6.2 4,0 6.8,-2.5 8.1,-6.2 0.6,-2.1 2.1,-3.7 4.1,-4.5 3.8,-1.3 5.1,-4.8 5.1,-8.8 0,-4 -1.4,-7.5 -5.1,-8.8 C 34.7,15.1 34.1,13.4 33.4,11.3 32.2,7.5 28.7,5.1 24.7,5.1 Z"
   id="path6" />
		<path
   class="st0"
   d="m 17.9,12.4 h 0.3 c 0.6,0 0.9,0.3 0.9,1 0,0.1 0,0.3 -0.1,0.4 0.1,0.2 0.3,0.3 0.6,0.3 0.9,0 1.8,-0.4 2.5,-0.9 0.8,-0.7 1.5,-1.6 1.9,-2.6 h 2.2 v 22.8 l 2.3,2.4 h -8.6 l 2.7,-2.3 v -17 c -0.7,0.2 -1.5,0.4 -2.2,0.4 C 19,16.8 18.1,16.3 17.6,15.6 H 18 c 0.4,0.6 1.2,0.9 2.5,1 0.8,0 1.6,-0.3 2.2,-0.7 v -1.1 c -0.8,0.5 -1.7,0.8 -2.7,0.9 -2,-0.2 -3,-0.8 -3,-2 0,-0.6 0.4,-1.1 0.9,-1.3 z m 9.4,-1.2 0.4,0.3 V 33.1 L 31.1,37 H 20.5 L 20,36.5 h 10 l -2.8,-3.1 z"
   id="path8" />
		<path
   class="st0"
   d="M 46.5,32.9 C 46.4,32.6 46,32.7 46,33 c 0.1,1.5 -0.3,3 -1.2,4.2 -0.7,0.7 -1.1,1.5 -1.3,2.5 -0.2,1.5 0.7,2.9 2.1,3.4 0.1,0 0.3,0 0.3,-0.2 0,0 0,0 0,-0.1 0,-0.7 -0.2,-1.4 -0.2,-2.1 0.1,-1 0.4,-2.1 0.8,-3 0.4,-1.7 0.4,-3.3 0,-4.8 z"
   id="path10" />
		<path
   class="st0"
   d="m 34,45.9 c -0.3,-0.1 -0.3,-0.5 0,-0.5 1.5,0.1 3,-0.4 4.1,-1.4 0.7,-0.7 1.5,-1.2 2.4,-1.4 1.5,-0.3 3,0.6 3.5,2 0,0.1 0,0.3 -0.2,0.3 0,0 0,0 -0.1,0 -0.7,0 -1.4,-0.2 -2.1,-0.1 -1.2,0 -1.9,0.6 -3,0.9 -1.5,0.5 -3.1,0.6 -4.6,0.2 z"
   id="path12" />
		<path
   class="st0"
   d="m 16.5,45.7 c 0.3,-0.1 0.2,-0.5 -0.1,-0.5 -1.5,0.1 -3.1,-0.3 -4.3,-1.3 -0.7,-0.7 -1.6,-1.1 -2.5,-1.3 -1.5,-0.2 -3,0.7 -3.4,2.2 0,0.1 0.1,0.3 0.2,0.3 0,0 0,0 0.1,0 0.7,0 1.4,-0.2 2.2,-0.2 1.1,0.1 2.1,0.4 3.1,0.9 1.5,0.3 3.2,0.3 4.7,-0.1 z"
   id="path14" />
		<path
   class="st0"
   d="m 3.2,32.9 c 0.1,-0.3 0.5,-0.3 0.5,0 -0.1,1.6 0.4,3.1 1.4,4.3 0.7,0.7 1.2,1.5 1.4,2.4 0.3,1.5 -0.6,3 -2,3.5 -0.1,0 -0.2,-0.1 -0.3,-0.2 0,-0.7 0.2,-1.4 0.2,-2.2 0,-1.2 -0.6,-2 -1,-3.1 C 2.9,36.2 2.9,34.5 3.2,32.9 Z"
   id="path16" />
		<path
   class="st0"
   d="M 46.5,16.7 C 46.4,17 46,16.9 46,16.6 46.1,15 45.7,13.4 44.7,12.2 44,11.5 43.5,10.6 43.3,9.6 43,8 44,6.4 45.6,6 c 0.1,0 0.3,0.1 0.3,0.2 0,0 0,0 0,0.1 0,0.8 -0.2,1.5 -0.2,2.2 0,1.2 0.5,2.1 0.9,3.2 0.3,1.7 0.3,3.4 -0.1,5 z"
   id="path18" />
		<path
   class="st0"
   d="M 33.3,2.9 C 33,3 33,3.5 33.3,3.5 34.9,3.4 36.5,4 37.7,5 c 0.7,0.7 1.6,1.2 2.6,1.5 1.6,0.3 3.1,-0.6 3.6,-2.1 0,-0.1 0,-0.3 -0.2,-0.3 0,0 0,0 -0.1,0 -0.8,0 -1.5,0.2 -2.3,0.2 -1.2,0 -2.1,-0.6 -3.2,-1 C 36.6,2.6 34.9,2.6 33.3,2.9 Z"
   id="path20" />
		<path
   class="st0"
   d="m 17.3,3.2 c 0.1,0.1 0.2,0.2 0.2,0.3 0,0.1 -0.1,0.2 -0.2,0.2 C 15.7,3.6 14.1,4.1 12.8,5.1 12,5.8 11,6.3 10,6.5 8.4,6.8 6.9,5.8 6.4,4.3 6.4,4.2 6.4,4 6.6,4 c 0,0 0,0 0.1,0 0.8,0 1.5,0.2 2.3,0.3 1.2,0 2.1,-0.5 3.3,-0.9 1.6,-0.6 3.3,-0.6 5,-0.2 z"
   id="path22" />
		<path
   class="st0"
   d="M 3.2,16.7 C 3.3,17 3.7,17 3.7,16.7 3.6,15.1 4.2,13.4 5.3,12.2 6,11.5 6.5,10.6 6.8,9.6 7.1,8 6.2,6.4 4.7,5.9 c -0.1,0 -0.3,0 -0.3,0.2 0,0 0,0 0,0.1 -0.1,0.7 0.1,1.4 0.1,2.2 0,1.2 -0.6,2.1 -1,3.2 -0.6,1.7 -0.6,3.4 -0.3,5.1 z"
   id="path24" />
		<circle
   class="st0"
   cx="10.2"
   cy="9.6999998"
   r="2.0999999"
   id="circle26" />
		<circle
   class="st0"
   cx="39.900002"
   cy="9.6999998"
   r="2.0999999"
   id="circle28" />
		<circle
   class="st0"
   cx="10.2"
   cy="39.099998"
   r="2.0999999"
   id="circle30" />
		<circle
   class="st0"
   cx="39.900002"
   cy="39.099998"
   r="2.0999999"
   id="circle32" />
	</g>
</g>
</svg>
