<?xml version="1.0" encoding="utf-8"?>
<!-- Generator: Adobe Illustrator 22.1.0, SVG Export Plug-In . SVG Version: 6.00 Build 0)  -->
<svg version="1.1" id="Calque_1" xmlns="http://www.w3.org/2000/svg" xmlns:xlink="http://www.w3.org/1999/xlink" x="0px" y="0px"
	 viewBox="0 0 49.4 49.1" style="enable-background:new 0 0 49.4 49.1;" xml:space="preserve">
<style type="text/css">
	.st0{fill:#003764;}
</style>
<title>Fichier 15</title>
<g id="Calque_2_1_">
	<g id="Layer_2">
		<path class="st0" d="M24.7,46.6c-5.1,0-9.6-3.2-11.3-7.9c-0.5-1.4-1.6-2.4-2.9-2.9C4.3,33.6,1,26.9,3.1,20.7
			c1.2-3.5,3.9-6.2,7.4-7.4c1.4-0.5,2.4-1.6,2.9-2.9c2.3-6.2,9.2-9.5,15.4-7.2c3.3,1.2,6,3.9,7.2,7.2c0.5,1.4,1.6,2.4,2.9,2.9
			c6.2,2.1,9.5,8.9,7.4,15.1c-1.2,3.5-3.9,6.2-7.4,7.4c-1.4,0.5-2.4,1.5-2.9,2.9C34.3,43.4,29.8,46.6,24.7,46.6z M24.7,5.1
			c-4,0-7.5,2.5-8.9,6.2c-0.7,2.1-0.6,3.8-2.7,4.5c-3.7,1.3-5.1,4.8-5.1,8.8s1.4,7.5,5.1,8.8c2.1,0.7,2.7,2.4,3.4,4.5
			c1.3,3.7,4.1,6.2,8.1,6.2s6.8-2.5,8.1-6.2c0.6-2.1,2.1-3.7,4.1-4.5c3.8-1.3,5.1-4.8,5.1-8.8s-1.4-7.5-5.1-8.8
			c-2.1-0.7-2.7-2.4-3.4-4.5C32.2,7.5,28.7,5.1,24.7,5.1z"/>
		<path class="st0" d="M17.9,12.4h0.3c0.6,0,0.9,0.3,0.9,1c0,0.1,0,0.3-0.1,0.4c0.1,0.2,0.3,0.3,0.6,0.3c0.9,0,1.8-0.4,2.5-0.9
			c0.8-0.7,1.5-1.6,1.9-2.6h2.2v22.8l2.3,2.4h-8.6l2.7-2.3V16.5c-0.7,0.2-1.5,0.4-2.2,0.4c-1.4-0.1-2.3-0.6-2.8-1.3H18
			c0.4,0.6,1.2,0.9,2.5,1c0.8,0,1.6-0.3,2.2-0.7v-1.1c-0.8,0.5-1.7,0.8-2.7,0.9c-2-0.2-3-0.8-3-2C17,13.1,17.4,12.6,17.9,12.4z
			 M27.3,11.2l0.4,0.3v21.6l3.4,3.9H20.5l-0.5-0.5h10l-2.8-3.1L27.3,11.2z"/>
		<path class="st0" d="M46.5,32.9c-0.1-0.3-0.5-0.2-0.5,0.1c0.1,1.5-0.3,3-1.2,4.2c-0.7,0.7-1.1,1.5-1.3,2.5
			c-0.2,1.5,0.7,2.9,2.1,3.4c0.1,0,0.3,0,0.3-0.2c0,0,0,0,0-0.1c0-0.7-0.2-1.4-0.2-2.1c0.1-1,0.4-2.1,0.8-3
			C46.9,36,46.9,34.4,46.5,32.9z"/>
		<path class="st0" d="M34,45.9c-0.3-0.1-0.3-0.5,0-0.5c1.5,0.1,3-0.4,4.1-1.4c0.7-0.7,1.5-1.2,2.4-1.4c1.5-0.3,3,0.6,3.5,2
			c0,0.1,0,0.3-0.2,0.3c0,0,0,0-0.1,0c-0.7,0-1.4-0.2-2.1-0.1c-1.2,0-1.9,0.6-3,0.9C37.1,46.2,35.5,46.3,34,45.9z"/>
		<path class="st0" d="M16.5,45.7c0.3-0.1,0.2-0.5-0.1-0.5c-1.5,0.1-3.1-0.3-4.3-1.3c-0.7-0.7-1.6-1.1-2.5-1.3
			c-1.5-0.2-3,0.7-3.4,2.2c0,0.1,0.1,0.3,0.2,0.3c0,0,0,0,0.1,0c0.7,0,1.4-0.2,2.2-0.2c1.1,0.1,2.1,0.4,3.1,0.9
			C13.3,46.1,15,46.1,16.5,45.7z"/>
		<path class="st0" d="M3.2,32.9c0.1-0.3,0.5-0.3,0.5,0c-0.1,1.6,0.4,3.1,1.4,4.3c0.7,0.7,1.2,1.5,1.4,2.4c0.3,1.5-0.6,3-2,3.5
			c-0.1,0-0.2-0.1-0.3-0.2c0-0.7,0.2-1.4,0.2-2.2c0-1.2-0.6-2-1-3.1C2.9,36.2,2.9,34.5,3.2,32.9z"/>
		<path class="st0" d="M46.5,16.7C46.4,17,46,16.9,46,16.6c0.1-1.6-0.3-3.2-1.3-4.4c-0.7-0.7-1.2-1.6-1.4-2.6
			c-0.3-1.6,0.7-3.2,2.3-3.6c0.1,0,0.3,0.1,0.3,0.2c0,0,0,0,0,0.1c0,0.8-0.2,1.5-0.2,2.2c0,1.2,0.5,2.1,0.9,3.2
			C46.9,13.4,46.9,15.1,46.5,16.7z"/>
		<path class="st0" d="M33.3,2.9C33,3,33,3.5,33.3,3.5c1.6-0.1,3.2,0.5,4.4,1.5c0.7,0.7,1.6,1.2,2.6,1.5c1.6,0.3,3.1-0.6,3.6-2.1
			c0-0.1,0-0.3-0.2-0.3c0,0,0,0-0.1,0c-0.8,0-1.5,0.2-2.3,0.2c-1.2,0-2.1-0.6-3.2-1C36.6,2.6,34.9,2.6,33.3,2.9z"/>
		<path class="st0" d="M17.3,3.2c0.1,0.1,0.2,0.2,0.2,0.3c0,0.1-0.1,0.2-0.2,0.2c-1.6-0.1-3.2,0.4-4.5,1.4C12,5.8,11,6.3,10,6.5
			C8.4,6.8,6.9,5.8,6.4,4.3c0-0.1,0-0.3,0.2-0.3c0,0,0,0,0.1,0c0.8,0,1.5,0.2,2.3,0.3c1.2,0,2.1-0.5,3.3-0.9
			C13.9,2.8,15.6,2.8,17.3,3.2z"/>
		<path class="st0" d="M3.2,16.7c0.1,0.3,0.5,0.3,0.5,0c-0.1-1.6,0.5-3.3,1.6-4.5c0.7-0.7,1.2-1.6,1.5-2.6C7.1,8,6.2,6.4,4.7,5.9
			c-0.1,0-0.3,0-0.3,0.2c0,0,0,0,0,0.1C4.3,6.9,4.5,7.6,4.5,8.4c0,1.2-0.6,2.1-1,3.2C2.9,13.3,2.9,15,3.2,16.7z"/>
		<circle class="st0" cx="10.2" cy="9.7" r="2.1"/>
		<circle class="st0" cx="39.9" cy="9.7" r="2.1"/>
		<circle class="st0" cx="10.2" cy="39.1" r="2.1"/>
		<circle class="st0" cx="39.9" cy="39.1" r="2.1"/>
	</g>
</g>
</svg>
