<svg xmlns="http://www.w3.org/2000/svg" viewBox="0 0 53.67 53.67"><defs><style>.cls-1{fill:#ffbf3c;}.cls-2{fill:#f5333f;}</style></defs><title>Fichier 6</title><g id="Calque_2" data-name="Calque 2"><g id="Background"><rect class="cls-1" width="53.67" height="53.67"/></g><g id="Layer_2" data-name="Layer 2"><path class="cls-2" d="M43,35.36c-.85.73-2.77,1.52-5.6-.1s-2.28-3.49-2.14-3.76a2.48,2.48,0,0,1,2.37-1.42,1.55,1.55,0,0,1,1.44,2.27A1.11,1.11,0,0,1,38,33s-.5.09-.07.57.9.31,1.61.1c.52.9,1.26,1,1.32.88a6.32,6.32,0,0,0-.5-1.66c-.14-.25.31-.47.33-1.06s0-1.36,0-1.36a3.75,3.75,0,0,0-1.58-1.63c-4.16-1.67-6,.22-6.19.36a2.58,2.58,0,0,0-.07,3.1,2.58,2.58,0,0,0-3.1.07c-.14.14-2,2-.36,6.19A3.75,3.75,0,0,0,31,40.17s.78,0,1.36,0,.81-.47,1.06-.33a6.43,6.43,0,0,0,1.66.5c.17-.06,0-.81-.88-1.33.21-.7.38-1.16-.1-1.6s-.56.07-.56.07a1.13,1.13,0,0,1-.69,1.1,1.55,1.55,0,0,1-2.27-1.44A2.48,2.48,0,0,1,32,34.74c.27-.14,2.14-.69,3.76,2.14s.83,4.75.11,5.6A18.88,18.88,0,0,1,29,46.06l-.21,3.08,1.64-.07-.08-2s-.12,0,.21-.21a4.76,4.76,0,0,1,1.68.14v.71l.82,0s1.49-2.41,2.26-2.47a1,1,0,0,1,1,1.24c.5-.24,1.39-1.85,1.54-3.7l.6-.1.56,1.6h.46l-.1,1.52L40,46l.61-1.31S44.9,47.12,46.07,47a14,14,0,0,0-2-1.77l.6-.14,0-.46c-1,.08-.93-.27-1.12-.37a9,9,0,0,1-5-6.25,9.05,9.05,0,0,1,6.24,5c.1.18.45.16.37,1.12l.46,0,.14-.6a14,14,0,0,0,1.77,2c.17-1.17-2.31-5.52-2.31-5.52l1.31-.6-.12-.62-1.52.1v-.46l-1.6-.56.1-.6c1.85-.15,3.46-1,3.71-1.54a1,1,0,0,1-1.25-1c.06-.77,2.47-2.27,2.47-2.27l0-.81h-.71A4.76,4.76,0,0,1,47.4,30c.17-.33.21-.21.21-.21l2,.08.07-1.64-3.08.21A18.75,18.75,0,0,1,43,35.36Z"/><path class="cls-2" d="M18.1,42.48c-.72-.85-1.51-2.77.11-5.6S21.7,34.6,22,34.74a2.48,2.48,0,0,1,1.42,2.37,1.55,1.55,0,0,1-2.27,1.44,1.13,1.13,0,0,1-.69-1.1s-.08-.5-.56-.07-.31.9-.1,1.6c-.9.52-1.05,1.27-.88,1.33a6.43,6.43,0,0,0,1.66-.5c.25-.14.47.3,1.06.33s1.36,0,1.36,0a3.75,3.75,0,0,0,1.63-1.58c1.67-4.16-.22-6.05-.36-6.19a2.58,2.58,0,0,0-3.1-.07,2.58,2.58,0,0,0-.07-3.1c-.14-.14-2-2-6.19-.36A3.75,3.75,0,0,0,13.3,30.5s0,.78,0,1.36.47.81.33,1.06a6.32,6.32,0,0,0-.5,1.66c.06.17.8,0,1.32-.88.71.21,1.17.38,1.61-.1S16,33,16,33a1.11,1.11,0,0,1-1.1-.68,1.55,1.55,0,0,1,1.44-2.27,2.48,2.48,0,0,1,2.37,1.42c.14.27.69,2.14-2.14,3.76s-4.75.83-5.6.1a18.75,18.75,0,0,1-3.58-6.9l-3.08-.21.07,1.64,2-.08s0-.12.21.21a4.76,4.76,0,0,1-.14,1.68H5.75l0,.81S8.14,34,8.2,34.78a1,1,0,0,1-1.25,1c.25.5,1.86,1.39,3.71,1.54l.1.6-1.6.56v.46l-1.52-.1-.12.62,1.31.6s-2.48,4.35-2.31,5.52a14,14,0,0,0,1.77-2l.14.6.46,0c-.08-1,.27-.94.37-1.12a9.05,9.05,0,0,1,6.24-5,9,9,0,0,1-5,6.25c-.19.1-.16.45-1.12.37l0,.46.6.14a14,14,0,0,0-2,1.77c1.17.17,5.51-2.31,5.51-2.31L14.05,46l.62-.12-.1-1.52H15l.56-1.6.6.1c.15,1.85,1,3.46,1.54,3.7a1,1,0,0,1,1-1.24c.77.06,2.26,2.47,2.26,2.47l.82,0V47a4.76,4.76,0,0,1,1.68-.14c.33.16.21.21.21.21l-.08,2,1.64.07L25,46.06A18.88,18.88,0,0,1,18.1,42.48Z"/><path class="cls-2" d="M35.11,13.48a6.43,6.43,0,0,0-1.66.5c-.25.14-.47-.3-1.06-.33s-1.36,0-1.36,0A3.75,3.75,0,0,0,29.4,15.2c-1.67,4.16.22,6.05.36,6.19a2.58,2.58,0,0,0,3.1.07,2.57,2.57,0,0,0,.07,3.1c.14.14,2,2,6.19.36a3.75,3.75,0,0,0,1.58-1.63s0-.78,0-1.36-.47-.81-.33-1.06a6.32,6.32,0,0,0,.5-1.66c-.06-.17-.8,0-1.32.88-.71-.21-1.17-.37-1.61.11s.07.56.07.56a1.11,1.11,0,0,1,1.1.68,1.55,1.55,0,0,1-1.44,2.27,2.48,2.48,0,0,1-2.37-1.41c-.14-.27-.69-2.15,2.14-3.77s4.75-.83,5.6-.1a18.83,18.83,0,0,1,3.58,6.9l3.08.21L49.6,23.9l-2,.08s0,.13-.21-.21a4.76,4.76,0,0,1,.14-1.68h.71l0-.81S45.86,19.78,45.8,19a1,1,0,0,1,1.25-1c-.25-.5-1.86-1.39-3.71-1.54l-.1-.6,1.6-.56v-.46l1.52.1.12-.62-1.31-.6s2.48-4.35,2.31-5.52a14,14,0,0,0-1.77,2l-.14-.6-.46,0c.08,1-.27.94-.37,1.12a9.05,9.05,0,0,1-6.24,5,9,9,0,0,1,5-6.24c.19-.11.16-.46,1.12-.38l0-.46-.6-.14a13.38,13.38,0,0,0,2-1.77c-1.17-.17-5.51,2.31-5.51,2.31L40,7.84,39.33,8l.1,1.52H39l-.56,1.6-.6-.1c-.15-1.85-1-3.45-1.54-3.7a1,1,0,0,1-1,1.24c-.77-.06-2.26-2.47-2.26-2.47l-.82,0v.71a4.76,4.76,0,0,1-1.68.14c-.33-.16-.21-.2-.21-.2l.08-2-1.64-.06L29,7.73a19,19,0,0,1,6.91,3.58c.72.86,1.51,2.77-.11,5.6S32.3,19.2,32,19.05a2.47,2.47,0,0,1-1.42-2.37,1.55,1.55,0,0,1,2.27-1.44,1.14,1.14,0,0,1,.69,1.11s.08.5.56.06.31-.9.1-1.6C35.13,14.29,35.28,13.54,35.11,13.48Z"/><path class="cls-2" d="M11,18.43c.85-.73,2.77-1.52,5.6.1s2.28,3.5,2.14,3.77a2.48,2.48,0,0,1-2.37,1.41,1.55,1.55,0,0,1-1.44-2.27,1.11,1.11,0,0,1,1.1-.68s.5-.09.07-.56-.9-.32-1.61-.11c-.52-.89-1.26-1.05-1.32-.88a6.32,6.32,0,0,0,.5,1.66c.14.25-.31.48-.33,1.06s0,1.36,0,1.36a3.75,3.75,0,0,0,1.58,1.63c4.16,1.67,6-.22,6.19-.36a2.57,2.57,0,0,0,.07-3.1,2.58,2.58,0,0,0,3.1-.07c.14-.14,2-2,.36-6.19A3.75,3.75,0,0,0,23,13.62s-.78,0-1.36,0-.81.47-1.06.33a6.43,6.43,0,0,0-1.66-.5c-.17.06,0,.81.88,1.33-.21.7-.38,1.16.1,1.6s.56-.06.56-.06a1.14,1.14,0,0,1,.69-1.11,1.55,1.55,0,0,1,2.27,1.44A2.47,2.47,0,0,1,22,19.05c-.27.15-2.14.69-3.76-2.14s-.83-4.74-.11-5.6A19,19,0,0,1,25,7.73l.21-3.07-1.64.06.08,2s.12,0-.21.2a4.76,4.76,0,0,1-1.68-.14V6.07l-.82,0s-1.49,2.41-2.26,2.47a1,1,0,0,1-1-1.24c-.5.25-1.39,1.85-1.54,3.7l-.6.1L15,9.48h-.46L14.67,8l-.62-.12-.61,1.31S9.1,6.67,7.93,6.84a13.38,13.38,0,0,0,2,1.77l-.6.14,0,.46c1-.08.93.27,1.12.38a9,9,0,0,1,5,6.24,9.05,9.05,0,0,1-6.24-5c-.1-.18-.45-.16-.37-1.12l-.46,0-.14.6a14,14,0,0,0-1.77-2c-.17,1.17,2.31,5.52,2.31,5.52l-1.31.6.12.62,1.52-.1v.46l1.6.56-.1.6c-1.85.15-3.46,1-3.71,1.54A1,1,0,0,1,8.2,19c-.06.77-2.47,2.27-2.47,2.27l0,.81h.71a4.76,4.76,0,0,1,.14,1.68c-.17.34-.21.21-.21.21l-2-.08-.07,1.64,3.08-.21A18.83,18.83,0,0,1,11,18.43Z"/><path class="cls-2" d="M26.9,42.43v0c-.21,0-1.76,2.51-1.63,2.94s.38-.11.59,0a1.6,1.6,0,0,1,.57.8c0,.1.06.79.06.79h.82s.06-.69.06-.79a1.67,1.67,0,0,1,.57-.8c.21-.13.45.41.59,0S27.12,42.43,26.9,42.43Z"/><path class="cls-2" d="M9.49,25.42c-.44.14.11.38,0,.59a1.58,1.58,0,0,1-.81.57l-.78.06v.83l.78.05a1.64,1.64,0,0,1,.81.57c.13.21-.42.45,0,.59s2.94-1.41,2.94-1.63h0C12.43,26.84,9.92,25.29,9.49,25.42Z"/><path class="cls-2" d="M27,11.32v0c.22,0,1.77-2.51,1.63-2.94s-.38.11-.59,0a1.59,1.59,0,0,1-.57-.8c0-.1-.06-.79-.06-.79h-.82s-.06.69-.06.79a1.59,1.59,0,0,1-.57.8c-.21.13-.45-.41-.59,0S26.76,11.32,27,11.32Z"/><path class="cls-2" d="M45.3,27.37l.78-.06v-.83l-.78-.06a1.61,1.61,0,0,1-.81-.56c-.13-.21.42-.46,0-.59s-2.94,1.41-2.94,1.63h0c0,.21,2.51,1.76,2.94,1.62s-.11-.38,0-.58A1.58,1.58,0,0,1,45.3,27.37Z"/><path class="cls-2" d="M30.69,27.23c.1,0,.42-.15.46-.33v0c0-.18-.36-.3-.46-.33s-1.25-1-1.56-1a10.13,10.13,0,0,0-1.46.4.13.13,0,0,1,0-.07,8.16,8.16,0,0,0,.55-1.8c0-.31-.95-1.46-1-1.56s-.15-.42-.33-.46h0c-.18,0-.3.36-.33.46s-1,1.25-1,1.56a8.74,8.74,0,0,0,.55,1.8.23.23,0,0,1,.06.09,10.18,10.18,0,0,0-1.48-.41c-.31,0-1.46,1-1.56,1s-.42.15-.46.33v0c0,.18.36.3.46.33s1.25,1,1.56,1a10.36,10.36,0,0,0,1.47-.42.1.1,0,0,1-.05.07,8.74,8.74,0,0,0-.55,1.8c0,.31.95,1.45,1,1.56s.15.42.33.46h0c.18,0,.3-.37.33-.46s1-1.25,1-1.56a8.16,8.16,0,0,0-.55-1.8.13.13,0,0,1,0-.07,10.13,10.13,0,0,0,1.46.4C29.44,28.24,30.59,27.26,30.69,27.23Z"/></g></g></svg>